M48
; DRILL file {KiCad 5.1.9+dfsg1-1~bpo10+1} date Wed Nov 10 17:07:08 2021
; FORMAT={-:-/ absolute / metric / decimal}
; #@! TF.CreationDate,2021-11-10T17:07:08+01:00
; #@! TF.GenerationSoftware,Kicad,Pcbnew,5.1.9+dfsg1-1~bpo10+1
; #@! TF.FileFunction,Plated,1,4,PTH
FMAT,2
METRIC
T1C0.300
T2C1.000
%
G90
G05
T1
X113.55Y-61.35
X113.62Y-83.14
X113.71Y-84.55
X114.25Y-98.51
X114.38Y-77.27
X114.75Y-86.2
X114.78Y-96.98
X115.01Y-84.89
X116.08Y-71.13
X117.33Y-96.9
X117.37Y-86.6
X117.66Y-73.6
X117.83Y-98.43
X119.2Y-92.98
X119.69Y-58.44
X122.202Y-60.405
X122.22Y-75.96
X122.43Y-70.31
X122.49Y-65.29
X123.046Y-59.56
X123.96Y-65.17
X124.048Y-73.952
X124.855Y-59.456
X125.01Y-57.75
X125.04Y-64.9
X125.04Y-79.11
X125.43Y-69.84
X125.878Y-87.589
X125.94Y-96.14
X126.54Y-88.28
X128.19Y-78.73
X128.4Y-96.14
X128.462Y-65.292
X128.64Y-67.98
X128.74Y-58.88
X128.905Y-67.0
X129.21Y-65.006
X129.722Y-68.092
X129.73Y-73.88
X131.06Y-75.04
X131.37Y-83.12
X132.15Y-102.57
X133.25Y-77.86
X133.34Y-67.73
X133.99Y-61.34
X135.19Y-91.46
X136.48Y-67.374
X136.79Y-83.32
X139.36Y-77.94
X139.82Y-65.373
X139.884Y-64.49
X140.159Y-63.578
X140.475Y-66.548
X140.495Y-61.589
X140.51Y-86.57
X140.61Y-72.71
X141.063Y-61.025
X141.82Y-77.58
X142.845Y-62.958
X143.9Y-80.72
X144.038Y-75.233
X144.16Y-79.15
X144.515Y-82.708
X144.516Y-80.077
X144.76Y-88.36
X145.0Y-77.474
X145.759Y-80.46
X145.93Y-65.58
X145.99Y-62.54
X146.39Y-77.436
X146.557Y-79.835
X146.603Y-82.798
X147.27Y-74.62
X148.88Y-97.599
X149.3Y-61.26
X149.69Y-69.83
X150.03Y-60.395
X150.92Y-63.48
X152.05Y-95.43
X154.73Y-72.39
X154.8Y-60.75
X155.668Y-57.97
X155.74Y-95.41
X156.13Y-60.895
X158.427Y-61.015
X158.708Y-76.668
X160.15Y-61.05
X160.268Y-62.052
X161.263Y-59.315
X165.29Y-101.79
X165.59Y-98.71
X171.13Y-73.33
X171.26Y-88.79
X171.47Y-62.26
X174.18Y-79.11
T2
X120.62Y-53.37
X120.62Y-55.91
X123.16Y-53.37
X123.16Y-55.91
X125.7Y-53.37
X125.7Y-55.91
X128.24Y-53.37
X128.24Y-55.91
X130.78Y-53.37
X130.78Y-55.91
X133.32Y-53.37
X133.32Y-55.91
X135.86Y-53.37
X135.86Y-55.91
X138.4Y-53.37
X138.4Y-55.91
X140.94Y-53.37
X140.94Y-55.91
X143.48Y-53.37
X143.48Y-55.91
X146.02Y-53.37
X146.02Y-55.91
X148.56Y-53.37
X148.56Y-55.91
X151.1Y-53.37
X151.1Y-55.91
X153.525Y-77.545
X153.525Y-80.085
X153.525Y-82.625
X153.64Y-53.37
X153.64Y-55.91
X156.065Y-77.545
X156.065Y-80.085
X156.065Y-82.625
X156.18Y-53.37
X156.18Y-55.91
X158.72Y-53.37
X158.72Y-55.91
X161.26Y-53.37
X161.26Y-55.91
X163.8Y-53.37
X163.8Y-55.91
X166.34Y-53.37
X166.34Y-55.91
X168.88Y-53.37
X168.88Y-55.91
T0
M30
