%TF.GenerationSoftware,KiCad,Pcbnew,5.1.9+dfsg1-1~bpo10+1*%
%TF.CreationDate,2021-11-10T17:07:06+01:00*%
%TF.ProjectId,ulx4m-cm4-hat,756c7834-6d2d-4636-9d34-2d6861742e6b,V1.0*%
%TF.SameCoordinates,Original*%
%TF.FileFunction,Legend,Top*%
%TF.FilePolarity,Positive*%
%FSLAX46Y46*%
G04 Gerber Fmt 4.6, Leading zero omitted, Abs format (unit mm)*
G04 Created by KiCad (PCBNEW 5.1.9+dfsg1-1~bpo10+1) date 2021-11-10 17:07:06*
%MOMM*%
%LPD*%
G01*
G04 APERTURE LIST*
%ADD10C,0.120000*%
%ADD11C,0.150000*%
%ADD12C,0.500000*%
%ADD13C,0.250000*%
G04 APERTURE END LIST*
D10*
%TO.C,C1*%
X122865000Y-86609420D02*
X122865000Y-86890580D01*
X123885000Y-86609420D02*
X123885000Y-86890580D01*
%TO.C,C2*%
X125485000Y-86609420D02*
X125485000Y-86890580D01*
X124465000Y-86609420D02*
X124465000Y-86890580D01*
%TO.C,C3*%
X153538748Y-62510000D02*
X154061252Y-62510000D01*
X153538748Y-61040000D02*
X154061252Y-61040000D01*
%TO.C,C4*%
X153844420Y-64140000D02*
X154125580Y-64140000D01*
X153844420Y-63120000D02*
X154125580Y-63120000D01*
%TO.C,C5*%
X153869420Y-64745000D02*
X154150580Y-64745000D01*
X153869420Y-65765000D02*
X154150580Y-65765000D01*
%TO.C,C6*%
X153819420Y-68015000D02*
X154100580Y-68015000D01*
X153819420Y-66995000D02*
X154100580Y-66995000D01*
%TO.C,C7*%
X153819420Y-68620000D02*
X154100580Y-68620000D01*
X153819420Y-69640000D02*
X154100580Y-69640000D01*
%TO.C,C8*%
X153513748Y-70290000D02*
X154036252Y-70290000D01*
X153513748Y-71760000D02*
X154036252Y-71760000D01*
%TO.C,C9*%
X143943748Y-83100000D02*
X144466252Y-83100000D01*
X143943748Y-84570000D02*
X144466252Y-84570000D01*
%TO.C,C10*%
X143839420Y-86220000D02*
X144120580Y-86220000D01*
X143839420Y-85200000D02*
X144120580Y-85200000D01*
%TO.C,C11*%
X143839420Y-86800000D02*
X144120580Y-86800000D01*
X143839420Y-87820000D02*
X144120580Y-87820000D01*
%TO.C,C21*%
X120765000Y-86688748D02*
X120765000Y-87211252D01*
X122235000Y-86688748D02*
X122235000Y-87211252D01*
%TO.C,D1*%
X135100000Y-93905000D02*
X135100000Y-96590000D01*
X137020000Y-93905000D02*
X135100000Y-93905000D01*
X137020000Y-96590000D02*
X137020000Y-93905000D01*
%TO.C,D2*%
X140020000Y-96590000D02*
X140020000Y-93905000D01*
X140020000Y-93905000D02*
X138100000Y-93905000D01*
X138100000Y-93905000D02*
X138100000Y-96590000D01*
%TO.C,D3*%
X143020000Y-96590000D02*
X143020000Y-93905000D01*
X143020000Y-93905000D02*
X141100000Y-93905000D01*
X141100000Y-93905000D02*
X141100000Y-96590000D01*
%TO.C,D4*%
X144100000Y-93905000D02*
X144100000Y-96590000D01*
X146020000Y-93905000D02*
X144100000Y-93905000D01*
X146020000Y-96590000D02*
X146020000Y-93905000D01*
%TO.C,R1*%
X135762500Y-92477258D02*
X135762500Y-92002742D01*
X136807500Y-92477258D02*
X136807500Y-92002742D01*
%TO.C,R2*%
X138787500Y-92002742D02*
X138787500Y-92477258D01*
X139832500Y-92002742D02*
X139832500Y-92477258D01*
%TO.C,R3*%
X144752500Y-102477258D02*
X144752500Y-102002742D01*
X145797500Y-102477258D02*
X145797500Y-102002742D01*
%TO.C,R4*%
X155797500Y-102487258D02*
X155797500Y-102012742D01*
X154752500Y-102487258D02*
X154752500Y-102012742D01*
%TO.C,R5*%
X142822500Y-92002742D02*
X142822500Y-92477258D01*
X141777500Y-92002742D02*
X141777500Y-92477258D01*
%TO.C,R6*%
X144787500Y-92002742D02*
X144787500Y-92477258D01*
X145832500Y-92002742D02*
X145832500Y-92477258D01*
%TO.C,R9*%
X146362742Y-74272500D02*
X146837258Y-74272500D01*
X146362742Y-73227500D02*
X146837258Y-73227500D01*
%TO.C,R34*%
X127797500Y-102012742D02*
X127797500Y-102487258D01*
X126752500Y-102012742D02*
X126752500Y-102487258D01*
%TO.C,R35*%
X135797500Y-102487258D02*
X135797500Y-102012742D01*
X134752500Y-102487258D02*
X134752500Y-102012742D01*
%TO.C,R49*%
X123017258Y-92232500D02*
X122542742Y-92232500D01*
X123017258Y-91187500D02*
X122542742Y-91187500D01*
%TO.C,R50*%
X123007258Y-92717500D02*
X122532742Y-92717500D01*
X123007258Y-93762500D02*
X122532742Y-93762500D01*
%TO.C,R56*%
X146857258Y-72632500D02*
X146382742Y-72632500D01*
X146857258Y-71587500D02*
X146382742Y-71587500D01*
D11*
%TO.C,SW1*%
X128530000Y-103650000D02*
X128530000Y-100050000D01*
X134030000Y-103650000D02*
X128530000Y-103650000D01*
X134030000Y-100050000D02*
X134030000Y-103650000D01*
X128530000Y-100050000D02*
X134030000Y-100050000D01*
%TO.C,SW2*%
X138530000Y-100060000D02*
X144030000Y-100060000D01*
X144030000Y-100060000D02*
X144030000Y-103660000D01*
X144030000Y-103660000D02*
X138530000Y-103660000D01*
X138530000Y-103660000D02*
X138530000Y-100060000D01*
%TO.C,SW3*%
X148530000Y-100060000D02*
X154030000Y-100060000D01*
X154030000Y-100060000D02*
X154030000Y-103660000D01*
X154030000Y-103660000D02*
X148530000Y-103660000D01*
X148530000Y-103660000D02*
X148530000Y-100060000D01*
D10*
%TO.C,U1*%
X143215000Y-64115000D02*
X143215000Y-65375000D01*
X143215000Y-70935000D02*
X143215000Y-69675000D01*
X146975000Y-64115000D02*
X143215000Y-64115000D01*
X149225000Y-70935000D02*
X143215000Y-70935000D01*
D11*
%TO.C,U2*%
X140609000Y-78442000D02*
X140609000Y-76664000D01*
X140609000Y-76664000D02*
X141371000Y-76664000D01*
X140609000Y-79458000D02*
X140609000Y-81236000D01*
X140609000Y-81236000D02*
X141371000Y-81236000D01*
X141371000Y-81236000D02*
X141371000Y-82252000D01*
X148229000Y-81236000D02*
X148991000Y-81236000D01*
X148991000Y-81236000D02*
X148991000Y-76664000D01*
X148991000Y-76664000D02*
X148229000Y-76664000D01*
X140609000Y-78442000D02*
G75*
G02*
X140609000Y-79458000I0J-508000D01*
G01*
%TO.C,U9*%
X137785000Y-81400000D02*
X137225000Y-81400000D01*
X137785000Y-78700000D02*
X137785000Y-81400000D01*
X137785000Y-63000000D02*
X137785000Y-65700000D01*
X137225000Y-63000000D02*
X137785000Y-63000000D01*
X105985000Y-63000000D02*
X105985000Y-81400000D01*
X105985000Y-63000000D02*
X112875000Y-63000000D01*
X105985000Y-81400000D02*
X112875000Y-81400000D01*
X112405000Y-63000000D02*
X112405000Y-81400000D01*
D12*
X112063981Y-82200000D02*
G75*
G03*
X112063981Y-82200000I-283981J0D01*
G01*
D11*
X131835000Y-64700000D02*
X131835000Y-65700000D01*
X131835000Y-78700000D02*
X131835000Y-79700000D01*
%TO.C,US1*%
X116380000Y-87250000D02*
X118380000Y-87250000D01*
X118380000Y-87250000D02*
X118380000Y-89400000D01*
X118380000Y-93900000D02*
X118380000Y-96050000D01*
X118380000Y-96050000D02*
X116430000Y-96050000D01*
D10*
%TO.C,J4*%
X157395000Y-83955000D02*
X154795000Y-83955000D01*
X157395000Y-83955000D02*
X157395000Y-76215000D01*
X157395000Y-76215000D02*
X152195000Y-76215000D01*
X152195000Y-81355000D02*
X152195000Y-76215000D01*
X154795000Y-81355000D02*
X152195000Y-81355000D01*
X154795000Y-83955000D02*
X154795000Y-81355000D01*
X152195000Y-83955000D02*
X152195000Y-82625000D01*
X153525000Y-83955000D02*
X152195000Y-83955000D01*
%TO.C,C1*%
D11*
X123258333Y-89307142D02*
X123210714Y-89354761D01*
X123067857Y-89402380D01*
X122972619Y-89402380D01*
X122829761Y-89354761D01*
X122734523Y-89259523D01*
X122686904Y-89164285D01*
X122639285Y-88973809D01*
X122639285Y-88830952D01*
X122686904Y-88640476D01*
X122734523Y-88545238D01*
X122829761Y-88450000D01*
X122972619Y-88402380D01*
X123067857Y-88402380D01*
X123210714Y-88450000D01*
X123258333Y-88497619D01*
X124210714Y-89402380D02*
X123639285Y-89402380D01*
X123925000Y-89402380D02*
X123925000Y-88402380D01*
X123829761Y-88545238D01*
X123734523Y-88640476D01*
X123639285Y-88688095D01*
%TO.C,C2*%
X124733333Y-85007142D02*
X124685714Y-85054761D01*
X124542857Y-85102380D01*
X124447619Y-85102380D01*
X124304761Y-85054761D01*
X124209523Y-84959523D01*
X124161904Y-84864285D01*
X124114285Y-84673809D01*
X124114285Y-84530952D01*
X124161904Y-84340476D01*
X124209523Y-84245238D01*
X124304761Y-84150000D01*
X124447619Y-84102380D01*
X124542857Y-84102380D01*
X124685714Y-84150000D01*
X124733333Y-84197619D01*
X125114285Y-84197619D02*
X125161904Y-84150000D01*
X125257142Y-84102380D01*
X125495238Y-84102380D01*
X125590476Y-84150000D01*
X125638095Y-84197619D01*
X125685714Y-84292857D01*
X125685714Y-84388095D01*
X125638095Y-84530952D01*
X125066666Y-85102380D01*
X125685714Y-85102380D01*
%TO.C,C3*%
X156283333Y-62257142D02*
X156235714Y-62304761D01*
X156092857Y-62352380D01*
X155997619Y-62352380D01*
X155854761Y-62304761D01*
X155759523Y-62209523D01*
X155711904Y-62114285D01*
X155664285Y-61923809D01*
X155664285Y-61780952D01*
X155711904Y-61590476D01*
X155759523Y-61495238D01*
X155854761Y-61400000D01*
X155997619Y-61352380D01*
X156092857Y-61352380D01*
X156235714Y-61400000D01*
X156283333Y-61447619D01*
X156616666Y-61352380D02*
X157235714Y-61352380D01*
X156902380Y-61733333D01*
X157045238Y-61733333D01*
X157140476Y-61780952D01*
X157188095Y-61828571D01*
X157235714Y-61923809D01*
X157235714Y-62161904D01*
X157188095Y-62257142D01*
X157140476Y-62304761D01*
X157045238Y-62352380D01*
X156759523Y-62352380D01*
X156664285Y-62304761D01*
X156616666Y-62257142D01*
%TO.C,C4*%
X156243333Y-64037142D02*
X156195714Y-64084761D01*
X156052857Y-64132380D01*
X155957619Y-64132380D01*
X155814761Y-64084761D01*
X155719523Y-63989523D01*
X155671904Y-63894285D01*
X155624285Y-63703809D01*
X155624285Y-63560952D01*
X155671904Y-63370476D01*
X155719523Y-63275238D01*
X155814761Y-63180000D01*
X155957619Y-63132380D01*
X156052857Y-63132380D01*
X156195714Y-63180000D01*
X156243333Y-63227619D01*
X157100476Y-63465714D02*
X157100476Y-64132380D01*
X156862380Y-63084761D02*
X156624285Y-63799047D01*
X157243333Y-63799047D01*
%TO.C,C5*%
X156268333Y-65662142D02*
X156220714Y-65709761D01*
X156077857Y-65757380D01*
X155982619Y-65757380D01*
X155839761Y-65709761D01*
X155744523Y-65614523D01*
X155696904Y-65519285D01*
X155649285Y-65328809D01*
X155649285Y-65185952D01*
X155696904Y-64995476D01*
X155744523Y-64900238D01*
X155839761Y-64805000D01*
X155982619Y-64757380D01*
X156077857Y-64757380D01*
X156220714Y-64805000D01*
X156268333Y-64852619D01*
X157173095Y-64757380D02*
X156696904Y-64757380D01*
X156649285Y-65233571D01*
X156696904Y-65185952D01*
X156792142Y-65138333D01*
X157030238Y-65138333D01*
X157125476Y-65185952D01*
X157173095Y-65233571D01*
X157220714Y-65328809D01*
X157220714Y-65566904D01*
X157173095Y-65662142D01*
X157125476Y-65709761D01*
X157030238Y-65757380D01*
X156792142Y-65757380D01*
X156696904Y-65709761D01*
X156649285Y-65662142D01*
%TO.C,C6*%
X156218333Y-67912142D02*
X156170714Y-67959761D01*
X156027857Y-68007380D01*
X155932619Y-68007380D01*
X155789761Y-67959761D01*
X155694523Y-67864523D01*
X155646904Y-67769285D01*
X155599285Y-67578809D01*
X155599285Y-67435952D01*
X155646904Y-67245476D01*
X155694523Y-67150238D01*
X155789761Y-67055000D01*
X155932619Y-67007380D01*
X156027857Y-67007380D01*
X156170714Y-67055000D01*
X156218333Y-67102619D01*
X157075476Y-67007380D02*
X156885000Y-67007380D01*
X156789761Y-67055000D01*
X156742142Y-67102619D01*
X156646904Y-67245476D01*
X156599285Y-67435952D01*
X156599285Y-67816904D01*
X156646904Y-67912142D01*
X156694523Y-67959761D01*
X156789761Y-68007380D01*
X156980238Y-68007380D01*
X157075476Y-67959761D01*
X157123095Y-67912142D01*
X157170714Y-67816904D01*
X157170714Y-67578809D01*
X157123095Y-67483571D01*
X157075476Y-67435952D01*
X156980238Y-67388333D01*
X156789761Y-67388333D01*
X156694523Y-67435952D01*
X156646904Y-67483571D01*
X156599285Y-67578809D01*
%TO.C,C7*%
X156243333Y-69487142D02*
X156195714Y-69534761D01*
X156052857Y-69582380D01*
X155957619Y-69582380D01*
X155814761Y-69534761D01*
X155719523Y-69439523D01*
X155671904Y-69344285D01*
X155624285Y-69153809D01*
X155624285Y-69010952D01*
X155671904Y-68820476D01*
X155719523Y-68725238D01*
X155814761Y-68630000D01*
X155957619Y-68582380D01*
X156052857Y-68582380D01*
X156195714Y-68630000D01*
X156243333Y-68677619D01*
X156576666Y-68582380D02*
X157243333Y-68582380D01*
X156814761Y-69582380D01*
%TO.C,C8*%
X156258333Y-71532142D02*
X156210714Y-71579761D01*
X156067857Y-71627380D01*
X155972619Y-71627380D01*
X155829761Y-71579761D01*
X155734523Y-71484523D01*
X155686904Y-71389285D01*
X155639285Y-71198809D01*
X155639285Y-71055952D01*
X155686904Y-70865476D01*
X155734523Y-70770238D01*
X155829761Y-70675000D01*
X155972619Y-70627380D01*
X156067857Y-70627380D01*
X156210714Y-70675000D01*
X156258333Y-70722619D01*
X156829761Y-71055952D02*
X156734523Y-71008333D01*
X156686904Y-70960714D01*
X156639285Y-70865476D01*
X156639285Y-70817857D01*
X156686904Y-70722619D01*
X156734523Y-70675000D01*
X156829761Y-70627380D01*
X157020238Y-70627380D01*
X157115476Y-70675000D01*
X157163095Y-70722619D01*
X157210714Y-70817857D01*
X157210714Y-70865476D01*
X157163095Y-70960714D01*
X157115476Y-71008333D01*
X157020238Y-71055952D01*
X156829761Y-71055952D01*
X156734523Y-71103571D01*
X156686904Y-71151190D01*
X156639285Y-71246428D01*
X156639285Y-71436904D01*
X156686904Y-71532142D01*
X156734523Y-71579761D01*
X156829761Y-71627380D01*
X157020238Y-71627380D01*
X157115476Y-71579761D01*
X157163095Y-71532142D01*
X157210714Y-71436904D01*
X157210714Y-71246428D01*
X157163095Y-71151190D01*
X157115476Y-71103571D01*
X157020238Y-71055952D01*
%TO.C,C9*%
X146683333Y-84257142D02*
X146635714Y-84304761D01*
X146492857Y-84352380D01*
X146397619Y-84352380D01*
X146254761Y-84304761D01*
X146159523Y-84209523D01*
X146111904Y-84114285D01*
X146064285Y-83923809D01*
X146064285Y-83780952D01*
X146111904Y-83590476D01*
X146159523Y-83495238D01*
X146254761Y-83400000D01*
X146397619Y-83352380D01*
X146492857Y-83352380D01*
X146635714Y-83400000D01*
X146683333Y-83447619D01*
X147159523Y-84352380D02*
X147350000Y-84352380D01*
X147445238Y-84304761D01*
X147492857Y-84257142D01*
X147588095Y-84114285D01*
X147635714Y-83923809D01*
X147635714Y-83542857D01*
X147588095Y-83447619D01*
X147540476Y-83400000D01*
X147445238Y-83352380D01*
X147254761Y-83352380D01*
X147159523Y-83400000D01*
X147111904Y-83447619D01*
X147064285Y-83542857D01*
X147064285Y-83780952D01*
X147111904Y-83876190D01*
X147159523Y-83923809D01*
X147254761Y-83971428D01*
X147445238Y-83971428D01*
X147540476Y-83923809D01*
X147588095Y-83876190D01*
X147635714Y-83780952D01*
%TO.C,C10*%
X146312142Y-86217142D02*
X146264523Y-86264761D01*
X146121666Y-86312380D01*
X146026428Y-86312380D01*
X145883571Y-86264761D01*
X145788333Y-86169523D01*
X145740714Y-86074285D01*
X145693095Y-85883809D01*
X145693095Y-85740952D01*
X145740714Y-85550476D01*
X145788333Y-85455238D01*
X145883571Y-85360000D01*
X146026428Y-85312380D01*
X146121666Y-85312380D01*
X146264523Y-85360000D01*
X146312142Y-85407619D01*
X147264523Y-86312380D02*
X146693095Y-86312380D01*
X146978809Y-86312380D02*
X146978809Y-85312380D01*
X146883571Y-85455238D01*
X146788333Y-85550476D01*
X146693095Y-85598095D01*
X147883571Y-85312380D02*
X147978809Y-85312380D01*
X148074047Y-85360000D01*
X148121666Y-85407619D01*
X148169285Y-85502857D01*
X148216904Y-85693333D01*
X148216904Y-85931428D01*
X148169285Y-86121904D01*
X148121666Y-86217142D01*
X148074047Y-86264761D01*
X147978809Y-86312380D01*
X147883571Y-86312380D01*
X147788333Y-86264761D01*
X147740714Y-86217142D01*
X147693095Y-86121904D01*
X147645476Y-85931428D01*
X147645476Y-85693333D01*
X147693095Y-85502857D01*
X147740714Y-85407619D01*
X147788333Y-85360000D01*
X147883571Y-85312380D01*
%TO.C,C11*%
X146237142Y-87667142D02*
X146189523Y-87714761D01*
X146046666Y-87762380D01*
X145951428Y-87762380D01*
X145808571Y-87714761D01*
X145713333Y-87619523D01*
X145665714Y-87524285D01*
X145618095Y-87333809D01*
X145618095Y-87190952D01*
X145665714Y-87000476D01*
X145713333Y-86905238D01*
X145808571Y-86810000D01*
X145951428Y-86762380D01*
X146046666Y-86762380D01*
X146189523Y-86810000D01*
X146237142Y-86857619D01*
X147189523Y-87762380D02*
X146618095Y-87762380D01*
X146903809Y-87762380D02*
X146903809Y-86762380D01*
X146808571Y-86905238D01*
X146713333Y-87000476D01*
X146618095Y-87048095D01*
X148141904Y-87762380D02*
X147570476Y-87762380D01*
X147856190Y-87762380D02*
X147856190Y-86762380D01*
X147760952Y-86905238D01*
X147665714Y-87000476D01*
X147570476Y-87048095D01*
%TO.C,C21*%
X120532142Y-85007142D02*
X120484523Y-85054761D01*
X120341666Y-85102380D01*
X120246428Y-85102380D01*
X120103571Y-85054761D01*
X120008333Y-84959523D01*
X119960714Y-84864285D01*
X119913095Y-84673809D01*
X119913095Y-84530952D01*
X119960714Y-84340476D01*
X120008333Y-84245238D01*
X120103571Y-84150000D01*
X120246428Y-84102380D01*
X120341666Y-84102380D01*
X120484523Y-84150000D01*
X120532142Y-84197619D01*
X120913095Y-84197619D02*
X120960714Y-84150000D01*
X121055952Y-84102380D01*
X121294047Y-84102380D01*
X121389285Y-84150000D01*
X121436904Y-84197619D01*
X121484523Y-84292857D01*
X121484523Y-84388095D01*
X121436904Y-84530952D01*
X120865476Y-85102380D01*
X121484523Y-85102380D01*
X122436904Y-85102380D02*
X121865476Y-85102380D01*
X122151190Y-85102380D02*
X122151190Y-84102380D01*
X122055952Y-84245238D01*
X121960714Y-84340476D01*
X121865476Y-84388095D01*
%TO.C,D1*%
X135321904Y-98392380D02*
X135321904Y-97392380D01*
X135560000Y-97392380D01*
X135702857Y-97440000D01*
X135798095Y-97535238D01*
X135845714Y-97630476D01*
X135893333Y-97820952D01*
X135893333Y-97963809D01*
X135845714Y-98154285D01*
X135798095Y-98249523D01*
X135702857Y-98344761D01*
X135560000Y-98392380D01*
X135321904Y-98392380D01*
X136845714Y-98392380D02*
X136274285Y-98392380D01*
X136560000Y-98392380D02*
X136560000Y-97392380D01*
X136464761Y-97535238D01*
X136369523Y-97630476D01*
X136274285Y-97678095D01*
%TO.C,D2*%
X138321904Y-98342380D02*
X138321904Y-97342380D01*
X138560000Y-97342380D01*
X138702857Y-97390000D01*
X138798095Y-97485238D01*
X138845714Y-97580476D01*
X138893333Y-97770952D01*
X138893333Y-97913809D01*
X138845714Y-98104285D01*
X138798095Y-98199523D01*
X138702857Y-98294761D01*
X138560000Y-98342380D01*
X138321904Y-98342380D01*
X139274285Y-97437619D02*
X139321904Y-97390000D01*
X139417142Y-97342380D01*
X139655238Y-97342380D01*
X139750476Y-97390000D01*
X139798095Y-97437619D01*
X139845714Y-97532857D01*
X139845714Y-97628095D01*
X139798095Y-97770952D01*
X139226666Y-98342380D01*
X139845714Y-98342380D01*
%TO.C,D3*%
X141396904Y-98367380D02*
X141396904Y-97367380D01*
X141635000Y-97367380D01*
X141777857Y-97415000D01*
X141873095Y-97510238D01*
X141920714Y-97605476D01*
X141968333Y-97795952D01*
X141968333Y-97938809D01*
X141920714Y-98129285D01*
X141873095Y-98224523D01*
X141777857Y-98319761D01*
X141635000Y-98367380D01*
X141396904Y-98367380D01*
X142301666Y-97367380D02*
X142920714Y-97367380D01*
X142587380Y-97748333D01*
X142730238Y-97748333D01*
X142825476Y-97795952D01*
X142873095Y-97843571D01*
X142920714Y-97938809D01*
X142920714Y-98176904D01*
X142873095Y-98272142D01*
X142825476Y-98319761D01*
X142730238Y-98367380D01*
X142444523Y-98367380D01*
X142349285Y-98319761D01*
X142301666Y-98272142D01*
%TO.C,D4*%
X144346904Y-98417380D02*
X144346904Y-97417380D01*
X144585000Y-97417380D01*
X144727857Y-97465000D01*
X144823095Y-97560238D01*
X144870714Y-97655476D01*
X144918333Y-97845952D01*
X144918333Y-97988809D01*
X144870714Y-98179285D01*
X144823095Y-98274523D01*
X144727857Y-98369761D01*
X144585000Y-98417380D01*
X144346904Y-98417380D01*
X145775476Y-97750714D02*
X145775476Y-98417380D01*
X145537380Y-97369761D02*
X145299285Y-98084047D01*
X145918333Y-98084047D01*
%TO.C,R1*%
X135307380Y-92406666D02*
X134831190Y-92740000D01*
X135307380Y-92978095D02*
X134307380Y-92978095D01*
X134307380Y-92597142D01*
X134355000Y-92501904D01*
X134402619Y-92454285D01*
X134497857Y-92406666D01*
X134640714Y-92406666D01*
X134735952Y-92454285D01*
X134783571Y-92501904D01*
X134831190Y-92597142D01*
X134831190Y-92978095D01*
X135307380Y-91454285D02*
X135307380Y-92025714D01*
X135307380Y-91740000D02*
X134307380Y-91740000D01*
X134450238Y-91835238D01*
X134545476Y-91930476D01*
X134593095Y-92025714D01*
%TO.C,R2*%
X138412380Y-92481666D02*
X137936190Y-92815000D01*
X138412380Y-93053095D02*
X137412380Y-93053095D01*
X137412380Y-92672142D01*
X137460000Y-92576904D01*
X137507619Y-92529285D01*
X137602857Y-92481666D01*
X137745714Y-92481666D01*
X137840952Y-92529285D01*
X137888571Y-92576904D01*
X137936190Y-92672142D01*
X137936190Y-93053095D01*
X137507619Y-92100714D02*
X137460000Y-92053095D01*
X137412380Y-91957857D01*
X137412380Y-91719761D01*
X137460000Y-91624523D01*
X137507619Y-91576904D01*
X137602857Y-91529285D01*
X137698095Y-91529285D01*
X137840952Y-91576904D01*
X138412380Y-92148333D01*
X138412380Y-91529285D01*
%TO.C,R3*%
X145133333Y-100562380D02*
X144800000Y-100086190D01*
X144561904Y-100562380D02*
X144561904Y-99562380D01*
X144942857Y-99562380D01*
X145038095Y-99610000D01*
X145085714Y-99657619D01*
X145133333Y-99752857D01*
X145133333Y-99895714D01*
X145085714Y-99990952D01*
X145038095Y-100038571D01*
X144942857Y-100086190D01*
X144561904Y-100086190D01*
X145466666Y-99562380D02*
X146085714Y-99562380D01*
X145752380Y-99943333D01*
X145895238Y-99943333D01*
X145990476Y-99990952D01*
X146038095Y-100038571D01*
X146085714Y-100133809D01*
X146085714Y-100371904D01*
X146038095Y-100467142D01*
X145990476Y-100514761D01*
X145895238Y-100562380D01*
X145609523Y-100562380D01*
X145514285Y-100514761D01*
X145466666Y-100467142D01*
%TO.C,R4*%
X155083333Y-100627380D02*
X154750000Y-100151190D01*
X154511904Y-100627380D02*
X154511904Y-99627380D01*
X154892857Y-99627380D01*
X154988095Y-99675000D01*
X155035714Y-99722619D01*
X155083333Y-99817857D01*
X155083333Y-99960714D01*
X155035714Y-100055952D01*
X154988095Y-100103571D01*
X154892857Y-100151190D01*
X154511904Y-100151190D01*
X155940476Y-99960714D02*
X155940476Y-100627380D01*
X155702380Y-99579761D02*
X155464285Y-100294047D01*
X156083333Y-100294047D01*
%TO.C,R5*%
X141342380Y-92486666D02*
X140866190Y-92820000D01*
X141342380Y-93058095D02*
X140342380Y-93058095D01*
X140342380Y-92677142D01*
X140390000Y-92581904D01*
X140437619Y-92534285D01*
X140532857Y-92486666D01*
X140675714Y-92486666D01*
X140770952Y-92534285D01*
X140818571Y-92581904D01*
X140866190Y-92677142D01*
X140866190Y-93058095D01*
X140342380Y-91581904D02*
X140342380Y-92058095D01*
X140818571Y-92105714D01*
X140770952Y-92058095D01*
X140723333Y-91962857D01*
X140723333Y-91724761D01*
X140770952Y-91629523D01*
X140818571Y-91581904D01*
X140913809Y-91534285D01*
X141151904Y-91534285D01*
X141247142Y-91581904D01*
X141294761Y-91629523D01*
X141342380Y-91724761D01*
X141342380Y-91962857D01*
X141294761Y-92058095D01*
X141247142Y-92105714D01*
%TO.C,R6*%
X144437380Y-92406666D02*
X143961190Y-92740000D01*
X144437380Y-92978095D02*
X143437380Y-92978095D01*
X143437380Y-92597142D01*
X143485000Y-92501904D01*
X143532619Y-92454285D01*
X143627857Y-92406666D01*
X143770714Y-92406666D01*
X143865952Y-92454285D01*
X143913571Y-92501904D01*
X143961190Y-92597142D01*
X143961190Y-92978095D01*
X143437380Y-91549523D02*
X143437380Y-91740000D01*
X143485000Y-91835238D01*
X143532619Y-91882857D01*
X143675476Y-91978095D01*
X143865952Y-92025714D01*
X144246904Y-92025714D01*
X144342142Y-91978095D01*
X144389761Y-91930476D01*
X144437380Y-91835238D01*
X144437380Y-91644761D01*
X144389761Y-91549523D01*
X144342142Y-91501904D01*
X144246904Y-91454285D01*
X144008809Y-91454285D01*
X143913571Y-91501904D01*
X143865952Y-91549523D01*
X143818333Y-91644761D01*
X143818333Y-91835238D01*
X143865952Y-91930476D01*
X143913571Y-91978095D01*
X144008809Y-92025714D01*
%TO.C,R9*%
X148833333Y-74277380D02*
X148500000Y-73801190D01*
X148261904Y-74277380D02*
X148261904Y-73277380D01*
X148642857Y-73277380D01*
X148738095Y-73325000D01*
X148785714Y-73372619D01*
X148833333Y-73467857D01*
X148833333Y-73610714D01*
X148785714Y-73705952D01*
X148738095Y-73753571D01*
X148642857Y-73801190D01*
X148261904Y-73801190D01*
X149309523Y-74277380D02*
X149500000Y-74277380D01*
X149595238Y-74229761D01*
X149642857Y-74182142D01*
X149738095Y-74039285D01*
X149785714Y-73848809D01*
X149785714Y-73467857D01*
X149738095Y-73372619D01*
X149690476Y-73325000D01*
X149595238Y-73277380D01*
X149404761Y-73277380D01*
X149309523Y-73325000D01*
X149261904Y-73372619D01*
X149214285Y-73467857D01*
X149214285Y-73705952D01*
X149261904Y-73801190D01*
X149309523Y-73848809D01*
X149404761Y-73896428D01*
X149595238Y-73896428D01*
X149690476Y-73848809D01*
X149738095Y-73801190D01*
X149785714Y-73705952D01*
%TO.C,R34*%
X126132142Y-100602380D02*
X125798809Y-100126190D01*
X125560714Y-100602380D02*
X125560714Y-99602380D01*
X125941666Y-99602380D01*
X126036904Y-99650000D01*
X126084523Y-99697619D01*
X126132142Y-99792857D01*
X126132142Y-99935714D01*
X126084523Y-100030952D01*
X126036904Y-100078571D01*
X125941666Y-100126190D01*
X125560714Y-100126190D01*
X126465476Y-99602380D02*
X127084523Y-99602380D01*
X126751190Y-99983333D01*
X126894047Y-99983333D01*
X126989285Y-100030952D01*
X127036904Y-100078571D01*
X127084523Y-100173809D01*
X127084523Y-100411904D01*
X127036904Y-100507142D01*
X126989285Y-100554761D01*
X126894047Y-100602380D01*
X126608333Y-100602380D01*
X126513095Y-100554761D01*
X126465476Y-100507142D01*
X127941666Y-99935714D02*
X127941666Y-100602380D01*
X127703571Y-99554761D02*
X127465476Y-100269047D01*
X128084523Y-100269047D01*
%TO.C,R35*%
X135157142Y-100627380D02*
X134823809Y-100151190D01*
X134585714Y-100627380D02*
X134585714Y-99627380D01*
X134966666Y-99627380D01*
X135061904Y-99675000D01*
X135109523Y-99722619D01*
X135157142Y-99817857D01*
X135157142Y-99960714D01*
X135109523Y-100055952D01*
X135061904Y-100103571D01*
X134966666Y-100151190D01*
X134585714Y-100151190D01*
X135490476Y-99627380D02*
X136109523Y-99627380D01*
X135776190Y-100008333D01*
X135919047Y-100008333D01*
X136014285Y-100055952D01*
X136061904Y-100103571D01*
X136109523Y-100198809D01*
X136109523Y-100436904D01*
X136061904Y-100532142D01*
X136014285Y-100579761D01*
X135919047Y-100627380D01*
X135633333Y-100627380D01*
X135538095Y-100579761D01*
X135490476Y-100532142D01*
X137014285Y-99627380D02*
X136538095Y-99627380D01*
X136490476Y-100103571D01*
X136538095Y-100055952D01*
X136633333Y-100008333D01*
X136871428Y-100008333D01*
X136966666Y-100055952D01*
X137014285Y-100103571D01*
X137061904Y-100198809D01*
X137061904Y-100436904D01*
X137014285Y-100532142D01*
X136966666Y-100579761D01*
X136871428Y-100627380D01*
X136633333Y-100627380D01*
X136538095Y-100579761D01*
X136490476Y-100532142D01*
%TO.C,R49*%
X124977142Y-92232380D02*
X124643809Y-91756190D01*
X124405714Y-92232380D02*
X124405714Y-91232380D01*
X124786666Y-91232380D01*
X124881904Y-91280000D01*
X124929523Y-91327619D01*
X124977142Y-91422857D01*
X124977142Y-91565714D01*
X124929523Y-91660952D01*
X124881904Y-91708571D01*
X124786666Y-91756190D01*
X124405714Y-91756190D01*
X125834285Y-91565714D02*
X125834285Y-92232380D01*
X125596190Y-91184761D02*
X125358095Y-91899047D01*
X125977142Y-91899047D01*
X126405714Y-92232380D02*
X126596190Y-92232380D01*
X126691428Y-92184761D01*
X126739047Y-92137142D01*
X126834285Y-91994285D01*
X126881904Y-91803809D01*
X126881904Y-91422857D01*
X126834285Y-91327619D01*
X126786666Y-91280000D01*
X126691428Y-91232380D01*
X126500952Y-91232380D01*
X126405714Y-91280000D01*
X126358095Y-91327619D01*
X126310476Y-91422857D01*
X126310476Y-91660952D01*
X126358095Y-91756190D01*
X126405714Y-91803809D01*
X126500952Y-91851428D01*
X126691428Y-91851428D01*
X126786666Y-91803809D01*
X126834285Y-91756190D01*
X126881904Y-91660952D01*
%TO.C,R50*%
X124967142Y-93752380D02*
X124633809Y-93276190D01*
X124395714Y-93752380D02*
X124395714Y-92752380D01*
X124776666Y-92752380D01*
X124871904Y-92800000D01*
X124919523Y-92847619D01*
X124967142Y-92942857D01*
X124967142Y-93085714D01*
X124919523Y-93180952D01*
X124871904Y-93228571D01*
X124776666Y-93276190D01*
X124395714Y-93276190D01*
X125871904Y-92752380D02*
X125395714Y-92752380D01*
X125348095Y-93228571D01*
X125395714Y-93180952D01*
X125490952Y-93133333D01*
X125729047Y-93133333D01*
X125824285Y-93180952D01*
X125871904Y-93228571D01*
X125919523Y-93323809D01*
X125919523Y-93561904D01*
X125871904Y-93657142D01*
X125824285Y-93704761D01*
X125729047Y-93752380D01*
X125490952Y-93752380D01*
X125395714Y-93704761D01*
X125348095Y-93657142D01*
X126538571Y-92752380D02*
X126633809Y-92752380D01*
X126729047Y-92800000D01*
X126776666Y-92847619D01*
X126824285Y-92942857D01*
X126871904Y-93133333D01*
X126871904Y-93371428D01*
X126824285Y-93561904D01*
X126776666Y-93657142D01*
X126729047Y-93704761D01*
X126633809Y-93752380D01*
X126538571Y-93752380D01*
X126443333Y-93704761D01*
X126395714Y-93657142D01*
X126348095Y-93561904D01*
X126300476Y-93371428D01*
X126300476Y-93133333D01*
X126348095Y-92942857D01*
X126395714Y-92847619D01*
X126443333Y-92800000D01*
X126538571Y-92752380D01*
%TO.C,R56*%
X148952142Y-72687380D02*
X148618809Y-72211190D01*
X148380714Y-72687380D02*
X148380714Y-71687380D01*
X148761666Y-71687380D01*
X148856904Y-71735000D01*
X148904523Y-71782619D01*
X148952142Y-71877857D01*
X148952142Y-72020714D01*
X148904523Y-72115952D01*
X148856904Y-72163571D01*
X148761666Y-72211190D01*
X148380714Y-72211190D01*
X149856904Y-71687380D02*
X149380714Y-71687380D01*
X149333095Y-72163571D01*
X149380714Y-72115952D01*
X149475952Y-72068333D01*
X149714047Y-72068333D01*
X149809285Y-72115952D01*
X149856904Y-72163571D01*
X149904523Y-72258809D01*
X149904523Y-72496904D01*
X149856904Y-72592142D01*
X149809285Y-72639761D01*
X149714047Y-72687380D01*
X149475952Y-72687380D01*
X149380714Y-72639761D01*
X149333095Y-72592142D01*
X150761666Y-71687380D02*
X150571190Y-71687380D01*
X150475952Y-71735000D01*
X150428333Y-71782619D01*
X150333095Y-71925476D01*
X150285476Y-72115952D01*
X150285476Y-72496904D01*
X150333095Y-72592142D01*
X150380714Y-72639761D01*
X150475952Y-72687380D01*
X150666428Y-72687380D01*
X150761666Y-72639761D01*
X150809285Y-72592142D01*
X150856904Y-72496904D01*
X150856904Y-72258809D01*
X150809285Y-72163571D01*
X150761666Y-72115952D01*
X150666428Y-72068333D01*
X150475952Y-72068333D01*
X150380714Y-72115952D01*
X150333095Y-72163571D01*
X150285476Y-72258809D01*
%TO.C,SW1*%
X129946666Y-105254761D02*
X130089523Y-105302380D01*
X130327619Y-105302380D01*
X130422857Y-105254761D01*
X130470476Y-105207142D01*
X130518095Y-105111904D01*
X130518095Y-105016666D01*
X130470476Y-104921428D01*
X130422857Y-104873809D01*
X130327619Y-104826190D01*
X130137142Y-104778571D01*
X130041904Y-104730952D01*
X129994285Y-104683333D01*
X129946666Y-104588095D01*
X129946666Y-104492857D01*
X129994285Y-104397619D01*
X130041904Y-104350000D01*
X130137142Y-104302380D01*
X130375238Y-104302380D01*
X130518095Y-104350000D01*
X130851428Y-104302380D02*
X131089523Y-105302380D01*
X131280000Y-104588095D01*
X131470476Y-105302380D01*
X131708571Y-104302380D01*
X132613333Y-105302380D02*
X132041904Y-105302380D01*
X132327619Y-105302380D02*
X132327619Y-104302380D01*
X132232380Y-104445238D01*
X132137142Y-104540476D01*
X132041904Y-104588095D01*
%TO.C,SW2*%
X139946666Y-105264761D02*
X140089523Y-105312380D01*
X140327619Y-105312380D01*
X140422857Y-105264761D01*
X140470476Y-105217142D01*
X140518095Y-105121904D01*
X140518095Y-105026666D01*
X140470476Y-104931428D01*
X140422857Y-104883809D01*
X140327619Y-104836190D01*
X140137142Y-104788571D01*
X140041904Y-104740952D01*
X139994285Y-104693333D01*
X139946666Y-104598095D01*
X139946666Y-104502857D01*
X139994285Y-104407619D01*
X140041904Y-104360000D01*
X140137142Y-104312380D01*
X140375238Y-104312380D01*
X140518095Y-104360000D01*
X140851428Y-104312380D02*
X141089523Y-105312380D01*
X141280000Y-104598095D01*
X141470476Y-105312380D01*
X141708571Y-104312380D01*
X142041904Y-104407619D02*
X142089523Y-104360000D01*
X142184761Y-104312380D01*
X142422857Y-104312380D01*
X142518095Y-104360000D01*
X142565714Y-104407619D01*
X142613333Y-104502857D01*
X142613333Y-104598095D01*
X142565714Y-104740952D01*
X141994285Y-105312380D01*
X142613333Y-105312380D01*
%TO.C,SW3*%
X149946666Y-105264761D02*
X150089523Y-105312380D01*
X150327619Y-105312380D01*
X150422857Y-105264761D01*
X150470476Y-105217142D01*
X150518095Y-105121904D01*
X150518095Y-105026666D01*
X150470476Y-104931428D01*
X150422857Y-104883809D01*
X150327619Y-104836190D01*
X150137142Y-104788571D01*
X150041904Y-104740952D01*
X149994285Y-104693333D01*
X149946666Y-104598095D01*
X149946666Y-104502857D01*
X149994285Y-104407619D01*
X150041904Y-104360000D01*
X150137142Y-104312380D01*
X150375238Y-104312380D01*
X150518095Y-104360000D01*
X150851428Y-104312380D02*
X151089523Y-105312380D01*
X151280000Y-104598095D01*
X151470476Y-105312380D01*
X151708571Y-104312380D01*
X151994285Y-104312380D02*
X152613333Y-104312380D01*
X152280000Y-104693333D01*
X152422857Y-104693333D01*
X152518095Y-104740952D01*
X152565714Y-104788571D01*
X152613333Y-104883809D01*
X152613333Y-105121904D01*
X152565714Y-105217142D01*
X152518095Y-105264761D01*
X152422857Y-105312380D01*
X152137142Y-105312380D01*
X152041904Y-105264761D01*
X151994285Y-105217142D01*
%TO.C,U1*%
X144448095Y-62692380D02*
X144448095Y-63501904D01*
X144495714Y-63597142D01*
X144543333Y-63644761D01*
X144638571Y-63692380D01*
X144829047Y-63692380D01*
X144924285Y-63644761D01*
X144971904Y-63597142D01*
X145019523Y-63501904D01*
X145019523Y-62692380D01*
X146019523Y-63692380D02*
X145448095Y-63692380D01*
X145733809Y-63692380D02*
X145733809Y-62692380D01*
X145638571Y-62835238D01*
X145543333Y-62930476D01*
X145448095Y-62978095D01*
%TO.C,U2*%
X139934380Y-83267904D02*
X140743904Y-83267904D01*
X140839142Y-83220285D01*
X140886761Y-83172666D01*
X140934380Y-83077428D01*
X140934380Y-82886952D01*
X140886761Y-82791714D01*
X140839142Y-82744095D01*
X140743904Y-82696476D01*
X139934380Y-82696476D01*
X140029619Y-82267904D02*
X139982000Y-82220285D01*
X139934380Y-82125047D01*
X139934380Y-81886952D01*
X139982000Y-81791714D01*
X140029619Y-81744095D01*
X140124857Y-81696476D01*
X140220095Y-81696476D01*
X140362952Y-81744095D01*
X140934380Y-82315523D01*
X140934380Y-81696476D01*
%TO.C,U9*%
X138032380Y-64661904D02*
X138841904Y-64661904D01*
X138937142Y-64614285D01*
X138984761Y-64566666D01*
X139032380Y-64471428D01*
X139032380Y-64280952D01*
X138984761Y-64185714D01*
X138937142Y-64138095D01*
X138841904Y-64090476D01*
X138032380Y-64090476D01*
X139032380Y-63566666D02*
X139032380Y-63376190D01*
X138984761Y-63280952D01*
X138937142Y-63233333D01*
X138794285Y-63138095D01*
X138603809Y-63090476D01*
X138222857Y-63090476D01*
X138127619Y-63138095D01*
X138080000Y-63185714D01*
X138032380Y-63280952D01*
X138032380Y-63471428D01*
X138080000Y-63566666D01*
X138127619Y-63614285D01*
X138222857Y-63661904D01*
X138460952Y-63661904D01*
X138556190Y-63614285D01*
X138603809Y-63566666D01*
X138651428Y-63471428D01*
X138651428Y-63280952D01*
X138603809Y-63185714D01*
X138556190Y-63138095D01*
X138460952Y-63090476D01*
D13*
X132232380Y-74747619D02*
X133232380Y-74509523D01*
X132518095Y-74319047D01*
X133232380Y-74128571D01*
X132232380Y-73890476D01*
X133232380Y-72938095D02*
X132756190Y-73271428D01*
X133232380Y-73509523D02*
X132232380Y-73509523D01*
X132232380Y-73128571D01*
X132280000Y-73033333D01*
X132327619Y-72985714D01*
X132422857Y-72938095D01*
X132565714Y-72938095D01*
X132660952Y-72985714D01*
X132708571Y-73033333D01*
X132756190Y-73128571D01*
X132756190Y-73509523D01*
X132232380Y-72319047D02*
X132232380Y-72128571D01*
X132280000Y-72033333D01*
X132375238Y-71938095D01*
X132565714Y-71890476D01*
X132899047Y-71890476D01*
X133089523Y-71938095D01*
X133184761Y-72033333D01*
X133232380Y-72128571D01*
X133232380Y-72319047D01*
X133184761Y-72414285D01*
X133089523Y-72509523D01*
X132899047Y-72557142D01*
X132565714Y-72557142D01*
X132375238Y-72509523D01*
X132280000Y-72414285D01*
X132232380Y-72319047D01*
X132232380Y-71271428D02*
X132232380Y-71080952D01*
X132280000Y-70985714D01*
X132375238Y-70890476D01*
X132565714Y-70842857D01*
X132899047Y-70842857D01*
X133089523Y-70890476D01*
X133184761Y-70985714D01*
X133232380Y-71080952D01*
X133232380Y-71271428D01*
X133184761Y-71366666D01*
X133089523Y-71461904D01*
X132899047Y-71509523D01*
X132565714Y-71509523D01*
X132375238Y-71461904D01*
X132280000Y-71366666D01*
X132232380Y-71271428D01*
X133232380Y-70414285D02*
X132232380Y-70414285D01*
X132946666Y-70080952D01*
X132232380Y-69747619D01*
X133232380Y-69747619D01*
X137852380Y-75053333D02*
X138852380Y-74815238D01*
X138138095Y-74624761D01*
X138852380Y-74434285D01*
X137852380Y-74196190D01*
X138852380Y-73243809D02*
X138376190Y-73577142D01*
X138852380Y-73815238D02*
X137852380Y-73815238D01*
X137852380Y-73434285D01*
X137900000Y-73339047D01*
X137947619Y-73291428D01*
X138042857Y-73243809D01*
X138185714Y-73243809D01*
X138280952Y-73291428D01*
X138328571Y-73339047D01*
X138376190Y-73434285D01*
X138376190Y-73815238D01*
X137852380Y-72624761D02*
X137852380Y-72434285D01*
X137900000Y-72339047D01*
X137995238Y-72243809D01*
X138185714Y-72196190D01*
X138519047Y-72196190D01*
X138709523Y-72243809D01*
X138804761Y-72339047D01*
X138852380Y-72434285D01*
X138852380Y-72624761D01*
X138804761Y-72720000D01*
X138709523Y-72815238D01*
X138519047Y-72862857D01*
X138185714Y-72862857D01*
X137995238Y-72815238D01*
X137900000Y-72720000D01*
X137852380Y-72624761D01*
X137852380Y-71910476D02*
X138852380Y-71577142D01*
X137852380Y-71243809D01*
X138328571Y-70910476D02*
X138328571Y-70577142D01*
X138852380Y-70434285D02*
X138852380Y-70910476D01*
X137852380Y-70910476D01*
X137852380Y-70434285D01*
X138852380Y-69434285D02*
X138376190Y-69767619D01*
X138852380Y-70005714D02*
X137852380Y-70005714D01*
X137852380Y-69624761D01*
X137900000Y-69529523D01*
X137947619Y-69481904D01*
X138042857Y-69434285D01*
X138185714Y-69434285D01*
X138280952Y-69481904D01*
X138328571Y-69529523D01*
X138376190Y-69624761D01*
X138376190Y-70005714D01*
X135708571Y-74342857D02*
X135708571Y-74009523D01*
X136232380Y-73866666D02*
X136232380Y-74342857D01*
X135232380Y-74342857D01*
X135232380Y-73866666D01*
X136184761Y-73485714D02*
X136232380Y-73342857D01*
X136232380Y-73104761D01*
X136184761Y-73009523D01*
X136137142Y-72961904D01*
X136041904Y-72914285D01*
X135946666Y-72914285D01*
X135851428Y-72961904D01*
X135803809Y-73009523D01*
X135756190Y-73104761D01*
X135708571Y-73295238D01*
X135660952Y-73390476D01*
X135613333Y-73438095D01*
X135518095Y-73485714D01*
X135422857Y-73485714D01*
X135327619Y-73438095D01*
X135280000Y-73390476D01*
X135232380Y-73295238D01*
X135232380Y-73057142D01*
X135280000Y-72914285D01*
X136232380Y-72485714D02*
X135232380Y-72485714D01*
X135232380Y-72104761D01*
X135280000Y-72009523D01*
X135327619Y-71961904D01*
X135422857Y-71914285D01*
X135565714Y-71914285D01*
X135660952Y-71961904D01*
X135708571Y-72009523D01*
X135756190Y-72104761D01*
X135756190Y-72485714D01*
X135232380Y-71580952D02*
X135232380Y-70961904D01*
X135613333Y-71295238D01*
X135613333Y-71152380D01*
X135660952Y-71057142D01*
X135708571Y-71009523D01*
X135803809Y-70961904D01*
X136041904Y-70961904D01*
X136137142Y-71009523D01*
X136184761Y-71057142D01*
X136232380Y-71152380D01*
X136232380Y-71438095D01*
X136184761Y-71533333D01*
X136137142Y-71580952D01*
X135327619Y-70580952D02*
X135280000Y-70533333D01*
X135232380Y-70438095D01*
X135232380Y-70200000D01*
X135280000Y-70104761D01*
X135327619Y-70057142D01*
X135422857Y-70009523D01*
X135518095Y-70009523D01*
X135660952Y-70057142D01*
X136232380Y-70628571D01*
X136232380Y-70009523D01*
%TO.C,US1*%
D11*
X118568380Y-92888095D02*
X119377904Y-92888095D01*
X119473142Y-92840476D01*
X119520761Y-92792857D01*
X119568380Y-92697619D01*
X119568380Y-92507142D01*
X119520761Y-92411904D01*
X119473142Y-92364285D01*
X119377904Y-92316666D01*
X118568380Y-92316666D01*
X119520761Y-91888095D02*
X119568380Y-91745238D01*
X119568380Y-91507142D01*
X119520761Y-91411904D01*
X119473142Y-91364285D01*
X119377904Y-91316666D01*
X119282666Y-91316666D01*
X119187428Y-91364285D01*
X119139809Y-91411904D01*
X119092190Y-91507142D01*
X119044571Y-91697619D01*
X118996952Y-91792857D01*
X118949333Y-91840476D01*
X118854095Y-91888095D01*
X118758857Y-91888095D01*
X118663619Y-91840476D01*
X118616000Y-91792857D01*
X118568380Y-91697619D01*
X118568380Y-91459523D01*
X118616000Y-91316666D01*
X119568380Y-90364285D02*
X119568380Y-90935714D01*
X119568380Y-90650000D02*
X118568380Y-90650000D01*
X118711238Y-90745238D01*
X118806476Y-90840476D01*
X118854095Y-90935714D01*
%TO.C,J4*%
X154461666Y-84847380D02*
X154461666Y-85561666D01*
X154414047Y-85704523D01*
X154318809Y-85799761D01*
X154175952Y-85847380D01*
X154080714Y-85847380D01*
X155366428Y-85180714D02*
X155366428Y-85847380D01*
X155128333Y-84799761D02*
X154890238Y-85514047D01*
X155509285Y-85514047D01*
%TD*%
M02*
