%TF.GenerationSoftware,KiCad,Pcbnew,5.1.9+dfsg1-1~bpo10+1*%
%TF.CreationDate,2021-11-10T17:07:06+01:00*%
%TF.ProjectId,ulx4m-cm4-hat,756c7834-6d2d-4636-9d34-2d6861742e6b,V1.0*%
%TF.SameCoordinates,Original*%
%TF.FileFunction,Copper,L3,Inr*%
%TF.FilePolarity,Positive*%
%FSLAX46Y46*%
G04 Gerber Fmt 4.6, Leading zero omitted, Abs format (unit mm)*
G04 Created by KiCad (PCBNEW 5.1.9+dfsg1-1~bpo10+1) date 2021-11-10 17:07:06*
%MOMM*%
%LPD*%
G01*
G04 APERTURE LIST*
%TA.AperFunction,ComponentPad*%
%ADD10R,1.700000X1.700000*%
%TD*%
%TA.AperFunction,ComponentPad*%
%ADD11O,1.700000X1.700000*%
%TD*%
%TA.AperFunction,ViaPad*%
%ADD12C,0.600000*%
%TD*%
%TA.AperFunction,Conductor*%
%ADD13C,0.254000*%
%TD*%
%TA.AperFunction,Conductor*%
%ADD14C,0.100000*%
%TD*%
G04 APERTURE END LIST*
D10*
%TO.N,+3V3*%
%TO.C,J1*%
X120620000Y-55910000D03*
D11*
%TO.N,+5V*%
X120620000Y-53370000D03*
%TO.N,SD_D2*%
X123160000Y-55910000D03*
%TO.N,+5V*%
X123160000Y-53370000D03*
%TO.N,SD_D1*%
X125700000Y-55910000D03*
%TO.N,GND*%
X125700000Y-53370000D03*
%TO.N,SD_D0*%
X128240000Y-55910000D03*
%TO.N,SD_D3*%
X128240000Y-53370000D03*
%TO.N,GND*%
X130780000Y-55910000D03*
%TO.N,SD_CLK*%
X130780000Y-53370000D03*
%TO.N,WIFI_GPIO35*%
X133320000Y-55910000D03*
%TO.N,RP_GPIO18*%
X133320000Y-53370000D03*
%TO.N,SD_CMD*%
X135860000Y-55910000D03*
%TO.N,GND*%
X135860000Y-53370000D03*
%TO.N,WIFI_EN*%
X138400000Y-55910000D03*
%TO.N,FTDI_TXD*%
X138400000Y-53370000D03*
%TO.N,+3V3*%
X140940000Y-55910000D03*
%TO.N,FTDI_RXD*%
X140940000Y-53370000D03*
%TO.N,WIFI_GPIO26*%
X143480000Y-55910000D03*
%TO.N,GND*%
X143480000Y-53370000D03*
%TO.N,WIFI_GPIO27*%
X146020000Y-55910000D03*
%TO.N,WIFI_TXD*%
X146020000Y-53370000D03*
%TO.N,WIFI_GPIO25*%
X148560000Y-55910000D03*
%TO.N,WIFI_GPIO19*%
X148560000Y-53370000D03*
%TO.N,GND*%
X151100000Y-55910000D03*
%TO.N,RP_GPIO07*%
X151100000Y-53370000D03*
%TO.N,WIFI_GPIO21*%
X153640000Y-55910000D03*
%TO.N,WIFI_GPIO22*%
X153640000Y-53370000D03*
%TO.N,WIFI_GPIO33*%
X156180000Y-55910000D03*
%TO.N,GND*%
X156180000Y-53370000D03*
%TO.N,RP_GPIO06*%
X158720000Y-55910000D03*
%TO.N,JTAG_TDI*%
X158720000Y-53370000D03*
%TO.N,FTDI_TXDEN*%
X161260000Y-55910000D03*
%TO.N,GND*%
X161260000Y-53370000D03*
%TO.N,WIFI_GPIO0*%
X163800000Y-55910000D03*
%TO.N,JTAG_TDO*%
X163800000Y-53370000D03*
%TO.N,WIFI_RXD*%
X166340000Y-55910000D03*
%TO.N,JTAG_TCK*%
X166340000Y-53370000D03*
%TO.N,GND*%
X168880000Y-55910000D03*
%TO.N,JTAG_TMS*%
X168880000Y-53370000D03*
%TD*%
D10*
%TO.N,GND*%
%TO.C,J4*%
X153525000Y-82625000D03*
D11*
%TO.N,+3V3*%
X156065000Y-82625000D03*
%TO.N,JTAG_TDI*%
X153525000Y-80085000D03*
%TO.N,JTAG_TCK*%
X156065000Y-80085000D03*
%TO.N,JTAG_TMS*%
X153525000Y-77545000D03*
%TO.N,JTAG_TDO*%
X156065000Y-77545000D03*
%TD*%
D12*
%TO.N,*%
X119690000Y-58440000D03*
%TO.N,GND*%
X139360000Y-77940000D03*
X144760000Y-88360000D03*
X154730000Y-72390000D03*
X135190002Y-91460000D03*
X119200000Y-92980000D03*
X125877911Y-87588868D03*
X149690000Y-69830000D03*
X131370000Y-83120000D03*
X133250000Y-77860000D03*
X132150000Y-102570000D03*
X144515514Y-80077064D03*
X141820000Y-77580000D03*
X128400000Y-96140000D03*
X125940000Y-96140000D03*
X152050000Y-95430000D03*
X155740000Y-95410000D03*
X140510000Y-86570000D03*
X122430000Y-70310000D03*
X131060000Y-75040000D03*
X140610000Y-72710000D03*
X145930000Y-65580000D03*
X150920000Y-63480000D03*
X171470000Y-62260000D03*
X171130000Y-73330000D03*
X171260000Y-88790000D03*
X165290000Y-101790000D03*
X165590000Y-98710000D03*
X174180000Y-79110000D03*
X133990000Y-61340000D03*
X122201588Y-60404514D03*
X145000000Y-77473681D03*
X154800000Y-60750000D03*
X155668150Y-57969968D03*
X116080000Y-71130000D03*
X117660000Y-73600000D03*
X114380000Y-77270000D03*
X122220000Y-75960000D03*
X114780000Y-96980002D03*
X117330000Y-96900000D03*
X114750000Y-86200000D03*
X113620000Y-83140000D03*
X113550000Y-61350000D03*
X117370000Y-86600000D03*
X113710000Y-84550000D03*
X115010000Y-84890000D03*
X114250000Y-98510000D03*
X117830000Y-98430000D03*
%TO.N,+5V*%
X126539990Y-88280000D03*
%TO.N,SD_CMD*%
X133340000Y-67730000D03*
%TO.N,WIFI_GPIO19*%
X145990000Y-62540000D03*
X122490000Y-65290000D03*
%TO.N,+3V3*%
X149300372Y-61260374D03*
X156130458Y-60895032D03*
X141063101Y-61025032D03*
X147270000Y-74620000D03*
X144160000Y-79150000D03*
%TO.N,SD_D2*%
X129730000Y-73880000D03*
%TO.N,SD_CMD*%
X136479968Y-67373603D03*
%TO.N,FTDI_RXD*%
X143900000Y-80720000D03*
X144038378Y-75233303D03*
%TO.N,WIFI_GPIO26*%
X129209910Y-65006192D03*
X140159475Y-63578450D03*
%TO.N,WIFI_GPIO27*%
X128904990Y-67000000D03*
X139884241Y-64490094D03*
%TO.N,WIFI_TXD*%
X128461753Y-65291824D03*
X142844911Y-62957966D03*
%TO.N,WIFI_GPIO25*%
X128640000Y-67980000D03*
X128190000Y-78730000D03*
X125040000Y-79110000D03*
X139820021Y-65373101D03*
%TO.N,RP_GPIO07*%
X148879990Y-97599086D03*
X158708051Y-76668051D03*
%TO.N,WIFI_GPIO21*%
X123045724Y-59560378D03*
%TO.N,WIFI_GPIO22*%
X125010170Y-57749967D03*
%TO.N,WIFI_GPIO33*%
X125430000Y-69840000D03*
X150030000Y-60395021D03*
%TO.N,RP_GPIO06*%
X158427108Y-61015041D03*
X146390010Y-77436437D03*
%TO.N,JTAG_TDI*%
X124048051Y-73951949D03*
X144515231Y-82707805D03*
%TO.N,FTDI_TXDEN*%
X140495343Y-61588654D03*
X161263405Y-59314990D03*
%TO.N,WIFI_GPIO0*%
X129721949Y-68091949D03*
X140474988Y-66548309D03*
X128740000Y-58880000D03*
%TO.N,JTAG_TDO*%
X136790000Y-83320000D03*
X146603430Y-82797944D03*
X160268051Y-62051949D03*
%TO.N,WIFI_RXD*%
X124855010Y-59455559D03*
%TO.N,JTAG_TCK*%
X123960000Y-65170000D03*
X145759409Y-80460045D03*
X160150000Y-61050000D03*
%TO.N,JTAG_TMS*%
X125040000Y-64900000D03*
X146557048Y-79835035D03*
%TD*%
D13*
%TO.N,GND*%
X174759255Y-51901594D02*
X175181781Y-52029162D01*
X175571482Y-52236369D01*
X175913513Y-52515324D01*
X176194849Y-52855399D01*
X176404771Y-53243644D01*
X176535285Y-53665265D01*
X176585000Y-54138274D01*
X176585001Y-104084043D01*
X176538406Y-104559255D01*
X176410838Y-104981781D01*
X176203631Y-105371482D01*
X175924676Y-105713513D01*
X175584601Y-105994849D01*
X175196356Y-106204771D01*
X174774737Y-106335285D01*
X174301726Y-106385000D01*
X115355947Y-106385000D01*
X114880745Y-106338406D01*
X114458219Y-106210838D01*
X114068518Y-106003631D01*
X113726487Y-105724676D01*
X113445151Y-105384601D01*
X113235229Y-104996356D01*
X113104715Y-104574737D01*
X113055000Y-104101726D01*
X113055000Y-103422032D01*
X113810000Y-103422032D01*
X113810000Y-103817968D01*
X113887243Y-104206296D01*
X114038761Y-104572092D01*
X114258731Y-104901301D01*
X114538699Y-105181269D01*
X114867908Y-105401239D01*
X115233704Y-105552757D01*
X115622032Y-105630000D01*
X116017968Y-105630000D01*
X116406296Y-105552757D01*
X116772092Y-105401239D01*
X117101301Y-105181269D01*
X117381269Y-104901301D01*
X117601239Y-104572092D01*
X117752757Y-104206296D01*
X117830000Y-103817968D01*
X117830000Y-103422032D01*
X171810000Y-103422032D01*
X171810000Y-103817968D01*
X171887243Y-104206296D01*
X172038761Y-104572092D01*
X172258731Y-104901301D01*
X172538699Y-105181269D01*
X172867908Y-105401239D01*
X173233704Y-105552757D01*
X173622032Y-105630000D01*
X174017968Y-105630000D01*
X174406296Y-105552757D01*
X174772092Y-105401239D01*
X175101301Y-105181269D01*
X175381269Y-104901301D01*
X175601239Y-104572092D01*
X175752757Y-104206296D01*
X175830000Y-103817968D01*
X175830000Y-103422032D01*
X175752757Y-103033704D01*
X175601239Y-102667908D01*
X175381269Y-102338699D01*
X175101301Y-102058731D01*
X174772092Y-101838761D01*
X174406296Y-101687243D01*
X174017968Y-101610000D01*
X173622032Y-101610000D01*
X173233704Y-101687243D01*
X172867908Y-101838761D01*
X172538699Y-102058731D01*
X172258731Y-102338699D01*
X172038761Y-102667908D01*
X171887243Y-103033704D01*
X171810000Y-103422032D01*
X117830000Y-103422032D01*
X117752757Y-103033704D01*
X117601239Y-102667908D01*
X117381269Y-102338699D01*
X117101301Y-102058731D01*
X116772092Y-101838761D01*
X116406296Y-101687243D01*
X116017968Y-101610000D01*
X115622032Y-101610000D01*
X115233704Y-101687243D01*
X114867908Y-101838761D01*
X114538699Y-102058731D01*
X114258731Y-102338699D01*
X114038761Y-102667908D01*
X113887243Y-103033704D01*
X113810000Y-103422032D01*
X113055000Y-103422032D01*
X113055000Y-97506997D01*
X147944990Y-97506997D01*
X147944990Y-97691175D01*
X147980922Y-97871815D01*
X148051404Y-98041975D01*
X148153728Y-98195114D01*
X148283962Y-98325348D01*
X148437101Y-98427672D01*
X148607261Y-98498154D01*
X148787901Y-98534086D01*
X148972079Y-98534086D01*
X149152719Y-98498154D01*
X149322879Y-98427672D01*
X149476018Y-98325348D01*
X149606252Y-98195114D01*
X149708576Y-98041975D01*
X149779058Y-97871815D01*
X149814990Y-97691175D01*
X149814990Y-97506997D01*
X149779058Y-97326357D01*
X149708576Y-97156197D01*
X149606252Y-97003058D01*
X149476018Y-96872824D01*
X149322879Y-96770500D01*
X149152719Y-96700018D01*
X148972079Y-96664086D01*
X148787901Y-96664086D01*
X148607261Y-96700018D01*
X148437101Y-96770500D01*
X148283962Y-96872824D01*
X148153728Y-97003058D01*
X148051404Y-97156197D01*
X147980922Y-97326357D01*
X147944990Y-97506997D01*
X113055000Y-97506997D01*
X113055000Y-88187911D01*
X125604990Y-88187911D01*
X125604990Y-88372089D01*
X125640922Y-88552729D01*
X125711404Y-88722889D01*
X125813728Y-88876028D01*
X125943962Y-89006262D01*
X126097101Y-89108586D01*
X126267261Y-89179068D01*
X126447901Y-89215000D01*
X126632079Y-89215000D01*
X126812719Y-89179068D01*
X126982879Y-89108586D01*
X127136018Y-89006262D01*
X127266252Y-88876028D01*
X127368576Y-88722889D01*
X127439058Y-88552729D01*
X127474990Y-88372089D01*
X127474990Y-88187911D01*
X127439058Y-88007271D01*
X127368576Y-87837111D01*
X127266252Y-87683972D01*
X127136018Y-87553738D01*
X126982879Y-87451414D01*
X126812719Y-87380932D01*
X126632079Y-87345000D01*
X126447901Y-87345000D01*
X126267261Y-87380932D01*
X126097101Y-87451414D01*
X125943962Y-87553738D01*
X125813728Y-87683972D01*
X125711404Y-87837111D01*
X125640922Y-88007271D01*
X125604990Y-88187911D01*
X113055000Y-88187911D01*
X113055000Y-83227911D01*
X135855000Y-83227911D01*
X135855000Y-83412089D01*
X135890932Y-83592729D01*
X135961414Y-83762889D01*
X136063738Y-83916028D01*
X136193972Y-84046262D01*
X136347111Y-84148586D01*
X136517271Y-84219068D01*
X136697911Y-84255000D01*
X136882089Y-84255000D01*
X137062729Y-84219068D01*
X137232889Y-84148586D01*
X137386028Y-84046262D01*
X137516262Y-83916028D01*
X137618586Y-83762889D01*
X137689068Y-83592729D01*
X137725000Y-83412089D01*
X137725000Y-83227911D01*
X137689068Y-83047271D01*
X137618586Y-82877111D01*
X137516262Y-82723972D01*
X137408006Y-82615716D01*
X143580231Y-82615716D01*
X143580231Y-82799894D01*
X143616163Y-82980534D01*
X143686645Y-83150694D01*
X143788969Y-83303833D01*
X143919203Y-83434067D01*
X144072342Y-83536391D01*
X144242502Y-83606873D01*
X144423142Y-83642805D01*
X144607320Y-83642805D01*
X144787960Y-83606873D01*
X144958120Y-83536391D01*
X145111259Y-83434067D01*
X145241493Y-83303833D01*
X145343817Y-83150694D01*
X145414299Y-82980534D01*
X145450231Y-82799894D01*
X145450231Y-82705855D01*
X145668430Y-82705855D01*
X145668430Y-82890033D01*
X145704362Y-83070673D01*
X145774844Y-83240833D01*
X145877168Y-83393972D01*
X146007402Y-83524206D01*
X146160541Y-83626530D01*
X146330701Y-83697012D01*
X146511341Y-83732944D01*
X146695519Y-83732944D01*
X146876159Y-83697012D01*
X147046319Y-83626530D01*
X147199458Y-83524206D01*
X147248664Y-83475000D01*
X152036928Y-83475000D01*
X152049188Y-83599482D01*
X152085498Y-83719180D01*
X152144463Y-83829494D01*
X152223815Y-83926185D01*
X152320506Y-84005537D01*
X152430820Y-84064502D01*
X152550518Y-84100812D01*
X152675000Y-84113072D01*
X153239250Y-84110000D01*
X153398000Y-83951250D01*
X153398000Y-82752000D01*
X152198750Y-82752000D01*
X152040000Y-82910750D01*
X152036928Y-83475000D01*
X147248664Y-83475000D01*
X147329692Y-83393972D01*
X147432016Y-83240833D01*
X147502498Y-83070673D01*
X147538430Y-82890033D01*
X147538430Y-82705855D01*
X147502498Y-82525215D01*
X147432016Y-82355055D01*
X147329692Y-82201916D01*
X147199458Y-82071682D01*
X147046319Y-81969358D01*
X146876159Y-81898876D01*
X146695519Y-81862944D01*
X146511341Y-81862944D01*
X146330701Y-81898876D01*
X146160541Y-81969358D01*
X146007402Y-82071682D01*
X145877168Y-82201916D01*
X145774844Y-82355055D01*
X145704362Y-82525215D01*
X145668430Y-82705855D01*
X145450231Y-82705855D01*
X145450231Y-82615716D01*
X145414299Y-82435076D01*
X145343817Y-82264916D01*
X145241493Y-82111777D01*
X145111259Y-81981543D01*
X144958120Y-81879219D01*
X144787960Y-81808737D01*
X144618355Y-81775000D01*
X152036928Y-81775000D01*
X152040000Y-82339250D01*
X152198750Y-82498000D01*
X153398000Y-82498000D01*
X153398000Y-82478000D01*
X153652000Y-82478000D01*
X153652000Y-82498000D01*
X153672000Y-82498000D01*
X153672000Y-82752000D01*
X153652000Y-82752000D01*
X153652000Y-83951250D01*
X153810750Y-84110000D01*
X154375000Y-84113072D01*
X154499482Y-84100812D01*
X154619180Y-84064502D01*
X154729494Y-84005537D01*
X154826185Y-83926185D01*
X154905537Y-83829494D01*
X154964502Y-83719180D01*
X154986513Y-83646620D01*
X155118368Y-83778475D01*
X155361589Y-83940990D01*
X155631842Y-84052932D01*
X155918740Y-84110000D01*
X156211260Y-84110000D01*
X156498158Y-84052932D01*
X156768411Y-83940990D01*
X157011632Y-83778475D01*
X157218475Y-83571632D01*
X157380990Y-83328411D01*
X157492932Y-83058158D01*
X157550000Y-82771260D01*
X157550000Y-82478740D01*
X157492932Y-82191842D01*
X157380990Y-81921589D01*
X157218475Y-81678368D01*
X157011632Y-81471525D01*
X156837240Y-81355000D01*
X157011632Y-81238475D01*
X157218475Y-81031632D01*
X157380990Y-80788411D01*
X157492932Y-80518158D01*
X157550000Y-80231260D01*
X157550000Y-79938740D01*
X157492932Y-79651842D01*
X157380990Y-79381589D01*
X157218475Y-79138368D01*
X157011632Y-78931525D01*
X156837240Y-78815000D01*
X157011632Y-78698475D01*
X157218475Y-78491632D01*
X157380990Y-78248411D01*
X157492932Y-77978158D01*
X157550000Y-77691260D01*
X157550000Y-77398740D01*
X157492932Y-77111842D01*
X157380990Y-76841589D01*
X157218475Y-76598368D01*
X157196069Y-76575962D01*
X157773051Y-76575962D01*
X157773051Y-76760140D01*
X157808983Y-76940780D01*
X157879465Y-77110940D01*
X157981789Y-77264079D01*
X158112023Y-77394313D01*
X158265162Y-77496637D01*
X158435322Y-77567119D01*
X158615962Y-77603051D01*
X158800140Y-77603051D01*
X158980780Y-77567119D01*
X159150940Y-77496637D01*
X159304079Y-77394313D01*
X159434313Y-77264079D01*
X159536637Y-77110940D01*
X159607119Y-76940780D01*
X159643051Y-76760140D01*
X159643051Y-76575962D01*
X159607119Y-76395322D01*
X159536637Y-76225162D01*
X159434313Y-76072023D01*
X159304079Y-75941789D01*
X159150940Y-75839465D01*
X158980780Y-75768983D01*
X158800140Y-75733051D01*
X158615962Y-75733051D01*
X158435322Y-75768983D01*
X158265162Y-75839465D01*
X158112023Y-75941789D01*
X157981789Y-76072023D01*
X157879465Y-76225162D01*
X157808983Y-76395322D01*
X157773051Y-76575962D01*
X157196069Y-76575962D01*
X157011632Y-76391525D01*
X156768411Y-76229010D01*
X156498158Y-76117068D01*
X156211260Y-76060000D01*
X155918740Y-76060000D01*
X155631842Y-76117068D01*
X155361589Y-76229010D01*
X155118368Y-76391525D01*
X154911525Y-76598368D01*
X154795000Y-76772760D01*
X154678475Y-76598368D01*
X154471632Y-76391525D01*
X154228411Y-76229010D01*
X153958158Y-76117068D01*
X153671260Y-76060000D01*
X153378740Y-76060000D01*
X153091842Y-76117068D01*
X152821589Y-76229010D01*
X152578368Y-76391525D01*
X152371525Y-76598368D01*
X152209010Y-76841589D01*
X152097068Y-77111842D01*
X152040000Y-77398740D01*
X152040000Y-77691260D01*
X152097068Y-77978158D01*
X152209010Y-78248411D01*
X152371525Y-78491632D01*
X152578368Y-78698475D01*
X152752760Y-78815000D01*
X152578368Y-78931525D01*
X152371525Y-79138368D01*
X152209010Y-79381589D01*
X152097068Y-79651842D01*
X152040000Y-79938740D01*
X152040000Y-80231260D01*
X152097068Y-80518158D01*
X152209010Y-80788411D01*
X152371525Y-81031632D01*
X152503380Y-81163487D01*
X152430820Y-81185498D01*
X152320506Y-81244463D01*
X152223815Y-81323815D01*
X152144463Y-81420506D01*
X152085498Y-81530820D01*
X152049188Y-81650518D01*
X152036928Y-81775000D01*
X144618355Y-81775000D01*
X144607320Y-81772805D01*
X144423142Y-81772805D01*
X144242502Y-81808737D01*
X144072342Y-81879219D01*
X143919203Y-81981543D01*
X143788969Y-82111777D01*
X143686645Y-82264916D01*
X143616163Y-82435076D01*
X143580231Y-82615716D01*
X137408006Y-82615716D01*
X137386028Y-82593738D01*
X137232889Y-82491414D01*
X137062729Y-82420932D01*
X136882089Y-82385000D01*
X136697911Y-82385000D01*
X136517271Y-82420932D01*
X136347111Y-82491414D01*
X136193972Y-82593738D01*
X136063738Y-82723972D01*
X135961414Y-82877111D01*
X135890932Y-83047271D01*
X135855000Y-83227911D01*
X113055000Y-83227911D01*
X113055000Y-80627911D01*
X142965000Y-80627911D01*
X142965000Y-80812089D01*
X143000932Y-80992729D01*
X143071414Y-81162889D01*
X143173738Y-81316028D01*
X143303972Y-81446262D01*
X143457111Y-81548586D01*
X143627271Y-81619068D01*
X143807911Y-81655000D01*
X143992089Y-81655000D01*
X144172729Y-81619068D01*
X144342889Y-81548586D01*
X144496028Y-81446262D01*
X144626262Y-81316028D01*
X144728586Y-81162889D01*
X144799068Y-80992729D01*
X144835000Y-80812089D01*
X144835000Y-80627911D01*
X144799068Y-80447271D01*
X144766215Y-80367956D01*
X144824409Y-80367956D01*
X144824409Y-80552134D01*
X144860341Y-80732774D01*
X144930823Y-80902934D01*
X145033147Y-81056073D01*
X145163381Y-81186307D01*
X145316520Y-81288631D01*
X145486680Y-81359113D01*
X145667320Y-81395045D01*
X145851498Y-81395045D01*
X146032138Y-81359113D01*
X146202298Y-81288631D01*
X146355437Y-81186307D01*
X146485671Y-81056073D01*
X146587995Y-80902934D01*
X146643043Y-80770035D01*
X146649137Y-80770035D01*
X146829777Y-80734103D01*
X146999937Y-80663621D01*
X147153076Y-80561297D01*
X147283310Y-80431063D01*
X147385634Y-80277924D01*
X147456116Y-80107764D01*
X147492048Y-79927124D01*
X147492048Y-79742946D01*
X147456116Y-79562306D01*
X147385634Y-79392146D01*
X147283310Y-79239007D01*
X147153076Y-79108773D01*
X146999937Y-79006449D01*
X146829777Y-78935967D01*
X146649137Y-78900035D01*
X146464959Y-78900035D01*
X146284319Y-78935967D01*
X146114159Y-79006449D01*
X145961020Y-79108773D01*
X145830786Y-79239007D01*
X145728462Y-79392146D01*
X145673414Y-79525045D01*
X145667320Y-79525045D01*
X145486680Y-79560977D01*
X145316520Y-79631459D01*
X145163381Y-79733783D01*
X145033147Y-79864017D01*
X144930823Y-80017156D01*
X144860341Y-80187316D01*
X144824409Y-80367956D01*
X144766215Y-80367956D01*
X144728586Y-80277111D01*
X144626262Y-80123972D01*
X144516613Y-80014323D01*
X144602889Y-79978586D01*
X144756028Y-79876262D01*
X144886262Y-79746028D01*
X144988586Y-79592889D01*
X145059068Y-79422729D01*
X145095000Y-79242089D01*
X145095000Y-79057911D01*
X145059068Y-78877271D01*
X144988586Y-78707111D01*
X144886262Y-78553972D01*
X144756028Y-78423738D01*
X144602889Y-78321414D01*
X144432729Y-78250932D01*
X144252089Y-78215000D01*
X144067911Y-78215000D01*
X143887271Y-78250932D01*
X143717111Y-78321414D01*
X143563972Y-78423738D01*
X143433738Y-78553972D01*
X143331414Y-78707111D01*
X143260932Y-78877271D01*
X143225000Y-79057911D01*
X143225000Y-79242089D01*
X143260932Y-79422729D01*
X143331414Y-79592889D01*
X143433738Y-79746028D01*
X143543387Y-79855677D01*
X143457111Y-79891414D01*
X143303972Y-79993738D01*
X143173738Y-80123972D01*
X143071414Y-80277111D01*
X143000932Y-80447271D01*
X142965000Y-80627911D01*
X113055000Y-80627911D01*
X113055000Y-79017911D01*
X124105000Y-79017911D01*
X124105000Y-79202089D01*
X124140932Y-79382729D01*
X124211414Y-79552889D01*
X124313738Y-79706028D01*
X124443972Y-79836262D01*
X124597111Y-79938586D01*
X124767271Y-80009068D01*
X124947911Y-80045000D01*
X125132089Y-80045000D01*
X125312729Y-80009068D01*
X125482889Y-79938586D01*
X125636028Y-79836262D01*
X125766262Y-79706028D01*
X125868586Y-79552889D01*
X125939068Y-79382729D01*
X125975000Y-79202089D01*
X125975000Y-79017911D01*
X125939068Y-78837271D01*
X125868586Y-78667111D01*
X125849076Y-78637911D01*
X127255000Y-78637911D01*
X127255000Y-78822089D01*
X127290932Y-79002729D01*
X127361414Y-79172889D01*
X127463738Y-79326028D01*
X127593972Y-79456262D01*
X127747111Y-79558586D01*
X127917271Y-79629068D01*
X128097911Y-79665000D01*
X128282089Y-79665000D01*
X128462729Y-79629068D01*
X128632889Y-79558586D01*
X128786028Y-79456262D01*
X128916262Y-79326028D01*
X129018586Y-79172889D01*
X129089068Y-79002729D01*
X129125000Y-78822089D01*
X129125000Y-78637911D01*
X129089068Y-78457271D01*
X129018586Y-78287111D01*
X128916262Y-78133972D01*
X128786028Y-78003738D01*
X128632889Y-77901414D01*
X128462729Y-77830932D01*
X128282089Y-77795000D01*
X128097911Y-77795000D01*
X127917271Y-77830932D01*
X127747111Y-77901414D01*
X127593972Y-78003738D01*
X127463738Y-78133972D01*
X127361414Y-78287111D01*
X127290932Y-78457271D01*
X127255000Y-78637911D01*
X125849076Y-78637911D01*
X125766262Y-78513972D01*
X125636028Y-78383738D01*
X125482889Y-78281414D01*
X125312729Y-78210932D01*
X125132089Y-78175000D01*
X124947911Y-78175000D01*
X124767271Y-78210932D01*
X124597111Y-78281414D01*
X124443972Y-78383738D01*
X124313738Y-78513972D01*
X124211414Y-78667111D01*
X124140932Y-78837271D01*
X124105000Y-79017911D01*
X113055000Y-79017911D01*
X113055000Y-77344348D01*
X145455010Y-77344348D01*
X145455010Y-77528526D01*
X145490942Y-77709166D01*
X145561424Y-77879326D01*
X145663748Y-78032465D01*
X145793982Y-78162699D01*
X145947121Y-78265023D01*
X146117281Y-78335505D01*
X146297921Y-78371437D01*
X146482099Y-78371437D01*
X146662739Y-78335505D01*
X146832899Y-78265023D01*
X146986038Y-78162699D01*
X147116272Y-78032465D01*
X147218596Y-77879326D01*
X147289078Y-77709166D01*
X147325010Y-77528526D01*
X147325010Y-77344348D01*
X147289078Y-77163708D01*
X147218596Y-76993548D01*
X147116272Y-76840409D01*
X146986038Y-76710175D01*
X146832899Y-76607851D01*
X146662739Y-76537369D01*
X146482099Y-76501437D01*
X146297921Y-76501437D01*
X146117281Y-76537369D01*
X145947121Y-76607851D01*
X145793982Y-76710175D01*
X145663748Y-76840409D01*
X145561424Y-76993548D01*
X145490942Y-77163708D01*
X145455010Y-77344348D01*
X113055000Y-77344348D01*
X113055000Y-75141214D01*
X143103378Y-75141214D01*
X143103378Y-75325392D01*
X143139310Y-75506032D01*
X143209792Y-75676192D01*
X143312116Y-75829331D01*
X143442350Y-75959565D01*
X143595489Y-76061889D01*
X143765649Y-76132371D01*
X143946289Y-76168303D01*
X144130467Y-76168303D01*
X144311107Y-76132371D01*
X144481267Y-76061889D01*
X144634406Y-75959565D01*
X144764640Y-75829331D01*
X144866964Y-75676192D01*
X144937446Y-75506032D01*
X144973378Y-75325392D01*
X144973378Y-75141214D01*
X144937446Y-74960574D01*
X144866964Y-74790414D01*
X144764640Y-74637275D01*
X144655276Y-74527911D01*
X146335000Y-74527911D01*
X146335000Y-74712089D01*
X146370932Y-74892729D01*
X146441414Y-75062889D01*
X146543738Y-75216028D01*
X146673972Y-75346262D01*
X146827111Y-75448586D01*
X146997271Y-75519068D01*
X147177911Y-75555000D01*
X147362089Y-75555000D01*
X147542729Y-75519068D01*
X147712889Y-75448586D01*
X147866028Y-75346262D01*
X147996262Y-75216028D01*
X148098586Y-75062889D01*
X148169068Y-74892729D01*
X148205000Y-74712089D01*
X148205000Y-74527911D01*
X148169068Y-74347271D01*
X148098586Y-74177111D01*
X147996262Y-74023972D01*
X147866028Y-73893738D01*
X147712889Y-73791414D01*
X147542729Y-73720932D01*
X147362089Y-73685000D01*
X147177911Y-73685000D01*
X146997271Y-73720932D01*
X146827111Y-73791414D01*
X146673972Y-73893738D01*
X146543738Y-74023972D01*
X146441414Y-74177111D01*
X146370932Y-74347271D01*
X146335000Y-74527911D01*
X144655276Y-74527911D01*
X144634406Y-74507041D01*
X144481267Y-74404717D01*
X144311107Y-74334235D01*
X144130467Y-74298303D01*
X143946289Y-74298303D01*
X143765649Y-74334235D01*
X143595489Y-74404717D01*
X143442350Y-74507041D01*
X143312116Y-74637275D01*
X143209792Y-74790414D01*
X143139310Y-74960574D01*
X143103378Y-75141214D01*
X113055000Y-75141214D01*
X113055000Y-73859860D01*
X123113051Y-73859860D01*
X123113051Y-74044038D01*
X123148983Y-74224678D01*
X123219465Y-74394838D01*
X123321789Y-74547977D01*
X123452023Y-74678211D01*
X123605162Y-74780535D01*
X123775322Y-74851017D01*
X123955962Y-74886949D01*
X124140140Y-74886949D01*
X124320780Y-74851017D01*
X124490940Y-74780535D01*
X124644079Y-74678211D01*
X124774313Y-74547977D01*
X124876637Y-74394838D01*
X124947119Y-74224678D01*
X124983051Y-74044038D01*
X124983051Y-73859860D01*
X124968740Y-73787911D01*
X128795000Y-73787911D01*
X128795000Y-73972089D01*
X128830932Y-74152729D01*
X128901414Y-74322889D01*
X129003738Y-74476028D01*
X129133972Y-74606262D01*
X129287111Y-74708586D01*
X129457271Y-74779068D01*
X129637911Y-74815000D01*
X129822089Y-74815000D01*
X130002729Y-74779068D01*
X130172889Y-74708586D01*
X130326028Y-74606262D01*
X130456262Y-74476028D01*
X130558586Y-74322889D01*
X130629068Y-74152729D01*
X130665000Y-73972089D01*
X130665000Y-73787911D01*
X130629068Y-73607271D01*
X130558586Y-73437111D01*
X130456262Y-73283972D01*
X130326028Y-73153738D01*
X130172889Y-73051414D01*
X130002729Y-72980932D01*
X129822089Y-72945000D01*
X129637911Y-72945000D01*
X129457271Y-72980932D01*
X129287111Y-73051414D01*
X129133972Y-73153738D01*
X129003738Y-73283972D01*
X128901414Y-73437111D01*
X128830932Y-73607271D01*
X128795000Y-73787911D01*
X124968740Y-73787911D01*
X124947119Y-73679220D01*
X124876637Y-73509060D01*
X124774313Y-73355921D01*
X124644079Y-73225687D01*
X124490940Y-73123363D01*
X124320780Y-73052881D01*
X124140140Y-73016949D01*
X123955962Y-73016949D01*
X123775322Y-73052881D01*
X123605162Y-73123363D01*
X123452023Y-73225687D01*
X123321789Y-73355921D01*
X123219465Y-73509060D01*
X123148983Y-73679220D01*
X123113051Y-73859860D01*
X113055000Y-73859860D01*
X113055000Y-69747911D01*
X124495000Y-69747911D01*
X124495000Y-69932089D01*
X124530932Y-70112729D01*
X124601414Y-70282889D01*
X124703738Y-70436028D01*
X124833972Y-70566262D01*
X124987111Y-70668586D01*
X125157271Y-70739068D01*
X125337911Y-70775000D01*
X125522089Y-70775000D01*
X125702729Y-70739068D01*
X125872889Y-70668586D01*
X126026028Y-70566262D01*
X126156262Y-70436028D01*
X126258586Y-70282889D01*
X126329068Y-70112729D01*
X126365000Y-69932089D01*
X126365000Y-69747911D01*
X126329068Y-69567271D01*
X126258586Y-69397111D01*
X126156262Y-69243972D01*
X126026028Y-69113738D01*
X125872889Y-69011414D01*
X125702729Y-68940932D01*
X125522089Y-68905000D01*
X125337911Y-68905000D01*
X125157271Y-68940932D01*
X124987111Y-69011414D01*
X124833972Y-69113738D01*
X124703738Y-69243972D01*
X124601414Y-69397111D01*
X124530932Y-69567271D01*
X124495000Y-69747911D01*
X113055000Y-69747911D01*
X113055000Y-65197911D01*
X121555000Y-65197911D01*
X121555000Y-65382089D01*
X121590932Y-65562729D01*
X121661414Y-65732889D01*
X121763738Y-65886028D01*
X121893972Y-66016262D01*
X122047111Y-66118586D01*
X122217271Y-66189068D01*
X122397911Y-66225000D01*
X122582089Y-66225000D01*
X122762729Y-66189068D01*
X122932889Y-66118586D01*
X123086028Y-66016262D01*
X123216262Y-65886028D01*
X123271327Y-65803617D01*
X123363972Y-65896262D01*
X123517111Y-65998586D01*
X123687271Y-66069068D01*
X123867911Y-66105000D01*
X124052089Y-66105000D01*
X124232729Y-66069068D01*
X124402889Y-65998586D01*
X124556028Y-65896262D01*
X124686262Y-65766028D01*
X124686531Y-65765625D01*
X124767271Y-65799068D01*
X124947911Y-65835000D01*
X125132089Y-65835000D01*
X125312729Y-65799068D01*
X125482889Y-65728586D01*
X125636028Y-65626262D01*
X125766262Y-65496028D01*
X125868586Y-65342889D01*
X125927881Y-65199735D01*
X127526753Y-65199735D01*
X127526753Y-65383913D01*
X127562685Y-65564553D01*
X127633167Y-65734713D01*
X127735491Y-65887852D01*
X127865725Y-66018086D01*
X128018864Y-66120410D01*
X128189024Y-66190892D01*
X128369664Y-66226824D01*
X128379174Y-66226824D01*
X128308962Y-66273738D01*
X128178728Y-66403972D01*
X128076404Y-66557111D01*
X128005922Y-66727271D01*
X127969990Y-66907911D01*
X127969990Y-67092089D01*
X128005922Y-67272729D01*
X128011504Y-67286206D01*
X127913738Y-67383972D01*
X127811414Y-67537111D01*
X127740932Y-67707271D01*
X127705000Y-67887911D01*
X127705000Y-68072089D01*
X127740932Y-68252729D01*
X127811414Y-68422889D01*
X127913738Y-68576028D01*
X128043972Y-68706262D01*
X128197111Y-68808586D01*
X128367271Y-68879068D01*
X128547911Y-68915000D01*
X128732089Y-68915000D01*
X128912729Y-68879068D01*
X129082889Y-68808586D01*
X129102915Y-68795205D01*
X129125921Y-68818211D01*
X129279060Y-68920535D01*
X129449220Y-68991017D01*
X129629860Y-69026949D01*
X129814038Y-69026949D01*
X129994678Y-68991017D01*
X130164838Y-68920535D01*
X130317977Y-68818211D01*
X130448211Y-68687977D01*
X130550535Y-68534838D01*
X130621017Y-68364678D01*
X130656949Y-68184038D01*
X130656949Y-67999860D01*
X130621017Y-67819220D01*
X130550535Y-67649060D01*
X130543086Y-67637911D01*
X132405000Y-67637911D01*
X132405000Y-67822089D01*
X132440932Y-68002729D01*
X132511414Y-68172889D01*
X132613738Y-68326028D01*
X132743972Y-68456262D01*
X132897111Y-68558586D01*
X133067271Y-68629068D01*
X133247911Y-68665000D01*
X133432089Y-68665000D01*
X133612729Y-68629068D01*
X133782889Y-68558586D01*
X133936028Y-68456262D01*
X134066262Y-68326028D01*
X134168586Y-68172889D01*
X134239068Y-68002729D01*
X134275000Y-67822089D01*
X134275000Y-67637911D01*
X134239068Y-67457271D01*
X134168586Y-67287111D01*
X134164847Y-67281514D01*
X135544968Y-67281514D01*
X135544968Y-67465692D01*
X135580900Y-67646332D01*
X135651382Y-67816492D01*
X135753706Y-67969631D01*
X135883940Y-68099865D01*
X136037079Y-68202189D01*
X136207239Y-68272671D01*
X136387879Y-68308603D01*
X136572057Y-68308603D01*
X136752697Y-68272671D01*
X136922857Y-68202189D01*
X137075996Y-68099865D01*
X137206230Y-67969631D01*
X137308554Y-67816492D01*
X137379036Y-67646332D01*
X137414968Y-67465692D01*
X137414968Y-67281514D01*
X137379036Y-67100874D01*
X137308554Y-66930714D01*
X137206230Y-66777575D01*
X137075996Y-66647341D01*
X136922857Y-66545017D01*
X136752697Y-66474535D01*
X136572057Y-66438603D01*
X136387879Y-66438603D01*
X136207239Y-66474535D01*
X136037079Y-66545017D01*
X135883940Y-66647341D01*
X135753706Y-66777575D01*
X135651382Y-66930714D01*
X135580900Y-67100874D01*
X135544968Y-67281514D01*
X134164847Y-67281514D01*
X134066262Y-67133972D01*
X133936028Y-67003738D01*
X133782889Y-66901414D01*
X133612729Y-66830932D01*
X133432089Y-66795000D01*
X133247911Y-66795000D01*
X133067271Y-66830932D01*
X132897111Y-66901414D01*
X132743972Y-67003738D01*
X132613738Y-67133972D01*
X132511414Y-67287111D01*
X132440932Y-67457271D01*
X132405000Y-67637911D01*
X130543086Y-67637911D01*
X130448211Y-67495921D01*
X130317977Y-67365687D01*
X130164838Y-67263363D01*
X129994678Y-67192881D01*
X129826592Y-67159446D01*
X129839990Y-67092089D01*
X129839990Y-66907911D01*
X129804058Y-66727271D01*
X129733576Y-66557111D01*
X129631252Y-66403972D01*
X129501018Y-66273738D01*
X129347879Y-66171414D01*
X129177719Y-66100932D01*
X128997079Y-66065000D01*
X128987569Y-66065000D01*
X129057781Y-66018086D01*
X129134675Y-65941192D01*
X129301999Y-65941192D01*
X129482639Y-65905260D01*
X129652799Y-65834778D01*
X129805938Y-65732454D01*
X129936172Y-65602220D01*
X130038496Y-65449081D01*
X130108111Y-65281012D01*
X138885021Y-65281012D01*
X138885021Y-65465190D01*
X138920953Y-65645830D01*
X138991435Y-65815990D01*
X139093759Y-65969129D01*
X139223993Y-66099363D01*
X139377132Y-66201687D01*
X139547292Y-66272169D01*
X139575483Y-66277777D01*
X139539988Y-66456220D01*
X139539988Y-66640398D01*
X139575920Y-66821038D01*
X139646402Y-66991198D01*
X139748726Y-67144337D01*
X139878960Y-67274571D01*
X140032099Y-67376895D01*
X140202259Y-67447377D01*
X140382899Y-67483309D01*
X140567077Y-67483309D01*
X140747717Y-67447377D01*
X140917877Y-67376895D01*
X141071016Y-67274571D01*
X141201250Y-67144337D01*
X141303574Y-66991198D01*
X141374056Y-66821038D01*
X141409988Y-66640398D01*
X141409988Y-66456220D01*
X141374056Y-66275580D01*
X141303574Y-66105420D01*
X141201250Y-65952281D01*
X141071016Y-65822047D01*
X140917877Y-65719723D01*
X140747717Y-65649241D01*
X140719526Y-65643633D01*
X140755021Y-65465190D01*
X140755021Y-65281012D01*
X140719089Y-65100372D01*
X140673891Y-64991254D01*
X140712827Y-64932983D01*
X140783309Y-64762823D01*
X140819241Y-64582183D01*
X140819241Y-64398005D01*
X140793188Y-64267027D01*
X140885737Y-64174478D01*
X140988061Y-64021339D01*
X141058543Y-63851179D01*
X141094475Y-63670539D01*
X141094475Y-63486361D01*
X141058543Y-63305721D01*
X140988061Y-63135561D01*
X140885737Y-62982422D01*
X140769192Y-62865877D01*
X141909911Y-62865877D01*
X141909911Y-63050055D01*
X141945843Y-63230695D01*
X142016325Y-63400855D01*
X142118649Y-63553994D01*
X142248883Y-63684228D01*
X142402022Y-63786552D01*
X142572182Y-63857034D01*
X142752822Y-63892966D01*
X142937000Y-63892966D01*
X143117640Y-63857034D01*
X143287800Y-63786552D01*
X143440939Y-63684228D01*
X143571173Y-63553994D01*
X143673497Y-63400855D01*
X143743979Y-63230695D01*
X143779911Y-63050055D01*
X143779911Y-62865877D01*
X143743979Y-62685237D01*
X143673497Y-62515077D01*
X143628619Y-62447911D01*
X145055000Y-62447911D01*
X145055000Y-62632089D01*
X145090932Y-62812729D01*
X145161414Y-62982889D01*
X145263738Y-63136028D01*
X145393972Y-63266262D01*
X145547111Y-63368586D01*
X145717271Y-63439068D01*
X145897911Y-63475000D01*
X146082089Y-63475000D01*
X146262729Y-63439068D01*
X146432889Y-63368586D01*
X146586028Y-63266262D01*
X146716262Y-63136028D01*
X146818586Y-62982889D01*
X146889068Y-62812729D01*
X146925000Y-62632089D01*
X146925000Y-62447911D01*
X146889068Y-62267271D01*
X146818586Y-62097111D01*
X146716262Y-61943972D01*
X146586028Y-61813738D01*
X146432889Y-61711414D01*
X146262729Y-61640932D01*
X146082089Y-61605000D01*
X145897911Y-61605000D01*
X145717271Y-61640932D01*
X145547111Y-61711414D01*
X145393972Y-61813738D01*
X145263738Y-61943972D01*
X145161414Y-62097111D01*
X145090932Y-62267271D01*
X145055000Y-62447911D01*
X143628619Y-62447911D01*
X143571173Y-62361938D01*
X143440939Y-62231704D01*
X143287800Y-62129380D01*
X143117640Y-62058898D01*
X142937000Y-62022966D01*
X142752822Y-62022966D01*
X142572182Y-62058898D01*
X142402022Y-62129380D01*
X142248883Y-62231704D01*
X142118649Y-62361938D01*
X142016325Y-62515077D01*
X141945843Y-62685237D01*
X141909911Y-62865877D01*
X140769192Y-62865877D01*
X140755503Y-62852188D01*
X140602364Y-62749864D01*
X140432204Y-62679382D01*
X140251564Y-62643450D01*
X140067386Y-62643450D01*
X139886746Y-62679382D01*
X139716586Y-62749864D01*
X139563447Y-62852188D01*
X139433213Y-62982422D01*
X139330889Y-63135561D01*
X139260407Y-63305721D01*
X139224475Y-63486361D01*
X139224475Y-63670539D01*
X139250528Y-63801517D01*
X139157979Y-63894066D01*
X139055655Y-64047205D01*
X138985173Y-64217365D01*
X138949241Y-64398005D01*
X138949241Y-64582183D01*
X138985173Y-64762823D01*
X139030371Y-64871941D01*
X138991435Y-64930212D01*
X138920953Y-65100372D01*
X138885021Y-65281012D01*
X130108111Y-65281012D01*
X130108978Y-65278921D01*
X130144910Y-65098281D01*
X130144910Y-64914103D01*
X130108978Y-64733463D01*
X130038496Y-64563303D01*
X129936172Y-64410164D01*
X129805938Y-64279930D01*
X129652799Y-64177606D01*
X129482639Y-64107124D01*
X129301999Y-64071192D01*
X129117821Y-64071192D01*
X128937181Y-64107124D01*
X128767021Y-64177606D01*
X128613882Y-64279930D01*
X128536988Y-64356824D01*
X128369664Y-64356824D01*
X128189024Y-64392756D01*
X128018864Y-64463238D01*
X127865725Y-64565562D01*
X127735491Y-64695796D01*
X127633167Y-64848935D01*
X127562685Y-65019095D01*
X127526753Y-65199735D01*
X125927881Y-65199735D01*
X125939068Y-65172729D01*
X125975000Y-64992089D01*
X125975000Y-64807911D01*
X125939068Y-64627271D01*
X125868586Y-64457111D01*
X125766262Y-64303972D01*
X125636028Y-64173738D01*
X125482889Y-64071414D01*
X125312729Y-64000932D01*
X125132089Y-63965000D01*
X124947911Y-63965000D01*
X124767271Y-64000932D01*
X124597111Y-64071414D01*
X124443972Y-64173738D01*
X124313738Y-64303972D01*
X124313469Y-64304375D01*
X124232729Y-64270932D01*
X124052089Y-64235000D01*
X123867911Y-64235000D01*
X123687271Y-64270932D01*
X123517111Y-64341414D01*
X123363972Y-64443738D01*
X123233738Y-64573972D01*
X123178673Y-64656383D01*
X123086028Y-64563738D01*
X122932889Y-64461414D01*
X122762729Y-64390932D01*
X122582089Y-64355000D01*
X122397911Y-64355000D01*
X122217271Y-64390932D01*
X122047111Y-64461414D01*
X121893972Y-64563738D01*
X121763738Y-64693972D01*
X121661414Y-64847111D01*
X121590932Y-65017271D01*
X121555000Y-65197911D01*
X113055000Y-65197911D01*
X113055000Y-61496565D01*
X139560343Y-61496565D01*
X139560343Y-61680743D01*
X139596275Y-61861383D01*
X139666757Y-62031543D01*
X139769081Y-62184682D01*
X139899315Y-62314916D01*
X140052454Y-62417240D01*
X140222614Y-62487722D01*
X140403254Y-62523654D01*
X140587432Y-62523654D01*
X140768072Y-62487722D01*
X140938232Y-62417240D01*
X141091371Y-62314916D01*
X141221605Y-62184682D01*
X141323929Y-62031543D01*
X141375185Y-61907799D01*
X141505990Y-61853618D01*
X141659129Y-61751294D01*
X141789363Y-61621060D01*
X141891687Y-61467921D01*
X141962169Y-61297761D01*
X141987923Y-61168285D01*
X148365372Y-61168285D01*
X148365372Y-61352463D01*
X148401304Y-61533103D01*
X148471786Y-61703263D01*
X148574110Y-61856402D01*
X148704344Y-61986636D01*
X148857483Y-62088960D01*
X149027643Y-62159442D01*
X149208283Y-62195374D01*
X149392461Y-62195374D01*
X149573101Y-62159442D01*
X149743261Y-62088960D01*
X149896400Y-61986636D01*
X150026634Y-61856402D01*
X150128958Y-61703263D01*
X150199440Y-61533103D01*
X150235372Y-61352463D01*
X150235372Y-61307487D01*
X150302729Y-61294089D01*
X150472889Y-61223607D01*
X150626028Y-61121283D01*
X150756262Y-60991049D01*
X150858586Y-60837910D01*
X150873069Y-60802943D01*
X155195458Y-60802943D01*
X155195458Y-60987121D01*
X155231390Y-61167761D01*
X155301872Y-61337921D01*
X155404196Y-61491060D01*
X155534430Y-61621294D01*
X155687569Y-61723618D01*
X155857729Y-61794100D01*
X156038369Y-61830032D01*
X156222547Y-61830032D01*
X156403187Y-61794100D01*
X156573347Y-61723618D01*
X156726486Y-61621294D01*
X156856720Y-61491060D01*
X156959044Y-61337921D01*
X157029526Y-61167761D01*
X157065458Y-60987121D01*
X157065458Y-60922952D01*
X157492108Y-60922952D01*
X157492108Y-61107130D01*
X157528040Y-61287770D01*
X157598522Y-61457930D01*
X157700846Y-61611069D01*
X157831080Y-61741303D01*
X157984219Y-61843627D01*
X158154379Y-61914109D01*
X158335019Y-61950041D01*
X158519197Y-61950041D01*
X158699837Y-61914109D01*
X158869997Y-61843627D01*
X159023136Y-61741303D01*
X159153370Y-61611069D01*
X159255694Y-61457930D01*
X159281314Y-61396078D01*
X159321414Y-61492889D01*
X159423738Y-61646028D01*
X159424031Y-61646321D01*
X159368983Y-61779220D01*
X159333051Y-61959860D01*
X159333051Y-62144038D01*
X159368983Y-62324678D01*
X159439465Y-62494838D01*
X159541789Y-62647977D01*
X159672023Y-62778211D01*
X159825162Y-62880535D01*
X159995322Y-62951017D01*
X160175962Y-62986949D01*
X160360140Y-62986949D01*
X160540780Y-62951017D01*
X160710940Y-62880535D01*
X160864079Y-62778211D01*
X160994313Y-62647977D01*
X161096637Y-62494838D01*
X161167119Y-62324678D01*
X161203051Y-62144038D01*
X161203051Y-61959860D01*
X161167119Y-61779220D01*
X161096637Y-61609060D01*
X160994313Y-61455921D01*
X160994020Y-61455628D01*
X161049068Y-61322729D01*
X161085000Y-61142089D01*
X161085000Y-60957911D01*
X161049068Y-60777271D01*
X160978586Y-60607111D01*
X160876262Y-60453972D01*
X160746028Y-60323738D01*
X160592889Y-60221414D01*
X160422729Y-60150932D01*
X160242089Y-60115000D01*
X160057911Y-60115000D01*
X159877271Y-60150932D01*
X159707111Y-60221414D01*
X159553972Y-60323738D01*
X159423738Y-60453972D01*
X159321414Y-60607111D01*
X159295794Y-60668963D01*
X159255694Y-60572152D01*
X159153370Y-60419013D01*
X159023136Y-60288779D01*
X158869997Y-60186455D01*
X158699837Y-60115973D01*
X158519197Y-60080041D01*
X158335019Y-60080041D01*
X158154379Y-60115973D01*
X157984219Y-60186455D01*
X157831080Y-60288779D01*
X157700846Y-60419013D01*
X157598522Y-60572152D01*
X157528040Y-60742312D01*
X157492108Y-60922952D01*
X157065458Y-60922952D01*
X157065458Y-60802943D01*
X157029526Y-60622303D01*
X156959044Y-60452143D01*
X156856720Y-60299004D01*
X156726486Y-60168770D01*
X156573347Y-60066446D01*
X156403187Y-59995964D01*
X156222547Y-59960032D01*
X156038369Y-59960032D01*
X155857729Y-59995964D01*
X155687569Y-60066446D01*
X155534430Y-60168770D01*
X155404196Y-60299004D01*
X155301872Y-60452143D01*
X155231390Y-60622303D01*
X155195458Y-60802943D01*
X150873069Y-60802943D01*
X150929068Y-60667750D01*
X150965000Y-60487110D01*
X150965000Y-60302932D01*
X150929068Y-60122292D01*
X150858586Y-59952132D01*
X150756262Y-59798993D01*
X150626028Y-59668759D01*
X150472889Y-59566435D01*
X150302729Y-59495953D01*
X150122089Y-59460021D01*
X149937911Y-59460021D01*
X149757271Y-59495953D01*
X149587111Y-59566435D01*
X149433972Y-59668759D01*
X149303738Y-59798993D01*
X149201414Y-59952132D01*
X149130932Y-60122292D01*
X149095000Y-60302932D01*
X149095000Y-60347908D01*
X149027643Y-60361306D01*
X148857483Y-60431788D01*
X148704344Y-60534112D01*
X148574110Y-60664346D01*
X148471786Y-60817485D01*
X148401304Y-60987645D01*
X148365372Y-61168285D01*
X141987923Y-61168285D01*
X141998101Y-61117121D01*
X141998101Y-60932943D01*
X141962169Y-60752303D01*
X141891687Y-60582143D01*
X141789363Y-60429004D01*
X141659129Y-60298770D01*
X141505990Y-60196446D01*
X141335830Y-60125964D01*
X141155190Y-60090032D01*
X140971012Y-60090032D01*
X140790372Y-60125964D01*
X140620212Y-60196446D01*
X140467073Y-60298770D01*
X140336839Y-60429004D01*
X140234515Y-60582143D01*
X140183259Y-60705887D01*
X140052454Y-60760068D01*
X139899315Y-60862392D01*
X139769081Y-60992626D01*
X139666757Y-61145765D01*
X139596275Y-61315925D01*
X139560343Y-61496565D01*
X113055000Y-61496565D01*
X113055000Y-58347911D01*
X118755000Y-58347911D01*
X118755000Y-58532089D01*
X118790932Y-58712729D01*
X118861414Y-58882889D01*
X118963738Y-59036028D01*
X119093972Y-59166262D01*
X119247111Y-59268586D01*
X119417271Y-59339068D01*
X119597911Y-59375000D01*
X119782089Y-59375000D01*
X119962729Y-59339068D01*
X120132889Y-59268586D01*
X120286028Y-59166262D01*
X120416262Y-59036028D01*
X120518586Y-58882889D01*
X120589068Y-58712729D01*
X120625000Y-58532089D01*
X120625000Y-58347911D01*
X120589068Y-58167271D01*
X120518586Y-57997111D01*
X120416262Y-57843972D01*
X120286028Y-57713738D01*
X120132889Y-57611414D01*
X119962729Y-57540932D01*
X119782089Y-57505000D01*
X119597911Y-57505000D01*
X119417271Y-57540932D01*
X119247111Y-57611414D01*
X119093972Y-57713738D01*
X118963738Y-57843972D01*
X118861414Y-57997111D01*
X118790932Y-58167271D01*
X118755000Y-58347911D01*
X113055000Y-58347911D01*
X113055000Y-54422032D01*
X113810000Y-54422032D01*
X113810000Y-54817968D01*
X113887243Y-55206296D01*
X114038761Y-55572092D01*
X114258731Y-55901301D01*
X114538699Y-56181269D01*
X114867908Y-56401239D01*
X115233704Y-56552757D01*
X115622032Y-56630000D01*
X116017968Y-56630000D01*
X116406296Y-56552757D01*
X116772092Y-56401239D01*
X117101301Y-56181269D01*
X117381269Y-55901301D01*
X117601239Y-55572092D01*
X117752757Y-55206296D01*
X117781856Y-55060000D01*
X119131928Y-55060000D01*
X119131928Y-56760000D01*
X119144188Y-56884482D01*
X119180498Y-57004180D01*
X119239463Y-57114494D01*
X119318815Y-57211185D01*
X119415506Y-57290537D01*
X119525820Y-57349502D01*
X119645518Y-57385812D01*
X119770000Y-57398072D01*
X121470000Y-57398072D01*
X121594482Y-57385812D01*
X121714180Y-57349502D01*
X121824494Y-57290537D01*
X121921185Y-57211185D01*
X122000537Y-57114494D01*
X122059502Y-57004180D01*
X122081513Y-56931620D01*
X122213368Y-57063475D01*
X122456589Y-57225990D01*
X122726842Y-57337932D01*
X123013740Y-57395000D01*
X123306260Y-57395000D01*
X123593158Y-57337932D01*
X123863411Y-57225990D01*
X124106632Y-57063475D01*
X124313475Y-56856632D01*
X124430000Y-56682240D01*
X124546525Y-56856632D01*
X124598389Y-56908496D01*
X124567281Y-56921381D01*
X124414142Y-57023705D01*
X124283908Y-57153939D01*
X124181584Y-57307078D01*
X124111102Y-57477238D01*
X124075170Y-57657878D01*
X124075170Y-57842056D01*
X124111102Y-58022696D01*
X124181584Y-58192856D01*
X124283908Y-58345995D01*
X124414142Y-58476229D01*
X124552639Y-58568769D01*
X124412121Y-58626973D01*
X124258982Y-58729297D01*
X124128748Y-58859531D01*
X124026424Y-59012670D01*
X123955942Y-59182830D01*
X123938239Y-59271828D01*
X123874310Y-59117489D01*
X123771986Y-58964350D01*
X123641752Y-58834116D01*
X123488613Y-58731792D01*
X123318453Y-58661310D01*
X123137813Y-58625378D01*
X122953635Y-58625378D01*
X122772995Y-58661310D01*
X122602835Y-58731792D01*
X122449696Y-58834116D01*
X122319462Y-58964350D01*
X122217138Y-59117489D01*
X122146656Y-59287649D01*
X122110724Y-59468289D01*
X122110724Y-59652467D01*
X122146656Y-59833107D01*
X122217138Y-60003267D01*
X122319462Y-60156406D01*
X122449696Y-60286640D01*
X122602835Y-60388964D01*
X122772995Y-60459446D01*
X122953635Y-60495378D01*
X123137813Y-60495378D01*
X123318453Y-60459446D01*
X123488613Y-60388964D01*
X123641752Y-60286640D01*
X123771986Y-60156406D01*
X123874310Y-60003267D01*
X123944792Y-59833107D01*
X123962495Y-59744109D01*
X124026424Y-59898448D01*
X124128748Y-60051587D01*
X124258982Y-60181821D01*
X124412121Y-60284145D01*
X124582281Y-60354627D01*
X124762921Y-60390559D01*
X124947099Y-60390559D01*
X125127739Y-60354627D01*
X125297899Y-60284145D01*
X125451038Y-60181821D01*
X125581272Y-60051587D01*
X125683596Y-59898448D01*
X125754078Y-59728288D01*
X125790010Y-59547648D01*
X125790010Y-59363470D01*
X125754078Y-59182830D01*
X125683596Y-59012670D01*
X125581272Y-58859531D01*
X125509652Y-58787911D01*
X127805000Y-58787911D01*
X127805000Y-58972089D01*
X127840932Y-59152729D01*
X127911414Y-59322889D01*
X128013738Y-59476028D01*
X128143972Y-59606262D01*
X128297111Y-59708586D01*
X128467271Y-59779068D01*
X128647911Y-59815000D01*
X128832089Y-59815000D01*
X129012729Y-59779068D01*
X129182889Y-59708586D01*
X129336028Y-59606262D01*
X129466262Y-59476028D01*
X129568586Y-59322889D01*
X129610002Y-59222901D01*
X160328405Y-59222901D01*
X160328405Y-59407079D01*
X160364337Y-59587719D01*
X160434819Y-59757879D01*
X160537143Y-59911018D01*
X160667377Y-60041252D01*
X160820516Y-60143576D01*
X160990676Y-60214058D01*
X161171316Y-60249990D01*
X161355494Y-60249990D01*
X161536134Y-60214058D01*
X161706294Y-60143576D01*
X161859433Y-60041252D01*
X161989667Y-59911018D01*
X162091991Y-59757879D01*
X162162473Y-59587719D01*
X162198405Y-59407079D01*
X162198405Y-59222901D01*
X162162473Y-59042261D01*
X162091991Y-58872101D01*
X161989667Y-58718962D01*
X161859433Y-58588728D01*
X161706294Y-58486404D01*
X161536134Y-58415922D01*
X161355494Y-58379990D01*
X161171316Y-58379990D01*
X160990676Y-58415922D01*
X160820516Y-58486404D01*
X160667377Y-58588728D01*
X160537143Y-58718962D01*
X160434819Y-58872101D01*
X160364337Y-59042261D01*
X160328405Y-59222901D01*
X129610002Y-59222901D01*
X129639068Y-59152729D01*
X129675000Y-58972089D01*
X129675000Y-58787911D01*
X129639068Y-58607271D01*
X129568586Y-58437111D01*
X129466262Y-58283972D01*
X129336028Y-58153738D01*
X129182889Y-58051414D01*
X129012729Y-57980932D01*
X128832089Y-57945000D01*
X128647911Y-57945000D01*
X128467271Y-57980932D01*
X128297111Y-58051414D01*
X128143972Y-58153738D01*
X128013738Y-58283972D01*
X127911414Y-58437111D01*
X127840932Y-58607271D01*
X127805000Y-58787911D01*
X125509652Y-58787911D01*
X125451038Y-58729297D01*
X125312541Y-58636757D01*
X125453059Y-58578553D01*
X125606198Y-58476229D01*
X125736432Y-58345995D01*
X125838756Y-58192856D01*
X125909238Y-58022696D01*
X125945170Y-57842056D01*
X125945170Y-57657878D01*
X125909238Y-57477238D01*
X125872973Y-57389686D01*
X126133158Y-57337932D01*
X126403411Y-57225990D01*
X126646632Y-57063475D01*
X126853475Y-56856632D01*
X126970000Y-56682240D01*
X127086525Y-56856632D01*
X127293368Y-57063475D01*
X127536589Y-57225990D01*
X127806842Y-57337932D01*
X128093740Y-57395000D01*
X128386260Y-57395000D01*
X128673158Y-57337932D01*
X128943411Y-57225990D01*
X129186632Y-57063475D01*
X129393475Y-56856632D01*
X129515195Y-56674466D01*
X129584822Y-56791355D01*
X129779731Y-57007588D01*
X130013080Y-57181641D01*
X130275901Y-57306825D01*
X130423110Y-57351476D01*
X130653000Y-57230155D01*
X130653000Y-56037000D01*
X130633000Y-56037000D01*
X130633000Y-55783000D01*
X130653000Y-55783000D01*
X130653000Y-55763000D01*
X130907000Y-55763000D01*
X130907000Y-55783000D01*
X130927000Y-55783000D01*
X130927000Y-56037000D01*
X130907000Y-56037000D01*
X130907000Y-57230155D01*
X131136890Y-57351476D01*
X131284099Y-57306825D01*
X131546920Y-57181641D01*
X131780269Y-57007588D01*
X131975178Y-56791355D01*
X132044805Y-56674466D01*
X132166525Y-56856632D01*
X132373368Y-57063475D01*
X132616589Y-57225990D01*
X132886842Y-57337932D01*
X133173740Y-57395000D01*
X133466260Y-57395000D01*
X133753158Y-57337932D01*
X134023411Y-57225990D01*
X134266632Y-57063475D01*
X134473475Y-56856632D01*
X134590000Y-56682240D01*
X134706525Y-56856632D01*
X134913368Y-57063475D01*
X135156589Y-57225990D01*
X135426842Y-57337932D01*
X135713740Y-57395000D01*
X136006260Y-57395000D01*
X136293158Y-57337932D01*
X136563411Y-57225990D01*
X136806632Y-57063475D01*
X137013475Y-56856632D01*
X137130000Y-56682240D01*
X137246525Y-56856632D01*
X137453368Y-57063475D01*
X137696589Y-57225990D01*
X137966842Y-57337932D01*
X138253740Y-57395000D01*
X138546260Y-57395000D01*
X138833158Y-57337932D01*
X139103411Y-57225990D01*
X139346632Y-57063475D01*
X139553475Y-56856632D01*
X139670000Y-56682240D01*
X139786525Y-56856632D01*
X139993368Y-57063475D01*
X140236589Y-57225990D01*
X140506842Y-57337932D01*
X140793740Y-57395000D01*
X141086260Y-57395000D01*
X141373158Y-57337932D01*
X141643411Y-57225990D01*
X141886632Y-57063475D01*
X142093475Y-56856632D01*
X142210000Y-56682240D01*
X142326525Y-56856632D01*
X142533368Y-57063475D01*
X142776589Y-57225990D01*
X143046842Y-57337932D01*
X143333740Y-57395000D01*
X143626260Y-57395000D01*
X143913158Y-57337932D01*
X144183411Y-57225990D01*
X144426632Y-57063475D01*
X144633475Y-56856632D01*
X144750000Y-56682240D01*
X144866525Y-56856632D01*
X145073368Y-57063475D01*
X145316589Y-57225990D01*
X145586842Y-57337932D01*
X145873740Y-57395000D01*
X146166260Y-57395000D01*
X146453158Y-57337932D01*
X146723411Y-57225990D01*
X146966632Y-57063475D01*
X147173475Y-56856632D01*
X147290000Y-56682240D01*
X147406525Y-56856632D01*
X147613368Y-57063475D01*
X147856589Y-57225990D01*
X148126842Y-57337932D01*
X148413740Y-57395000D01*
X148706260Y-57395000D01*
X148993158Y-57337932D01*
X149263411Y-57225990D01*
X149506632Y-57063475D01*
X149713475Y-56856632D01*
X149835195Y-56674466D01*
X149904822Y-56791355D01*
X150099731Y-57007588D01*
X150333080Y-57181641D01*
X150595901Y-57306825D01*
X150743110Y-57351476D01*
X150973000Y-57230155D01*
X150973000Y-56037000D01*
X150953000Y-56037000D01*
X150953000Y-55783000D01*
X150973000Y-55783000D01*
X150973000Y-55763000D01*
X151227000Y-55763000D01*
X151227000Y-55783000D01*
X151247000Y-55783000D01*
X151247000Y-56037000D01*
X151227000Y-56037000D01*
X151227000Y-57230155D01*
X151456890Y-57351476D01*
X151604099Y-57306825D01*
X151866920Y-57181641D01*
X152100269Y-57007588D01*
X152295178Y-56791355D01*
X152364805Y-56674466D01*
X152486525Y-56856632D01*
X152693368Y-57063475D01*
X152936589Y-57225990D01*
X153206842Y-57337932D01*
X153493740Y-57395000D01*
X153786260Y-57395000D01*
X154073158Y-57337932D01*
X154343411Y-57225990D01*
X154586632Y-57063475D01*
X154793475Y-56856632D01*
X154910000Y-56682240D01*
X155026525Y-56856632D01*
X155233368Y-57063475D01*
X155476589Y-57225990D01*
X155746842Y-57337932D01*
X156033740Y-57395000D01*
X156326260Y-57395000D01*
X156613158Y-57337932D01*
X156883411Y-57225990D01*
X157126632Y-57063475D01*
X157333475Y-56856632D01*
X157450000Y-56682240D01*
X157566525Y-56856632D01*
X157773368Y-57063475D01*
X158016589Y-57225990D01*
X158286842Y-57337932D01*
X158573740Y-57395000D01*
X158866260Y-57395000D01*
X159153158Y-57337932D01*
X159423411Y-57225990D01*
X159666632Y-57063475D01*
X159873475Y-56856632D01*
X159990000Y-56682240D01*
X160106525Y-56856632D01*
X160313368Y-57063475D01*
X160556589Y-57225990D01*
X160826842Y-57337932D01*
X161113740Y-57395000D01*
X161406260Y-57395000D01*
X161693158Y-57337932D01*
X161963411Y-57225990D01*
X162206632Y-57063475D01*
X162413475Y-56856632D01*
X162530000Y-56682240D01*
X162646525Y-56856632D01*
X162853368Y-57063475D01*
X163096589Y-57225990D01*
X163366842Y-57337932D01*
X163653740Y-57395000D01*
X163946260Y-57395000D01*
X164233158Y-57337932D01*
X164503411Y-57225990D01*
X164746632Y-57063475D01*
X164953475Y-56856632D01*
X165070000Y-56682240D01*
X165186525Y-56856632D01*
X165393368Y-57063475D01*
X165636589Y-57225990D01*
X165906842Y-57337932D01*
X166193740Y-57395000D01*
X166486260Y-57395000D01*
X166773158Y-57337932D01*
X167043411Y-57225990D01*
X167286632Y-57063475D01*
X167493475Y-56856632D01*
X167615195Y-56674466D01*
X167684822Y-56791355D01*
X167879731Y-57007588D01*
X168113080Y-57181641D01*
X168375901Y-57306825D01*
X168523110Y-57351476D01*
X168753000Y-57230155D01*
X168753000Y-56037000D01*
X169007000Y-56037000D01*
X169007000Y-57230155D01*
X169236890Y-57351476D01*
X169384099Y-57306825D01*
X169646920Y-57181641D01*
X169880269Y-57007588D01*
X170075178Y-56791355D01*
X170224157Y-56541252D01*
X170321481Y-56266891D01*
X170200814Y-56037000D01*
X169007000Y-56037000D01*
X168753000Y-56037000D01*
X168733000Y-56037000D01*
X168733000Y-55783000D01*
X168753000Y-55783000D01*
X168753000Y-55763000D01*
X169007000Y-55763000D01*
X169007000Y-55783000D01*
X170200814Y-55783000D01*
X170321481Y-55553109D01*
X170224157Y-55278748D01*
X170075178Y-55028645D01*
X169880269Y-54812412D01*
X169650594Y-54641100D01*
X169826632Y-54523475D01*
X169928075Y-54422032D01*
X171810000Y-54422032D01*
X171810000Y-54817968D01*
X171887243Y-55206296D01*
X172038761Y-55572092D01*
X172258731Y-55901301D01*
X172538699Y-56181269D01*
X172867908Y-56401239D01*
X173233704Y-56552757D01*
X173622032Y-56630000D01*
X174017968Y-56630000D01*
X174406296Y-56552757D01*
X174772092Y-56401239D01*
X175101301Y-56181269D01*
X175381269Y-55901301D01*
X175601239Y-55572092D01*
X175752757Y-55206296D01*
X175830000Y-54817968D01*
X175830000Y-54422032D01*
X175752757Y-54033704D01*
X175601239Y-53667908D01*
X175381269Y-53338699D01*
X175101301Y-53058731D01*
X174772092Y-52838761D01*
X174406296Y-52687243D01*
X174017968Y-52610000D01*
X173622032Y-52610000D01*
X173233704Y-52687243D01*
X172867908Y-52838761D01*
X172538699Y-53058731D01*
X172258731Y-53338699D01*
X172038761Y-53667908D01*
X171887243Y-54033704D01*
X171810000Y-54422032D01*
X169928075Y-54422032D01*
X170033475Y-54316632D01*
X170195990Y-54073411D01*
X170307932Y-53803158D01*
X170365000Y-53516260D01*
X170365000Y-53223740D01*
X170307932Y-52936842D01*
X170195990Y-52666589D01*
X170033475Y-52423368D01*
X169826632Y-52216525D01*
X169583411Y-52054010D01*
X169313158Y-51942068D01*
X169026260Y-51885000D01*
X168733740Y-51885000D01*
X168446842Y-51942068D01*
X168176589Y-52054010D01*
X167933368Y-52216525D01*
X167726525Y-52423368D01*
X167610000Y-52597760D01*
X167493475Y-52423368D01*
X167286632Y-52216525D01*
X167043411Y-52054010D01*
X166773158Y-51942068D01*
X166486260Y-51885000D01*
X166193740Y-51885000D01*
X165906842Y-51942068D01*
X165636589Y-52054010D01*
X165393368Y-52216525D01*
X165186525Y-52423368D01*
X165070000Y-52597760D01*
X164953475Y-52423368D01*
X164746632Y-52216525D01*
X164503411Y-52054010D01*
X164233158Y-51942068D01*
X163946260Y-51885000D01*
X163653740Y-51885000D01*
X163366842Y-51942068D01*
X163096589Y-52054010D01*
X162853368Y-52216525D01*
X162646525Y-52423368D01*
X162524805Y-52605534D01*
X162455178Y-52488645D01*
X162260269Y-52272412D01*
X162026920Y-52098359D01*
X161764099Y-51973175D01*
X161616890Y-51928524D01*
X161387000Y-52049845D01*
X161387000Y-53243000D01*
X161407000Y-53243000D01*
X161407000Y-53497000D01*
X161387000Y-53497000D01*
X161387000Y-53517000D01*
X161133000Y-53517000D01*
X161133000Y-53497000D01*
X161113000Y-53497000D01*
X161113000Y-53243000D01*
X161133000Y-53243000D01*
X161133000Y-52049845D01*
X160903110Y-51928524D01*
X160755901Y-51973175D01*
X160493080Y-52098359D01*
X160259731Y-52272412D01*
X160064822Y-52488645D01*
X159995195Y-52605534D01*
X159873475Y-52423368D01*
X159666632Y-52216525D01*
X159423411Y-52054010D01*
X159153158Y-51942068D01*
X158866260Y-51885000D01*
X158573740Y-51885000D01*
X158286842Y-51942068D01*
X158016589Y-52054010D01*
X157773368Y-52216525D01*
X157566525Y-52423368D01*
X157444805Y-52605534D01*
X157375178Y-52488645D01*
X157180269Y-52272412D01*
X156946920Y-52098359D01*
X156684099Y-51973175D01*
X156536890Y-51928524D01*
X156307000Y-52049845D01*
X156307000Y-53243000D01*
X156327000Y-53243000D01*
X156327000Y-53497000D01*
X156307000Y-53497000D01*
X156307000Y-53517000D01*
X156053000Y-53517000D01*
X156053000Y-53497000D01*
X156033000Y-53497000D01*
X156033000Y-53243000D01*
X156053000Y-53243000D01*
X156053000Y-52049845D01*
X155823110Y-51928524D01*
X155675901Y-51973175D01*
X155413080Y-52098359D01*
X155179731Y-52272412D01*
X154984822Y-52488645D01*
X154915195Y-52605534D01*
X154793475Y-52423368D01*
X154586632Y-52216525D01*
X154343411Y-52054010D01*
X154073158Y-51942068D01*
X153786260Y-51885000D01*
X153493740Y-51885000D01*
X153206842Y-51942068D01*
X152936589Y-52054010D01*
X152693368Y-52216525D01*
X152486525Y-52423368D01*
X152370000Y-52597760D01*
X152253475Y-52423368D01*
X152046632Y-52216525D01*
X151803411Y-52054010D01*
X151533158Y-51942068D01*
X151246260Y-51885000D01*
X150953740Y-51885000D01*
X150666842Y-51942068D01*
X150396589Y-52054010D01*
X150153368Y-52216525D01*
X149946525Y-52423368D01*
X149830000Y-52597760D01*
X149713475Y-52423368D01*
X149506632Y-52216525D01*
X149263411Y-52054010D01*
X148993158Y-51942068D01*
X148706260Y-51885000D01*
X148413740Y-51885000D01*
X148126842Y-51942068D01*
X147856589Y-52054010D01*
X147613368Y-52216525D01*
X147406525Y-52423368D01*
X147290000Y-52597760D01*
X147173475Y-52423368D01*
X146966632Y-52216525D01*
X146723411Y-52054010D01*
X146453158Y-51942068D01*
X146166260Y-51885000D01*
X145873740Y-51885000D01*
X145586842Y-51942068D01*
X145316589Y-52054010D01*
X145073368Y-52216525D01*
X144866525Y-52423368D01*
X144744805Y-52605534D01*
X144675178Y-52488645D01*
X144480269Y-52272412D01*
X144246920Y-52098359D01*
X143984099Y-51973175D01*
X143836890Y-51928524D01*
X143607000Y-52049845D01*
X143607000Y-53243000D01*
X143627000Y-53243000D01*
X143627000Y-53497000D01*
X143607000Y-53497000D01*
X143607000Y-53517000D01*
X143353000Y-53517000D01*
X143353000Y-53497000D01*
X143333000Y-53497000D01*
X143333000Y-53243000D01*
X143353000Y-53243000D01*
X143353000Y-52049845D01*
X143123110Y-51928524D01*
X142975901Y-51973175D01*
X142713080Y-52098359D01*
X142479731Y-52272412D01*
X142284822Y-52488645D01*
X142215195Y-52605534D01*
X142093475Y-52423368D01*
X141886632Y-52216525D01*
X141643411Y-52054010D01*
X141373158Y-51942068D01*
X141086260Y-51885000D01*
X140793740Y-51885000D01*
X140506842Y-51942068D01*
X140236589Y-52054010D01*
X139993368Y-52216525D01*
X139786525Y-52423368D01*
X139670000Y-52597760D01*
X139553475Y-52423368D01*
X139346632Y-52216525D01*
X139103411Y-52054010D01*
X138833158Y-51942068D01*
X138546260Y-51885000D01*
X138253740Y-51885000D01*
X137966842Y-51942068D01*
X137696589Y-52054010D01*
X137453368Y-52216525D01*
X137246525Y-52423368D01*
X137124805Y-52605534D01*
X137055178Y-52488645D01*
X136860269Y-52272412D01*
X136626920Y-52098359D01*
X136364099Y-51973175D01*
X136216890Y-51928524D01*
X135987000Y-52049845D01*
X135987000Y-53243000D01*
X136007000Y-53243000D01*
X136007000Y-53497000D01*
X135987000Y-53497000D01*
X135987000Y-53517000D01*
X135733000Y-53517000D01*
X135733000Y-53497000D01*
X135713000Y-53497000D01*
X135713000Y-53243000D01*
X135733000Y-53243000D01*
X135733000Y-52049845D01*
X135503110Y-51928524D01*
X135355901Y-51973175D01*
X135093080Y-52098359D01*
X134859731Y-52272412D01*
X134664822Y-52488645D01*
X134595195Y-52605534D01*
X134473475Y-52423368D01*
X134266632Y-52216525D01*
X134023411Y-52054010D01*
X133753158Y-51942068D01*
X133466260Y-51885000D01*
X133173740Y-51885000D01*
X132886842Y-51942068D01*
X132616589Y-52054010D01*
X132373368Y-52216525D01*
X132166525Y-52423368D01*
X132050000Y-52597760D01*
X131933475Y-52423368D01*
X131726632Y-52216525D01*
X131483411Y-52054010D01*
X131213158Y-51942068D01*
X130926260Y-51885000D01*
X130633740Y-51885000D01*
X130346842Y-51942068D01*
X130076589Y-52054010D01*
X129833368Y-52216525D01*
X129626525Y-52423368D01*
X129510000Y-52597760D01*
X129393475Y-52423368D01*
X129186632Y-52216525D01*
X128943411Y-52054010D01*
X128673158Y-51942068D01*
X128386260Y-51885000D01*
X128093740Y-51885000D01*
X127806842Y-51942068D01*
X127536589Y-52054010D01*
X127293368Y-52216525D01*
X127086525Y-52423368D01*
X126964805Y-52605534D01*
X126895178Y-52488645D01*
X126700269Y-52272412D01*
X126466920Y-52098359D01*
X126204099Y-51973175D01*
X126056890Y-51928524D01*
X125827000Y-52049845D01*
X125827000Y-53243000D01*
X125847000Y-53243000D01*
X125847000Y-53497000D01*
X125827000Y-53497000D01*
X125827000Y-53517000D01*
X125573000Y-53517000D01*
X125573000Y-53497000D01*
X125553000Y-53497000D01*
X125553000Y-53243000D01*
X125573000Y-53243000D01*
X125573000Y-52049845D01*
X125343110Y-51928524D01*
X125195901Y-51973175D01*
X124933080Y-52098359D01*
X124699731Y-52272412D01*
X124504822Y-52488645D01*
X124435195Y-52605534D01*
X124313475Y-52423368D01*
X124106632Y-52216525D01*
X123863411Y-52054010D01*
X123593158Y-51942068D01*
X123306260Y-51885000D01*
X123013740Y-51885000D01*
X122726842Y-51942068D01*
X122456589Y-52054010D01*
X122213368Y-52216525D01*
X122006525Y-52423368D01*
X121890000Y-52597760D01*
X121773475Y-52423368D01*
X121566632Y-52216525D01*
X121323411Y-52054010D01*
X121053158Y-51942068D01*
X120766260Y-51885000D01*
X120473740Y-51885000D01*
X120186842Y-51942068D01*
X119916589Y-52054010D01*
X119673368Y-52216525D01*
X119466525Y-52423368D01*
X119304010Y-52666589D01*
X119192068Y-52936842D01*
X119135000Y-53223740D01*
X119135000Y-53516260D01*
X119192068Y-53803158D01*
X119304010Y-54073411D01*
X119466525Y-54316632D01*
X119598380Y-54448487D01*
X119525820Y-54470498D01*
X119415506Y-54529463D01*
X119318815Y-54608815D01*
X119239463Y-54705506D01*
X119180498Y-54815820D01*
X119144188Y-54935518D01*
X119131928Y-55060000D01*
X117781856Y-55060000D01*
X117830000Y-54817968D01*
X117830000Y-54422032D01*
X117752757Y-54033704D01*
X117601239Y-53667908D01*
X117381269Y-53338699D01*
X117101301Y-53058731D01*
X116772092Y-52838761D01*
X116406296Y-52687243D01*
X116017968Y-52610000D01*
X115622032Y-52610000D01*
X115233704Y-52687243D01*
X114867908Y-52838761D01*
X114538699Y-53058731D01*
X114258731Y-53338699D01*
X114038761Y-53667908D01*
X113887243Y-54033704D01*
X113810000Y-54422032D01*
X113055000Y-54422032D01*
X113055000Y-54155947D01*
X113101594Y-53680745D01*
X113229162Y-53258219D01*
X113436369Y-52868518D01*
X113715324Y-52526487D01*
X114055399Y-52245151D01*
X114443644Y-52035229D01*
X114865265Y-51904715D01*
X115338274Y-51855000D01*
X174284053Y-51855000D01*
X174759255Y-51901594D01*
%TA.AperFunction,Conductor*%
D14*
G36*
X174759255Y-51901594D02*
G01*
X175181781Y-52029162D01*
X175571482Y-52236369D01*
X175913513Y-52515324D01*
X176194849Y-52855399D01*
X176404771Y-53243644D01*
X176535285Y-53665265D01*
X176585000Y-54138274D01*
X176585001Y-104084043D01*
X176538406Y-104559255D01*
X176410838Y-104981781D01*
X176203631Y-105371482D01*
X175924676Y-105713513D01*
X175584601Y-105994849D01*
X175196356Y-106204771D01*
X174774737Y-106335285D01*
X174301726Y-106385000D01*
X115355947Y-106385000D01*
X114880745Y-106338406D01*
X114458219Y-106210838D01*
X114068518Y-106003631D01*
X113726487Y-105724676D01*
X113445151Y-105384601D01*
X113235229Y-104996356D01*
X113104715Y-104574737D01*
X113055000Y-104101726D01*
X113055000Y-103422032D01*
X113810000Y-103422032D01*
X113810000Y-103817968D01*
X113887243Y-104206296D01*
X114038761Y-104572092D01*
X114258731Y-104901301D01*
X114538699Y-105181269D01*
X114867908Y-105401239D01*
X115233704Y-105552757D01*
X115622032Y-105630000D01*
X116017968Y-105630000D01*
X116406296Y-105552757D01*
X116772092Y-105401239D01*
X117101301Y-105181269D01*
X117381269Y-104901301D01*
X117601239Y-104572092D01*
X117752757Y-104206296D01*
X117830000Y-103817968D01*
X117830000Y-103422032D01*
X171810000Y-103422032D01*
X171810000Y-103817968D01*
X171887243Y-104206296D01*
X172038761Y-104572092D01*
X172258731Y-104901301D01*
X172538699Y-105181269D01*
X172867908Y-105401239D01*
X173233704Y-105552757D01*
X173622032Y-105630000D01*
X174017968Y-105630000D01*
X174406296Y-105552757D01*
X174772092Y-105401239D01*
X175101301Y-105181269D01*
X175381269Y-104901301D01*
X175601239Y-104572092D01*
X175752757Y-104206296D01*
X175830000Y-103817968D01*
X175830000Y-103422032D01*
X175752757Y-103033704D01*
X175601239Y-102667908D01*
X175381269Y-102338699D01*
X175101301Y-102058731D01*
X174772092Y-101838761D01*
X174406296Y-101687243D01*
X174017968Y-101610000D01*
X173622032Y-101610000D01*
X173233704Y-101687243D01*
X172867908Y-101838761D01*
X172538699Y-102058731D01*
X172258731Y-102338699D01*
X172038761Y-102667908D01*
X171887243Y-103033704D01*
X171810000Y-103422032D01*
X117830000Y-103422032D01*
X117752757Y-103033704D01*
X117601239Y-102667908D01*
X117381269Y-102338699D01*
X117101301Y-102058731D01*
X116772092Y-101838761D01*
X116406296Y-101687243D01*
X116017968Y-101610000D01*
X115622032Y-101610000D01*
X115233704Y-101687243D01*
X114867908Y-101838761D01*
X114538699Y-102058731D01*
X114258731Y-102338699D01*
X114038761Y-102667908D01*
X113887243Y-103033704D01*
X113810000Y-103422032D01*
X113055000Y-103422032D01*
X113055000Y-97506997D01*
X147944990Y-97506997D01*
X147944990Y-97691175D01*
X147980922Y-97871815D01*
X148051404Y-98041975D01*
X148153728Y-98195114D01*
X148283962Y-98325348D01*
X148437101Y-98427672D01*
X148607261Y-98498154D01*
X148787901Y-98534086D01*
X148972079Y-98534086D01*
X149152719Y-98498154D01*
X149322879Y-98427672D01*
X149476018Y-98325348D01*
X149606252Y-98195114D01*
X149708576Y-98041975D01*
X149779058Y-97871815D01*
X149814990Y-97691175D01*
X149814990Y-97506997D01*
X149779058Y-97326357D01*
X149708576Y-97156197D01*
X149606252Y-97003058D01*
X149476018Y-96872824D01*
X149322879Y-96770500D01*
X149152719Y-96700018D01*
X148972079Y-96664086D01*
X148787901Y-96664086D01*
X148607261Y-96700018D01*
X148437101Y-96770500D01*
X148283962Y-96872824D01*
X148153728Y-97003058D01*
X148051404Y-97156197D01*
X147980922Y-97326357D01*
X147944990Y-97506997D01*
X113055000Y-97506997D01*
X113055000Y-88187911D01*
X125604990Y-88187911D01*
X125604990Y-88372089D01*
X125640922Y-88552729D01*
X125711404Y-88722889D01*
X125813728Y-88876028D01*
X125943962Y-89006262D01*
X126097101Y-89108586D01*
X126267261Y-89179068D01*
X126447901Y-89215000D01*
X126632079Y-89215000D01*
X126812719Y-89179068D01*
X126982879Y-89108586D01*
X127136018Y-89006262D01*
X127266252Y-88876028D01*
X127368576Y-88722889D01*
X127439058Y-88552729D01*
X127474990Y-88372089D01*
X127474990Y-88187911D01*
X127439058Y-88007271D01*
X127368576Y-87837111D01*
X127266252Y-87683972D01*
X127136018Y-87553738D01*
X126982879Y-87451414D01*
X126812719Y-87380932D01*
X126632079Y-87345000D01*
X126447901Y-87345000D01*
X126267261Y-87380932D01*
X126097101Y-87451414D01*
X125943962Y-87553738D01*
X125813728Y-87683972D01*
X125711404Y-87837111D01*
X125640922Y-88007271D01*
X125604990Y-88187911D01*
X113055000Y-88187911D01*
X113055000Y-83227911D01*
X135855000Y-83227911D01*
X135855000Y-83412089D01*
X135890932Y-83592729D01*
X135961414Y-83762889D01*
X136063738Y-83916028D01*
X136193972Y-84046262D01*
X136347111Y-84148586D01*
X136517271Y-84219068D01*
X136697911Y-84255000D01*
X136882089Y-84255000D01*
X137062729Y-84219068D01*
X137232889Y-84148586D01*
X137386028Y-84046262D01*
X137516262Y-83916028D01*
X137618586Y-83762889D01*
X137689068Y-83592729D01*
X137725000Y-83412089D01*
X137725000Y-83227911D01*
X137689068Y-83047271D01*
X137618586Y-82877111D01*
X137516262Y-82723972D01*
X137408006Y-82615716D01*
X143580231Y-82615716D01*
X143580231Y-82799894D01*
X143616163Y-82980534D01*
X143686645Y-83150694D01*
X143788969Y-83303833D01*
X143919203Y-83434067D01*
X144072342Y-83536391D01*
X144242502Y-83606873D01*
X144423142Y-83642805D01*
X144607320Y-83642805D01*
X144787960Y-83606873D01*
X144958120Y-83536391D01*
X145111259Y-83434067D01*
X145241493Y-83303833D01*
X145343817Y-83150694D01*
X145414299Y-82980534D01*
X145450231Y-82799894D01*
X145450231Y-82705855D01*
X145668430Y-82705855D01*
X145668430Y-82890033D01*
X145704362Y-83070673D01*
X145774844Y-83240833D01*
X145877168Y-83393972D01*
X146007402Y-83524206D01*
X146160541Y-83626530D01*
X146330701Y-83697012D01*
X146511341Y-83732944D01*
X146695519Y-83732944D01*
X146876159Y-83697012D01*
X147046319Y-83626530D01*
X147199458Y-83524206D01*
X147248664Y-83475000D01*
X152036928Y-83475000D01*
X152049188Y-83599482D01*
X152085498Y-83719180D01*
X152144463Y-83829494D01*
X152223815Y-83926185D01*
X152320506Y-84005537D01*
X152430820Y-84064502D01*
X152550518Y-84100812D01*
X152675000Y-84113072D01*
X153239250Y-84110000D01*
X153398000Y-83951250D01*
X153398000Y-82752000D01*
X152198750Y-82752000D01*
X152040000Y-82910750D01*
X152036928Y-83475000D01*
X147248664Y-83475000D01*
X147329692Y-83393972D01*
X147432016Y-83240833D01*
X147502498Y-83070673D01*
X147538430Y-82890033D01*
X147538430Y-82705855D01*
X147502498Y-82525215D01*
X147432016Y-82355055D01*
X147329692Y-82201916D01*
X147199458Y-82071682D01*
X147046319Y-81969358D01*
X146876159Y-81898876D01*
X146695519Y-81862944D01*
X146511341Y-81862944D01*
X146330701Y-81898876D01*
X146160541Y-81969358D01*
X146007402Y-82071682D01*
X145877168Y-82201916D01*
X145774844Y-82355055D01*
X145704362Y-82525215D01*
X145668430Y-82705855D01*
X145450231Y-82705855D01*
X145450231Y-82615716D01*
X145414299Y-82435076D01*
X145343817Y-82264916D01*
X145241493Y-82111777D01*
X145111259Y-81981543D01*
X144958120Y-81879219D01*
X144787960Y-81808737D01*
X144618355Y-81775000D01*
X152036928Y-81775000D01*
X152040000Y-82339250D01*
X152198750Y-82498000D01*
X153398000Y-82498000D01*
X153398000Y-82478000D01*
X153652000Y-82478000D01*
X153652000Y-82498000D01*
X153672000Y-82498000D01*
X153672000Y-82752000D01*
X153652000Y-82752000D01*
X153652000Y-83951250D01*
X153810750Y-84110000D01*
X154375000Y-84113072D01*
X154499482Y-84100812D01*
X154619180Y-84064502D01*
X154729494Y-84005537D01*
X154826185Y-83926185D01*
X154905537Y-83829494D01*
X154964502Y-83719180D01*
X154986513Y-83646620D01*
X155118368Y-83778475D01*
X155361589Y-83940990D01*
X155631842Y-84052932D01*
X155918740Y-84110000D01*
X156211260Y-84110000D01*
X156498158Y-84052932D01*
X156768411Y-83940990D01*
X157011632Y-83778475D01*
X157218475Y-83571632D01*
X157380990Y-83328411D01*
X157492932Y-83058158D01*
X157550000Y-82771260D01*
X157550000Y-82478740D01*
X157492932Y-82191842D01*
X157380990Y-81921589D01*
X157218475Y-81678368D01*
X157011632Y-81471525D01*
X156837240Y-81355000D01*
X157011632Y-81238475D01*
X157218475Y-81031632D01*
X157380990Y-80788411D01*
X157492932Y-80518158D01*
X157550000Y-80231260D01*
X157550000Y-79938740D01*
X157492932Y-79651842D01*
X157380990Y-79381589D01*
X157218475Y-79138368D01*
X157011632Y-78931525D01*
X156837240Y-78815000D01*
X157011632Y-78698475D01*
X157218475Y-78491632D01*
X157380990Y-78248411D01*
X157492932Y-77978158D01*
X157550000Y-77691260D01*
X157550000Y-77398740D01*
X157492932Y-77111842D01*
X157380990Y-76841589D01*
X157218475Y-76598368D01*
X157196069Y-76575962D01*
X157773051Y-76575962D01*
X157773051Y-76760140D01*
X157808983Y-76940780D01*
X157879465Y-77110940D01*
X157981789Y-77264079D01*
X158112023Y-77394313D01*
X158265162Y-77496637D01*
X158435322Y-77567119D01*
X158615962Y-77603051D01*
X158800140Y-77603051D01*
X158980780Y-77567119D01*
X159150940Y-77496637D01*
X159304079Y-77394313D01*
X159434313Y-77264079D01*
X159536637Y-77110940D01*
X159607119Y-76940780D01*
X159643051Y-76760140D01*
X159643051Y-76575962D01*
X159607119Y-76395322D01*
X159536637Y-76225162D01*
X159434313Y-76072023D01*
X159304079Y-75941789D01*
X159150940Y-75839465D01*
X158980780Y-75768983D01*
X158800140Y-75733051D01*
X158615962Y-75733051D01*
X158435322Y-75768983D01*
X158265162Y-75839465D01*
X158112023Y-75941789D01*
X157981789Y-76072023D01*
X157879465Y-76225162D01*
X157808983Y-76395322D01*
X157773051Y-76575962D01*
X157196069Y-76575962D01*
X157011632Y-76391525D01*
X156768411Y-76229010D01*
X156498158Y-76117068D01*
X156211260Y-76060000D01*
X155918740Y-76060000D01*
X155631842Y-76117068D01*
X155361589Y-76229010D01*
X155118368Y-76391525D01*
X154911525Y-76598368D01*
X154795000Y-76772760D01*
X154678475Y-76598368D01*
X154471632Y-76391525D01*
X154228411Y-76229010D01*
X153958158Y-76117068D01*
X153671260Y-76060000D01*
X153378740Y-76060000D01*
X153091842Y-76117068D01*
X152821589Y-76229010D01*
X152578368Y-76391525D01*
X152371525Y-76598368D01*
X152209010Y-76841589D01*
X152097068Y-77111842D01*
X152040000Y-77398740D01*
X152040000Y-77691260D01*
X152097068Y-77978158D01*
X152209010Y-78248411D01*
X152371525Y-78491632D01*
X152578368Y-78698475D01*
X152752760Y-78815000D01*
X152578368Y-78931525D01*
X152371525Y-79138368D01*
X152209010Y-79381589D01*
X152097068Y-79651842D01*
X152040000Y-79938740D01*
X152040000Y-80231260D01*
X152097068Y-80518158D01*
X152209010Y-80788411D01*
X152371525Y-81031632D01*
X152503380Y-81163487D01*
X152430820Y-81185498D01*
X152320506Y-81244463D01*
X152223815Y-81323815D01*
X152144463Y-81420506D01*
X152085498Y-81530820D01*
X152049188Y-81650518D01*
X152036928Y-81775000D01*
X144618355Y-81775000D01*
X144607320Y-81772805D01*
X144423142Y-81772805D01*
X144242502Y-81808737D01*
X144072342Y-81879219D01*
X143919203Y-81981543D01*
X143788969Y-82111777D01*
X143686645Y-82264916D01*
X143616163Y-82435076D01*
X143580231Y-82615716D01*
X137408006Y-82615716D01*
X137386028Y-82593738D01*
X137232889Y-82491414D01*
X137062729Y-82420932D01*
X136882089Y-82385000D01*
X136697911Y-82385000D01*
X136517271Y-82420932D01*
X136347111Y-82491414D01*
X136193972Y-82593738D01*
X136063738Y-82723972D01*
X135961414Y-82877111D01*
X135890932Y-83047271D01*
X135855000Y-83227911D01*
X113055000Y-83227911D01*
X113055000Y-80627911D01*
X142965000Y-80627911D01*
X142965000Y-80812089D01*
X143000932Y-80992729D01*
X143071414Y-81162889D01*
X143173738Y-81316028D01*
X143303972Y-81446262D01*
X143457111Y-81548586D01*
X143627271Y-81619068D01*
X143807911Y-81655000D01*
X143992089Y-81655000D01*
X144172729Y-81619068D01*
X144342889Y-81548586D01*
X144496028Y-81446262D01*
X144626262Y-81316028D01*
X144728586Y-81162889D01*
X144799068Y-80992729D01*
X144835000Y-80812089D01*
X144835000Y-80627911D01*
X144799068Y-80447271D01*
X144766215Y-80367956D01*
X144824409Y-80367956D01*
X144824409Y-80552134D01*
X144860341Y-80732774D01*
X144930823Y-80902934D01*
X145033147Y-81056073D01*
X145163381Y-81186307D01*
X145316520Y-81288631D01*
X145486680Y-81359113D01*
X145667320Y-81395045D01*
X145851498Y-81395045D01*
X146032138Y-81359113D01*
X146202298Y-81288631D01*
X146355437Y-81186307D01*
X146485671Y-81056073D01*
X146587995Y-80902934D01*
X146643043Y-80770035D01*
X146649137Y-80770035D01*
X146829777Y-80734103D01*
X146999937Y-80663621D01*
X147153076Y-80561297D01*
X147283310Y-80431063D01*
X147385634Y-80277924D01*
X147456116Y-80107764D01*
X147492048Y-79927124D01*
X147492048Y-79742946D01*
X147456116Y-79562306D01*
X147385634Y-79392146D01*
X147283310Y-79239007D01*
X147153076Y-79108773D01*
X146999937Y-79006449D01*
X146829777Y-78935967D01*
X146649137Y-78900035D01*
X146464959Y-78900035D01*
X146284319Y-78935967D01*
X146114159Y-79006449D01*
X145961020Y-79108773D01*
X145830786Y-79239007D01*
X145728462Y-79392146D01*
X145673414Y-79525045D01*
X145667320Y-79525045D01*
X145486680Y-79560977D01*
X145316520Y-79631459D01*
X145163381Y-79733783D01*
X145033147Y-79864017D01*
X144930823Y-80017156D01*
X144860341Y-80187316D01*
X144824409Y-80367956D01*
X144766215Y-80367956D01*
X144728586Y-80277111D01*
X144626262Y-80123972D01*
X144516613Y-80014323D01*
X144602889Y-79978586D01*
X144756028Y-79876262D01*
X144886262Y-79746028D01*
X144988586Y-79592889D01*
X145059068Y-79422729D01*
X145095000Y-79242089D01*
X145095000Y-79057911D01*
X145059068Y-78877271D01*
X144988586Y-78707111D01*
X144886262Y-78553972D01*
X144756028Y-78423738D01*
X144602889Y-78321414D01*
X144432729Y-78250932D01*
X144252089Y-78215000D01*
X144067911Y-78215000D01*
X143887271Y-78250932D01*
X143717111Y-78321414D01*
X143563972Y-78423738D01*
X143433738Y-78553972D01*
X143331414Y-78707111D01*
X143260932Y-78877271D01*
X143225000Y-79057911D01*
X143225000Y-79242089D01*
X143260932Y-79422729D01*
X143331414Y-79592889D01*
X143433738Y-79746028D01*
X143543387Y-79855677D01*
X143457111Y-79891414D01*
X143303972Y-79993738D01*
X143173738Y-80123972D01*
X143071414Y-80277111D01*
X143000932Y-80447271D01*
X142965000Y-80627911D01*
X113055000Y-80627911D01*
X113055000Y-79017911D01*
X124105000Y-79017911D01*
X124105000Y-79202089D01*
X124140932Y-79382729D01*
X124211414Y-79552889D01*
X124313738Y-79706028D01*
X124443972Y-79836262D01*
X124597111Y-79938586D01*
X124767271Y-80009068D01*
X124947911Y-80045000D01*
X125132089Y-80045000D01*
X125312729Y-80009068D01*
X125482889Y-79938586D01*
X125636028Y-79836262D01*
X125766262Y-79706028D01*
X125868586Y-79552889D01*
X125939068Y-79382729D01*
X125975000Y-79202089D01*
X125975000Y-79017911D01*
X125939068Y-78837271D01*
X125868586Y-78667111D01*
X125849076Y-78637911D01*
X127255000Y-78637911D01*
X127255000Y-78822089D01*
X127290932Y-79002729D01*
X127361414Y-79172889D01*
X127463738Y-79326028D01*
X127593972Y-79456262D01*
X127747111Y-79558586D01*
X127917271Y-79629068D01*
X128097911Y-79665000D01*
X128282089Y-79665000D01*
X128462729Y-79629068D01*
X128632889Y-79558586D01*
X128786028Y-79456262D01*
X128916262Y-79326028D01*
X129018586Y-79172889D01*
X129089068Y-79002729D01*
X129125000Y-78822089D01*
X129125000Y-78637911D01*
X129089068Y-78457271D01*
X129018586Y-78287111D01*
X128916262Y-78133972D01*
X128786028Y-78003738D01*
X128632889Y-77901414D01*
X128462729Y-77830932D01*
X128282089Y-77795000D01*
X128097911Y-77795000D01*
X127917271Y-77830932D01*
X127747111Y-77901414D01*
X127593972Y-78003738D01*
X127463738Y-78133972D01*
X127361414Y-78287111D01*
X127290932Y-78457271D01*
X127255000Y-78637911D01*
X125849076Y-78637911D01*
X125766262Y-78513972D01*
X125636028Y-78383738D01*
X125482889Y-78281414D01*
X125312729Y-78210932D01*
X125132089Y-78175000D01*
X124947911Y-78175000D01*
X124767271Y-78210932D01*
X124597111Y-78281414D01*
X124443972Y-78383738D01*
X124313738Y-78513972D01*
X124211414Y-78667111D01*
X124140932Y-78837271D01*
X124105000Y-79017911D01*
X113055000Y-79017911D01*
X113055000Y-77344348D01*
X145455010Y-77344348D01*
X145455010Y-77528526D01*
X145490942Y-77709166D01*
X145561424Y-77879326D01*
X145663748Y-78032465D01*
X145793982Y-78162699D01*
X145947121Y-78265023D01*
X146117281Y-78335505D01*
X146297921Y-78371437D01*
X146482099Y-78371437D01*
X146662739Y-78335505D01*
X146832899Y-78265023D01*
X146986038Y-78162699D01*
X147116272Y-78032465D01*
X147218596Y-77879326D01*
X147289078Y-77709166D01*
X147325010Y-77528526D01*
X147325010Y-77344348D01*
X147289078Y-77163708D01*
X147218596Y-76993548D01*
X147116272Y-76840409D01*
X146986038Y-76710175D01*
X146832899Y-76607851D01*
X146662739Y-76537369D01*
X146482099Y-76501437D01*
X146297921Y-76501437D01*
X146117281Y-76537369D01*
X145947121Y-76607851D01*
X145793982Y-76710175D01*
X145663748Y-76840409D01*
X145561424Y-76993548D01*
X145490942Y-77163708D01*
X145455010Y-77344348D01*
X113055000Y-77344348D01*
X113055000Y-75141214D01*
X143103378Y-75141214D01*
X143103378Y-75325392D01*
X143139310Y-75506032D01*
X143209792Y-75676192D01*
X143312116Y-75829331D01*
X143442350Y-75959565D01*
X143595489Y-76061889D01*
X143765649Y-76132371D01*
X143946289Y-76168303D01*
X144130467Y-76168303D01*
X144311107Y-76132371D01*
X144481267Y-76061889D01*
X144634406Y-75959565D01*
X144764640Y-75829331D01*
X144866964Y-75676192D01*
X144937446Y-75506032D01*
X144973378Y-75325392D01*
X144973378Y-75141214D01*
X144937446Y-74960574D01*
X144866964Y-74790414D01*
X144764640Y-74637275D01*
X144655276Y-74527911D01*
X146335000Y-74527911D01*
X146335000Y-74712089D01*
X146370932Y-74892729D01*
X146441414Y-75062889D01*
X146543738Y-75216028D01*
X146673972Y-75346262D01*
X146827111Y-75448586D01*
X146997271Y-75519068D01*
X147177911Y-75555000D01*
X147362089Y-75555000D01*
X147542729Y-75519068D01*
X147712889Y-75448586D01*
X147866028Y-75346262D01*
X147996262Y-75216028D01*
X148098586Y-75062889D01*
X148169068Y-74892729D01*
X148205000Y-74712089D01*
X148205000Y-74527911D01*
X148169068Y-74347271D01*
X148098586Y-74177111D01*
X147996262Y-74023972D01*
X147866028Y-73893738D01*
X147712889Y-73791414D01*
X147542729Y-73720932D01*
X147362089Y-73685000D01*
X147177911Y-73685000D01*
X146997271Y-73720932D01*
X146827111Y-73791414D01*
X146673972Y-73893738D01*
X146543738Y-74023972D01*
X146441414Y-74177111D01*
X146370932Y-74347271D01*
X146335000Y-74527911D01*
X144655276Y-74527911D01*
X144634406Y-74507041D01*
X144481267Y-74404717D01*
X144311107Y-74334235D01*
X144130467Y-74298303D01*
X143946289Y-74298303D01*
X143765649Y-74334235D01*
X143595489Y-74404717D01*
X143442350Y-74507041D01*
X143312116Y-74637275D01*
X143209792Y-74790414D01*
X143139310Y-74960574D01*
X143103378Y-75141214D01*
X113055000Y-75141214D01*
X113055000Y-73859860D01*
X123113051Y-73859860D01*
X123113051Y-74044038D01*
X123148983Y-74224678D01*
X123219465Y-74394838D01*
X123321789Y-74547977D01*
X123452023Y-74678211D01*
X123605162Y-74780535D01*
X123775322Y-74851017D01*
X123955962Y-74886949D01*
X124140140Y-74886949D01*
X124320780Y-74851017D01*
X124490940Y-74780535D01*
X124644079Y-74678211D01*
X124774313Y-74547977D01*
X124876637Y-74394838D01*
X124947119Y-74224678D01*
X124983051Y-74044038D01*
X124983051Y-73859860D01*
X124968740Y-73787911D01*
X128795000Y-73787911D01*
X128795000Y-73972089D01*
X128830932Y-74152729D01*
X128901414Y-74322889D01*
X129003738Y-74476028D01*
X129133972Y-74606262D01*
X129287111Y-74708586D01*
X129457271Y-74779068D01*
X129637911Y-74815000D01*
X129822089Y-74815000D01*
X130002729Y-74779068D01*
X130172889Y-74708586D01*
X130326028Y-74606262D01*
X130456262Y-74476028D01*
X130558586Y-74322889D01*
X130629068Y-74152729D01*
X130665000Y-73972089D01*
X130665000Y-73787911D01*
X130629068Y-73607271D01*
X130558586Y-73437111D01*
X130456262Y-73283972D01*
X130326028Y-73153738D01*
X130172889Y-73051414D01*
X130002729Y-72980932D01*
X129822089Y-72945000D01*
X129637911Y-72945000D01*
X129457271Y-72980932D01*
X129287111Y-73051414D01*
X129133972Y-73153738D01*
X129003738Y-73283972D01*
X128901414Y-73437111D01*
X128830932Y-73607271D01*
X128795000Y-73787911D01*
X124968740Y-73787911D01*
X124947119Y-73679220D01*
X124876637Y-73509060D01*
X124774313Y-73355921D01*
X124644079Y-73225687D01*
X124490940Y-73123363D01*
X124320780Y-73052881D01*
X124140140Y-73016949D01*
X123955962Y-73016949D01*
X123775322Y-73052881D01*
X123605162Y-73123363D01*
X123452023Y-73225687D01*
X123321789Y-73355921D01*
X123219465Y-73509060D01*
X123148983Y-73679220D01*
X123113051Y-73859860D01*
X113055000Y-73859860D01*
X113055000Y-69747911D01*
X124495000Y-69747911D01*
X124495000Y-69932089D01*
X124530932Y-70112729D01*
X124601414Y-70282889D01*
X124703738Y-70436028D01*
X124833972Y-70566262D01*
X124987111Y-70668586D01*
X125157271Y-70739068D01*
X125337911Y-70775000D01*
X125522089Y-70775000D01*
X125702729Y-70739068D01*
X125872889Y-70668586D01*
X126026028Y-70566262D01*
X126156262Y-70436028D01*
X126258586Y-70282889D01*
X126329068Y-70112729D01*
X126365000Y-69932089D01*
X126365000Y-69747911D01*
X126329068Y-69567271D01*
X126258586Y-69397111D01*
X126156262Y-69243972D01*
X126026028Y-69113738D01*
X125872889Y-69011414D01*
X125702729Y-68940932D01*
X125522089Y-68905000D01*
X125337911Y-68905000D01*
X125157271Y-68940932D01*
X124987111Y-69011414D01*
X124833972Y-69113738D01*
X124703738Y-69243972D01*
X124601414Y-69397111D01*
X124530932Y-69567271D01*
X124495000Y-69747911D01*
X113055000Y-69747911D01*
X113055000Y-65197911D01*
X121555000Y-65197911D01*
X121555000Y-65382089D01*
X121590932Y-65562729D01*
X121661414Y-65732889D01*
X121763738Y-65886028D01*
X121893972Y-66016262D01*
X122047111Y-66118586D01*
X122217271Y-66189068D01*
X122397911Y-66225000D01*
X122582089Y-66225000D01*
X122762729Y-66189068D01*
X122932889Y-66118586D01*
X123086028Y-66016262D01*
X123216262Y-65886028D01*
X123271327Y-65803617D01*
X123363972Y-65896262D01*
X123517111Y-65998586D01*
X123687271Y-66069068D01*
X123867911Y-66105000D01*
X124052089Y-66105000D01*
X124232729Y-66069068D01*
X124402889Y-65998586D01*
X124556028Y-65896262D01*
X124686262Y-65766028D01*
X124686531Y-65765625D01*
X124767271Y-65799068D01*
X124947911Y-65835000D01*
X125132089Y-65835000D01*
X125312729Y-65799068D01*
X125482889Y-65728586D01*
X125636028Y-65626262D01*
X125766262Y-65496028D01*
X125868586Y-65342889D01*
X125927881Y-65199735D01*
X127526753Y-65199735D01*
X127526753Y-65383913D01*
X127562685Y-65564553D01*
X127633167Y-65734713D01*
X127735491Y-65887852D01*
X127865725Y-66018086D01*
X128018864Y-66120410D01*
X128189024Y-66190892D01*
X128369664Y-66226824D01*
X128379174Y-66226824D01*
X128308962Y-66273738D01*
X128178728Y-66403972D01*
X128076404Y-66557111D01*
X128005922Y-66727271D01*
X127969990Y-66907911D01*
X127969990Y-67092089D01*
X128005922Y-67272729D01*
X128011504Y-67286206D01*
X127913738Y-67383972D01*
X127811414Y-67537111D01*
X127740932Y-67707271D01*
X127705000Y-67887911D01*
X127705000Y-68072089D01*
X127740932Y-68252729D01*
X127811414Y-68422889D01*
X127913738Y-68576028D01*
X128043972Y-68706262D01*
X128197111Y-68808586D01*
X128367271Y-68879068D01*
X128547911Y-68915000D01*
X128732089Y-68915000D01*
X128912729Y-68879068D01*
X129082889Y-68808586D01*
X129102915Y-68795205D01*
X129125921Y-68818211D01*
X129279060Y-68920535D01*
X129449220Y-68991017D01*
X129629860Y-69026949D01*
X129814038Y-69026949D01*
X129994678Y-68991017D01*
X130164838Y-68920535D01*
X130317977Y-68818211D01*
X130448211Y-68687977D01*
X130550535Y-68534838D01*
X130621017Y-68364678D01*
X130656949Y-68184038D01*
X130656949Y-67999860D01*
X130621017Y-67819220D01*
X130550535Y-67649060D01*
X130543086Y-67637911D01*
X132405000Y-67637911D01*
X132405000Y-67822089D01*
X132440932Y-68002729D01*
X132511414Y-68172889D01*
X132613738Y-68326028D01*
X132743972Y-68456262D01*
X132897111Y-68558586D01*
X133067271Y-68629068D01*
X133247911Y-68665000D01*
X133432089Y-68665000D01*
X133612729Y-68629068D01*
X133782889Y-68558586D01*
X133936028Y-68456262D01*
X134066262Y-68326028D01*
X134168586Y-68172889D01*
X134239068Y-68002729D01*
X134275000Y-67822089D01*
X134275000Y-67637911D01*
X134239068Y-67457271D01*
X134168586Y-67287111D01*
X134164847Y-67281514D01*
X135544968Y-67281514D01*
X135544968Y-67465692D01*
X135580900Y-67646332D01*
X135651382Y-67816492D01*
X135753706Y-67969631D01*
X135883940Y-68099865D01*
X136037079Y-68202189D01*
X136207239Y-68272671D01*
X136387879Y-68308603D01*
X136572057Y-68308603D01*
X136752697Y-68272671D01*
X136922857Y-68202189D01*
X137075996Y-68099865D01*
X137206230Y-67969631D01*
X137308554Y-67816492D01*
X137379036Y-67646332D01*
X137414968Y-67465692D01*
X137414968Y-67281514D01*
X137379036Y-67100874D01*
X137308554Y-66930714D01*
X137206230Y-66777575D01*
X137075996Y-66647341D01*
X136922857Y-66545017D01*
X136752697Y-66474535D01*
X136572057Y-66438603D01*
X136387879Y-66438603D01*
X136207239Y-66474535D01*
X136037079Y-66545017D01*
X135883940Y-66647341D01*
X135753706Y-66777575D01*
X135651382Y-66930714D01*
X135580900Y-67100874D01*
X135544968Y-67281514D01*
X134164847Y-67281514D01*
X134066262Y-67133972D01*
X133936028Y-67003738D01*
X133782889Y-66901414D01*
X133612729Y-66830932D01*
X133432089Y-66795000D01*
X133247911Y-66795000D01*
X133067271Y-66830932D01*
X132897111Y-66901414D01*
X132743972Y-67003738D01*
X132613738Y-67133972D01*
X132511414Y-67287111D01*
X132440932Y-67457271D01*
X132405000Y-67637911D01*
X130543086Y-67637911D01*
X130448211Y-67495921D01*
X130317977Y-67365687D01*
X130164838Y-67263363D01*
X129994678Y-67192881D01*
X129826592Y-67159446D01*
X129839990Y-67092089D01*
X129839990Y-66907911D01*
X129804058Y-66727271D01*
X129733576Y-66557111D01*
X129631252Y-66403972D01*
X129501018Y-66273738D01*
X129347879Y-66171414D01*
X129177719Y-66100932D01*
X128997079Y-66065000D01*
X128987569Y-66065000D01*
X129057781Y-66018086D01*
X129134675Y-65941192D01*
X129301999Y-65941192D01*
X129482639Y-65905260D01*
X129652799Y-65834778D01*
X129805938Y-65732454D01*
X129936172Y-65602220D01*
X130038496Y-65449081D01*
X130108111Y-65281012D01*
X138885021Y-65281012D01*
X138885021Y-65465190D01*
X138920953Y-65645830D01*
X138991435Y-65815990D01*
X139093759Y-65969129D01*
X139223993Y-66099363D01*
X139377132Y-66201687D01*
X139547292Y-66272169D01*
X139575483Y-66277777D01*
X139539988Y-66456220D01*
X139539988Y-66640398D01*
X139575920Y-66821038D01*
X139646402Y-66991198D01*
X139748726Y-67144337D01*
X139878960Y-67274571D01*
X140032099Y-67376895D01*
X140202259Y-67447377D01*
X140382899Y-67483309D01*
X140567077Y-67483309D01*
X140747717Y-67447377D01*
X140917877Y-67376895D01*
X141071016Y-67274571D01*
X141201250Y-67144337D01*
X141303574Y-66991198D01*
X141374056Y-66821038D01*
X141409988Y-66640398D01*
X141409988Y-66456220D01*
X141374056Y-66275580D01*
X141303574Y-66105420D01*
X141201250Y-65952281D01*
X141071016Y-65822047D01*
X140917877Y-65719723D01*
X140747717Y-65649241D01*
X140719526Y-65643633D01*
X140755021Y-65465190D01*
X140755021Y-65281012D01*
X140719089Y-65100372D01*
X140673891Y-64991254D01*
X140712827Y-64932983D01*
X140783309Y-64762823D01*
X140819241Y-64582183D01*
X140819241Y-64398005D01*
X140793188Y-64267027D01*
X140885737Y-64174478D01*
X140988061Y-64021339D01*
X141058543Y-63851179D01*
X141094475Y-63670539D01*
X141094475Y-63486361D01*
X141058543Y-63305721D01*
X140988061Y-63135561D01*
X140885737Y-62982422D01*
X140769192Y-62865877D01*
X141909911Y-62865877D01*
X141909911Y-63050055D01*
X141945843Y-63230695D01*
X142016325Y-63400855D01*
X142118649Y-63553994D01*
X142248883Y-63684228D01*
X142402022Y-63786552D01*
X142572182Y-63857034D01*
X142752822Y-63892966D01*
X142937000Y-63892966D01*
X143117640Y-63857034D01*
X143287800Y-63786552D01*
X143440939Y-63684228D01*
X143571173Y-63553994D01*
X143673497Y-63400855D01*
X143743979Y-63230695D01*
X143779911Y-63050055D01*
X143779911Y-62865877D01*
X143743979Y-62685237D01*
X143673497Y-62515077D01*
X143628619Y-62447911D01*
X145055000Y-62447911D01*
X145055000Y-62632089D01*
X145090932Y-62812729D01*
X145161414Y-62982889D01*
X145263738Y-63136028D01*
X145393972Y-63266262D01*
X145547111Y-63368586D01*
X145717271Y-63439068D01*
X145897911Y-63475000D01*
X146082089Y-63475000D01*
X146262729Y-63439068D01*
X146432889Y-63368586D01*
X146586028Y-63266262D01*
X146716262Y-63136028D01*
X146818586Y-62982889D01*
X146889068Y-62812729D01*
X146925000Y-62632089D01*
X146925000Y-62447911D01*
X146889068Y-62267271D01*
X146818586Y-62097111D01*
X146716262Y-61943972D01*
X146586028Y-61813738D01*
X146432889Y-61711414D01*
X146262729Y-61640932D01*
X146082089Y-61605000D01*
X145897911Y-61605000D01*
X145717271Y-61640932D01*
X145547111Y-61711414D01*
X145393972Y-61813738D01*
X145263738Y-61943972D01*
X145161414Y-62097111D01*
X145090932Y-62267271D01*
X145055000Y-62447911D01*
X143628619Y-62447911D01*
X143571173Y-62361938D01*
X143440939Y-62231704D01*
X143287800Y-62129380D01*
X143117640Y-62058898D01*
X142937000Y-62022966D01*
X142752822Y-62022966D01*
X142572182Y-62058898D01*
X142402022Y-62129380D01*
X142248883Y-62231704D01*
X142118649Y-62361938D01*
X142016325Y-62515077D01*
X141945843Y-62685237D01*
X141909911Y-62865877D01*
X140769192Y-62865877D01*
X140755503Y-62852188D01*
X140602364Y-62749864D01*
X140432204Y-62679382D01*
X140251564Y-62643450D01*
X140067386Y-62643450D01*
X139886746Y-62679382D01*
X139716586Y-62749864D01*
X139563447Y-62852188D01*
X139433213Y-62982422D01*
X139330889Y-63135561D01*
X139260407Y-63305721D01*
X139224475Y-63486361D01*
X139224475Y-63670539D01*
X139250528Y-63801517D01*
X139157979Y-63894066D01*
X139055655Y-64047205D01*
X138985173Y-64217365D01*
X138949241Y-64398005D01*
X138949241Y-64582183D01*
X138985173Y-64762823D01*
X139030371Y-64871941D01*
X138991435Y-64930212D01*
X138920953Y-65100372D01*
X138885021Y-65281012D01*
X130108111Y-65281012D01*
X130108978Y-65278921D01*
X130144910Y-65098281D01*
X130144910Y-64914103D01*
X130108978Y-64733463D01*
X130038496Y-64563303D01*
X129936172Y-64410164D01*
X129805938Y-64279930D01*
X129652799Y-64177606D01*
X129482639Y-64107124D01*
X129301999Y-64071192D01*
X129117821Y-64071192D01*
X128937181Y-64107124D01*
X128767021Y-64177606D01*
X128613882Y-64279930D01*
X128536988Y-64356824D01*
X128369664Y-64356824D01*
X128189024Y-64392756D01*
X128018864Y-64463238D01*
X127865725Y-64565562D01*
X127735491Y-64695796D01*
X127633167Y-64848935D01*
X127562685Y-65019095D01*
X127526753Y-65199735D01*
X125927881Y-65199735D01*
X125939068Y-65172729D01*
X125975000Y-64992089D01*
X125975000Y-64807911D01*
X125939068Y-64627271D01*
X125868586Y-64457111D01*
X125766262Y-64303972D01*
X125636028Y-64173738D01*
X125482889Y-64071414D01*
X125312729Y-64000932D01*
X125132089Y-63965000D01*
X124947911Y-63965000D01*
X124767271Y-64000932D01*
X124597111Y-64071414D01*
X124443972Y-64173738D01*
X124313738Y-64303972D01*
X124313469Y-64304375D01*
X124232729Y-64270932D01*
X124052089Y-64235000D01*
X123867911Y-64235000D01*
X123687271Y-64270932D01*
X123517111Y-64341414D01*
X123363972Y-64443738D01*
X123233738Y-64573972D01*
X123178673Y-64656383D01*
X123086028Y-64563738D01*
X122932889Y-64461414D01*
X122762729Y-64390932D01*
X122582089Y-64355000D01*
X122397911Y-64355000D01*
X122217271Y-64390932D01*
X122047111Y-64461414D01*
X121893972Y-64563738D01*
X121763738Y-64693972D01*
X121661414Y-64847111D01*
X121590932Y-65017271D01*
X121555000Y-65197911D01*
X113055000Y-65197911D01*
X113055000Y-61496565D01*
X139560343Y-61496565D01*
X139560343Y-61680743D01*
X139596275Y-61861383D01*
X139666757Y-62031543D01*
X139769081Y-62184682D01*
X139899315Y-62314916D01*
X140052454Y-62417240D01*
X140222614Y-62487722D01*
X140403254Y-62523654D01*
X140587432Y-62523654D01*
X140768072Y-62487722D01*
X140938232Y-62417240D01*
X141091371Y-62314916D01*
X141221605Y-62184682D01*
X141323929Y-62031543D01*
X141375185Y-61907799D01*
X141505990Y-61853618D01*
X141659129Y-61751294D01*
X141789363Y-61621060D01*
X141891687Y-61467921D01*
X141962169Y-61297761D01*
X141987923Y-61168285D01*
X148365372Y-61168285D01*
X148365372Y-61352463D01*
X148401304Y-61533103D01*
X148471786Y-61703263D01*
X148574110Y-61856402D01*
X148704344Y-61986636D01*
X148857483Y-62088960D01*
X149027643Y-62159442D01*
X149208283Y-62195374D01*
X149392461Y-62195374D01*
X149573101Y-62159442D01*
X149743261Y-62088960D01*
X149896400Y-61986636D01*
X150026634Y-61856402D01*
X150128958Y-61703263D01*
X150199440Y-61533103D01*
X150235372Y-61352463D01*
X150235372Y-61307487D01*
X150302729Y-61294089D01*
X150472889Y-61223607D01*
X150626028Y-61121283D01*
X150756262Y-60991049D01*
X150858586Y-60837910D01*
X150873069Y-60802943D01*
X155195458Y-60802943D01*
X155195458Y-60987121D01*
X155231390Y-61167761D01*
X155301872Y-61337921D01*
X155404196Y-61491060D01*
X155534430Y-61621294D01*
X155687569Y-61723618D01*
X155857729Y-61794100D01*
X156038369Y-61830032D01*
X156222547Y-61830032D01*
X156403187Y-61794100D01*
X156573347Y-61723618D01*
X156726486Y-61621294D01*
X156856720Y-61491060D01*
X156959044Y-61337921D01*
X157029526Y-61167761D01*
X157065458Y-60987121D01*
X157065458Y-60922952D01*
X157492108Y-60922952D01*
X157492108Y-61107130D01*
X157528040Y-61287770D01*
X157598522Y-61457930D01*
X157700846Y-61611069D01*
X157831080Y-61741303D01*
X157984219Y-61843627D01*
X158154379Y-61914109D01*
X158335019Y-61950041D01*
X158519197Y-61950041D01*
X158699837Y-61914109D01*
X158869997Y-61843627D01*
X159023136Y-61741303D01*
X159153370Y-61611069D01*
X159255694Y-61457930D01*
X159281314Y-61396078D01*
X159321414Y-61492889D01*
X159423738Y-61646028D01*
X159424031Y-61646321D01*
X159368983Y-61779220D01*
X159333051Y-61959860D01*
X159333051Y-62144038D01*
X159368983Y-62324678D01*
X159439465Y-62494838D01*
X159541789Y-62647977D01*
X159672023Y-62778211D01*
X159825162Y-62880535D01*
X159995322Y-62951017D01*
X160175962Y-62986949D01*
X160360140Y-62986949D01*
X160540780Y-62951017D01*
X160710940Y-62880535D01*
X160864079Y-62778211D01*
X160994313Y-62647977D01*
X161096637Y-62494838D01*
X161167119Y-62324678D01*
X161203051Y-62144038D01*
X161203051Y-61959860D01*
X161167119Y-61779220D01*
X161096637Y-61609060D01*
X160994313Y-61455921D01*
X160994020Y-61455628D01*
X161049068Y-61322729D01*
X161085000Y-61142089D01*
X161085000Y-60957911D01*
X161049068Y-60777271D01*
X160978586Y-60607111D01*
X160876262Y-60453972D01*
X160746028Y-60323738D01*
X160592889Y-60221414D01*
X160422729Y-60150932D01*
X160242089Y-60115000D01*
X160057911Y-60115000D01*
X159877271Y-60150932D01*
X159707111Y-60221414D01*
X159553972Y-60323738D01*
X159423738Y-60453972D01*
X159321414Y-60607111D01*
X159295794Y-60668963D01*
X159255694Y-60572152D01*
X159153370Y-60419013D01*
X159023136Y-60288779D01*
X158869997Y-60186455D01*
X158699837Y-60115973D01*
X158519197Y-60080041D01*
X158335019Y-60080041D01*
X158154379Y-60115973D01*
X157984219Y-60186455D01*
X157831080Y-60288779D01*
X157700846Y-60419013D01*
X157598522Y-60572152D01*
X157528040Y-60742312D01*
X157492108Y-60922952D01*
X157065458Y-60922952D01*
X157065458Y-60802943D01*
X157029526Y-60622303D01*
X156959044Y-60452143D01*
X156856720Y-60299004D01*
X156726486Y-60168770D01*
X156573347Y-60066446D01*
X156403187Y-59995964D01*
X156222547Y-59960032D01*
X156038369Y-59960032D01*
X155857729Y-59995964D01*
X155687569Y-60066446D01*
X155534430Y-60168770D01*
X155404196Y-60299004D01*
X155301872Y-60452143D01*
X155231390Y-60622303D01*
X155195458Y-60802943D01*
X150873069Y-60802943D01*
X150929068Y-60667750D01*
X150965000Y-60487110D01*
X150965000Y-60302932D01*
X150929068Y-60122292D01*
X150858586Y-59952132D01*
X150756262Y-59798993D01*
X150626028Y-59668759D01*
X150472889Y-59566435D01*
X150302729Y-59495953D01*
X150122089Y-59460021D01*
X149937911Y-59460021D01*
X149757271Y-59495953D01*
X149587111Y-59566435D01*
X149433972Y-59668759D01*
X149303738Y-59798993D01*
X149201414Y-59952132D01*
X149130932Y-60122292D01*
X149095000Y-60302932D01*
X149095000Y-60347908D01*
X149027643Y-60361306D01*
X148857483Y-60431788D01*
X148704344Y-60534112D01*
X148574110Y-60664346D01*
X148471786Y-60817485D01*
X148401304Y-60987645D01*
X148365372Y-61168285D01*
X141987923Y-61168285D01*
X141998101Y-61117121D01*
X141998101Y-60932943D01*
X141962169Y-60752303D01*
X141891687Y-60582143D01*
X141789363Y-60429004D01*
X141659129Y-60298770D01*
X141505990Y-60196446D01*
X141335830Y-60125964D01*
X141155190Y-60090032D01*
X140971012Y-60090032D01*
X140790372Y-60125964D01*
X140620212Y-60196446D01*
X140467073Y-60298770D01*
X140336839Y-60429004D01*
X140234515Y-60582143D01*
X140183259Y-60705887D01*
X140052454Y-60760068D01*
X139899315Y-60862392D01*
X139769081Y-60992626D01*
X139666757Y-61145765D01*
X139596275Y-61315925D01*
X139560343Y-61496565D01*
X113055000Y-61496565D01*
X113055000Y-58347911D01*
X118755000Y-58347911D01*
X118755000Y-58532089D01*
X118790932Y-58712729D01*
X118861414Y-58882889D01*
X118963738Y-59036028D01*
X119093972Y-59166262D01*
X119247111Y-59268586D01*
X119417271Y-59339068D01*
X119597911Y-59375000D01*
X119782089Y-59375000D01*
X119962729Y-59339068D01*
X120132889Y-59268586D01*
X120286028Y-59166262D01*
X120416262Y-59036028D01*
X120518586Y-58882889D01*
X120589068Y-58712729D01*
X120625000Y-58532089D01*
X120625000Y-58347911D01*
X120589068Y-58167271D01*
X120518586Y-57997111D01*
X120416262Y-57843972D01*
X120286028Y-57713738D01*
X120132889Y-57611414D01*
X119962729Y-57540932D01*
X119782089Y-57505000D01*
X119597911Y-57505000D01*
X119417271Y-57540932D01*
X119247111Y-57611414D01*
X119093972Y-57713738D01*
X118963738Y-57843972D01*
X118861414Y-57997111D01*
X118790932Y-58167271D01*
X118755000Y-58347911D01*
X113055000Y-58347911D01*
X113055000Y-54422032D01*
X113810000Y-54422032D01*
X113810000Y-54817968D01*
X113887243Y-55206296D01*
X114038761Y-55572092D01*
X114258731Y-55901301D01*
X114538699Y-56181269D01*
X114867908Y-56401239D01*
X115233704Y-56552757D01*
X115622032Y-56630000D01*
X116017968Y-56630000D01*
X116406296Y-56552757D01*
X116772092Y-56401239D01*
X117101301Y-56181269D01*
X117381269Y-55901301D01*
X117601239Y-55572092D01*
X117752757Y-55206296D01*
X117781856Y-55060000D01*
X119131928Y-55060000D01*
X119131928Y-56760000D01*
X119144188Y-56884482D01*
X119180498Y-57004180D01*
X119239463Y-57114494D01*
X119318815Y-57211185D01*
X119415506Y-57290537D01*
X119525820Y-57349502D01*
X119645518Y-57385812D01*
X119770000Y-57398072D01*
X121470000Y-57398072D01*
X121594482Y-57385812D01*
X121714180Y-57349502D01*
X121824494Y-57290537D01*
X121921185Y-57211185D01*
X122000537Y-57114494D01*
X122059502Y-57004180D01*
X122081513Y-56931620D01*
X122213368Y-57063475D01*
X122456589Y-57225990D01*
X122726842Y-57337932D01*
X123013740Y-57395000D01*
X123306260Y-57395000D01*
X123593158Y-57337932D01*
X123863411Y-57225990D01*
X124106632Y-57063475D01*
X124313475Y-56856632D01*
X124430000Y-56682240D01*
X124546525Y-56856632D01*
X124598389Y-56908496D01*
X124567281Y-56921381D01*
X124414142Y-57023705D01*
X124283908Y-57153939D01*
X124181584Y-57307078D01*
X124111102Y-57477238D01*
X124075170Y-57657878D01*
X124075170Y-57842056D01*
X124111102Y-58022696D01*
X124181584Y-58192856D01*
X124283908Y-58345995D01*
X124414142Y-58476229D01*
X124552639Y-58568769D01*
X124412121Y-58626973D01*
X124258982Y-58729297D01*
X124128748Y-58859531D01*
X124026424Y-59012670D01*
X123955942Y-59182830D01*
X123938239Y-59271828D01*
X123874310Y-59117489D01*
X123771986Y-58964350D01*
X123641752Y-58834116D01*
X123488613Y-58731792D01*
X123318453Y-58661310D01*
X123137813Y-58625378D01*
X122953635Y-58625378D01*
X122772995Y-58661310D01*
X122602835Y-58731792D01*
X122449696Y-58834116D01*
X122319462Y-58964350D01*
X122217138Y-59117489D01*
X122146656Y-59287649D01*
X122110724Y-59468289D01*
X122110724Y-59652467D01*
X122146656Y-59833107D01*
X122217138Y-60003267D01*
X122319462Y-60156406D01*
X122449696Y-60286640D01*
X122602835Y-60388964D01*
X122772995Y-60459446D01*
X122953635Y-60495378D01*
X123137813Y-60495378D01*
X123318453Y-60459446D01*
X123488613Y-60388964D01*
X123641752Y-60286640D01*
X123771986Y-60156406D01*
X123874310Y-60003267D01*
X123944792Y-59833107D01*
X123962495Y-59744109D01*
X124026424Y-59898448D01*
X124128748Y-60051587D01*
X124258982Y-60181821D01*
X124412121Y-60284145D01*
X124582281Y-60354627D01*
X124762921Y-60390559D01*
X124947099Y-60390559D01*
X125127739Y-60354627D01*
X125297899Y-60284145D01*
X125451038Y-60181821D01*
X125581272Y-60051587D01*
X125683596Y-59898448D01*
X125754078Y-59728288D01*
X125790010Y-59547648D01*
X125790010Y-59363470D01*
X125754078Y-59182830D01*
X125683596Y-59012670D01*
X125581272Y-58859531D01*
X125509652Y-58787911D01*
X127805000Y-58787911D01*
X127805000Y-58972089D01*
X127840932Y-59152729D01*
X127911414Y-59322889D01*
X128013738Y-59476028D01*
X128143972Y-59606262D01*
X128297111Y-59708586D01*
X128467271Y-59779068D01*
X128647911Y-59815000D01*
X128832089Y-59815000D01*
X129012729Y-59779068D01*
X129182889Y-59708586D01*
X129336028Y-59606262D01*
X129466262Y-59476028D01*
X129568586Y-59322889D01*
X129610002Y-59222901D01*
X160328405Y-59222901D01*
X160328405Y-59407079D01*
X160364337Y-59587719D01*
X160434819Y-59757879D01*
X160537143Y-59911018D01*
X160667377Y-60041252D01*
X160820516Y-60143576D01*
X160990676Y-60214058D01*
X161171316Y-60249990D01*
X161355494Y-60249990D01*
X161536134Y-60214058D01*
X161706294Y-60143576D01*
X161859433Y-60041252D01*
X161989667Y-59911018D01*
X162091991Y-59757879D01*
X162162473Y-59587719D01*
X162198405Y-59407079D01*
X162198405Y-59222901D01*
X162162473Y-59042261D01*
X162091991Y-58872101D01*
X161989667Y-58718962D01*
X161859433Y-58588728D01*
X161706294Y-58486404D01*
X161536134Y-58415922D01*
X161355494Y-58379990D01*
X161171316Y-58379990D01*
X160990676Y-58415922D01*
X160820516Y-58486404D01*
X160667377Y-58588728D01*
X160537143Y-58718962D01*
X160434819Y-58872101D01*
X160364337Y-59042261D01*
X160328405Y-59222901D01*
X129610002Y-59222901D01*
X129639068Y-59152729D01*
X129675000Y-58972089D01*
X129675000Y-58787911D01*
X129639068Y-58607271D01*
X129568586Y-58437111D01*
X129466262Y-58283972D01*
X129336028Y-58153738D01*
X129182889Y-58051414D01*
X129012729Y-57980932D01*
X128832089Y-57945000D01*
X128647911Y-57945000D01*
X128467271Y-57980932D01*
X128297111Y-58051414D01*
X128143972Y-58153738D01*
X128013738Y-58283972D01*
X127911414Y-58437111D01*
X127840932Y-58607271D01*
X127805000Y-58787911D01*
X125509652Y-58787911D01*
X125451038Y-58729297D01*
X125312541Y-58636757D01*
X125453059Y-58578553D01*
X125606198Y-58476229D01*
X125736432Y-58345995D01*
X125838756Y-58192856D01*
X125909238Y-58022696D01*
X125945170Y-57842056D01*
X125945170Y-57657878D01*
X125909238Y-57477238D01*
X125872973Y-57389686D01*
X126133158Y-57337932D01*
X126403411Y-57225990D01*
X126646632Y-57063475D01*
X126853475Y-56856632D01*
X126970000Y-56682240D01*
X127086525Y-56856632D01*
X127293368Y-57063475D01*
X127536589Y-57225990D01*
X127806842Y-57337932D01*
X128093740Y-57395000D01*
X128386260Y-57395000D01*
X128673158Y-57337932D01*
X128943411Y-57225990D01*
X129186632Y-57063475D01*
X129393475Y-56856632D01*
X129515195Y-56674466D01*
X129584822Y-56791355D01*
X129779731Y-57007588D01*
X130013080Y-57181641D01*
X130275901Y-57306825D01*
X130423110Y-57351476D01*
X130653000Y-57230155D01*
X130653000Y-56037000D01*
X130633000Y-56037000D01*
X130633000Y-55783000D01*
X130653000Y-55783000D01*
X130653000Y-55763000D01*
X130907000Y-55763000D01*
X130907000Y-55783000D01*
X130927000Y-55783000D01*
X130927000Y-56037000D01*
X130907000Y-56037000D01*
X130907000Y-57230155D01*
X131136890Y-57351476D01*
X131284099Y-57306825D01*
X131546920Y-57181641D01*
X131780269Y-57007588D01*
X131975178Y-56791355D01*
X132044805Y-56674466D01*
X132166525Y-56856632D01*
X132373368Y-57063475D01*
X132616589Y-57225990D01*
X132886842Y-57337932D01*
X133173740Y-57395000D01*
X133466260Y-57395000D01*
X133753158Y-57337932D01*
X134023411Y-57225990D01*
X134266632Y-57063475D01*
X134473475Y-56856632D01*
X134590000Y-56682240D01*
X134706525Y-56856632D01*
X134913368Y-57063475D01*
X135156589Y-57225990D01*
X135426842Y-57337932D01*
X135713740Y-57395000D01*
X136006260Y-57395000D01*
X136293158Y-57337932D01*
X136563411Y-57225990D01*
X136806632Y-57063475D01*
X137013475Y-56856632D01*
X137130000Y-56682240D01*
X137246525Y-56856632D01*
X137453368Y-57063475D01*
X137696589Y-57225990D01*
X137966842Y-57337932D01*
X138253740Y-57395000D01*
X138546260Y-57395000D01*
X138833158Y-57337932D01*
X139103411Y-57225990D01*
X139346632Y-57063475D01*
X139553475Y-56856632D01*
X139670000Y-56682240D01*
X139786525Y-56856632D01*
X139993368Y-57063475D01*
X140236589Y-57225990D01*
X140506842Y-57337932D01*
X140793740Y-57395000D01*
X141086260Y-57395000D01*
X141373158Y-57337932D01*
X141643411Y-57225990D01*
X141886632Y-57063475D01*
X142093475Y-56856632D01*
X142210000Y-56682240D01*
X142326525Y-56856632D01*
X142533368Y-57063475D01*
X142776589Y-57225990D01*
X143046842Y-57337932D01*
X143333740Y-57395000D01*
X143626260Y-57395000D01*
X143913158Y-57337932D01*
X144183411Y-57225990D01*
X144426632Y-57063475D01*
X144633475Y-56856632D01*
X144750000Y-56682240D01*
X144866525Y-56856632D01*
X145073368Y-57063475D01*
X145316589Y-57225990D01*
X145586842Y-57337932D01*
X145873740Y-57395000D01*
X146166260Y-57395000D01*
X146453158Y-57337932D01*
X146723411Y-57225990D01*
X146966632Y-57063475D01*
X147173475Y-56856632D01*
X147290000Y-56682240D01*
X147406525Y-56856632D01*
X147613368Y-57063475D01*
X147856589Y-57225990D01*
X148126842Y-57337932D01*
X148413740Y-57395000D01*
X148706260Y-57395000D01*
X148993158Y-57337932D01*
X149263411Y-57225990D01*
X149506632Y-57063475D01*
X149713475Y-56856632D01*
X149835195Y-56674466D01*
X149904822Y-56791355D01*
X150099731Y-57007588D01*
X150333080Y-57181641D01*
X150595901Y-57306825D01*
X150743110Y-57351476D01*
X150973000Y-57230155D01*
X150973000Y-56037000D01*
X150953000Y-56037000D01*
X150953000Y-55783000D01*
X150973000Y-55783000D01*
X150973000Y-55763000D01*
X151227000Y-55763000D01*
X151227000Y-55783000D01*
X151247000Y-55783000D01*
X151247000Y-56037000D01*
X151227000Y-56037000D01*
X151227000Y-57230155D01*
X151456890Y-57351476D01*
X151604099Y-57306825D01*
X151866920Y-57181641D01*
X152100269Y-57007588D01*
X152295178Y-56791355D01*
X152364805Y-56674466D01*
X152486525Y-56856632D01*
X152693368Y-57063475D01*
X152936589Y-57225990D01*
X153206842Y-57337932D01*
X153493740Y-57395000D01*
X153786260Y-57395000D01*
X154073158Y-57337932D01*
X154343411Y-57225990D01*
X154586632Y-57063475D01*
X154793475Y-56856632D01*
X154910000Y-56682240D01*
X155026525Y-56856632D01*
X155233368Y-57063475D01*
X155476589Y-57225990D01*
X155746842Y-57337932D01*
X156033740Y-57395000D01*
X156326260Y-57395000D01*
X156613158Y-57337932D01*
X156883411Y-57225990D01*
X157126632Y-57063475D01*
X157333475Y-56856632D01*
X157450000Y-56682240D01*
X157566525Y-56856632D01*
X157773368Y-57063475D01*
X158016589Y-57225990D01*
X158286842Y-57337932D01*
X158573740Y-57395000D01*
X158866260Y-57395000D01*
X159153158Y-57337932D01*
X159423411Y-57225990D01*
X159666632Y-57063475D01*
X159873475Y-56856632D01*
X159990000Y-56682240D01*
X160106525Y-56856632D01*
X160313368Y-57063475D01*
X160556589Y-57225990D01*
X160826842Y-57337932D01*
X161113740Y-57395000D01*
X161406260Y-57395000D01*
X161693158Y-57337932D01*
X161963411Y-57225990D01*
X162206632Y-57063475D01*
X162413475Y-56856632D01*
X162530000Y-56682240D01*
X162646525Y-56856632D01*
X162853368Y-57063475D01*
X163096589Y-57225990D01*
X163366842Y-57337932D01*
X163653740Y-57395000D01*
X163946260Y-57395000D01*
X164233158Y-57337932D01*
X164503411Y-57225990D01*
X164746632Y-57063475D01*
X164953475Y-56856632D01*
X165070000Y-56682240D01*
X165186525Y-56856632D01*
X165393368Y-57063475D01*
X165636589Y-57225990D01*
X165906842Y-57337932D01*
X166193740Y-57395000D01*
X166486260Y-57395000D01*
X166773158Y-57337932D01*
X167043411Y-57225990D01*
X167286632Y-57063475D01*
X167493475Y-56856632D01*
X167615195Y-56674466D01*
X167684822Y-56791355D01*
X167879731Y-57007588D01*
X168113080Y-57181641D01*
X168375901Y-57306825D01*
X168523110Y-57351476D01*
X168753000Y-57230155D01*
X168753000Y-56037000D01*
X169007000Y-56037000D01*
X169007000Y-57230155D01*
X169236890Y-57351476D01*
X169384099Y-57306825D01*
X169646920Y-57181641D01*
X169880269Y-57007588D01*
X170075178Y-56791355D01*
X170224157Y-56541252D01*
X170321481Y-56266891D01*
X170200814Y-56037000D01*
X169007000Y-56037000D01*
X168753000Y-56037000D01*
X168733000Y-56037000D01*
X168733000Y-55783000D01*
X168753000Y-55783000D01*
X168753000Y-55763000D01*
X169007000Y-55763000D01*
X169007000Y-55783000D01*
X170200814Y-55783000D01*
X170321481Y-55553109D01*
X170224157Y-55278748D01*
X170075178Y-55028645D01*
X169880269Y-54812412D01*
X169650594Y-54641100D01*
X169826632Y-54523475D01*
X169928075Y-54422032D01*
X171810000Y-54422032D01*
X171810000Y-54817968D01*
X171887243Y-55206296D01*
X172038761Y-55572092D01*
X172258731Y-55901301D01*
X172538699Y-56181269D01*
X172867908Y-56401239D01*
X173233704Y-56552757D01*
X173622032Y-56630000D01*
X174017968Y-56630000D01*
X174406296Y-56552757D01*
X174772092Y-56401239D01*
X175101301Y-56181269D01*
X175381269Y-55901301D01*
X175601239Y-55572092D01*
X175752757Y-55206296D01*
X175830000Y-54817968D01*
X175830000Y-54422032D01*
X175752757Y-54033704D01*
X175601239Y-53667908D01*
X175381269Y-53338699D01*
X175101301Y-53058731D01*
X174772092Y-52838761D01*
X174406296Y-52687243D01*
X174017968Y-52610000D01*
X173622032Y-52610000D01*
X173233704Y-52687243D01*
X172867908Y-52838761D01*
X172538699Y-53058731D01*
X172258731Y-53338699D01*
X172038761Y-53667908D01*
X171887243Y-54033704D01*
X171810000Y-54422032D01*
X169928075Y-54422032D01*
X170033475Y-54316632D01*
X170195990Y-54073411D01*
X170307932Y-53803158D01*
X170365000Y-53516260D01*
X170365000Y-53223740D01*
X170307932Y-52936842D01*
X170195990Y-52666589D01*
X170033475Y-52423368D01*
X169826632Y-52216525D01*
X169583411Y-52054010D01*
X169313158Y-51942068D01*
X169026260Y-51885000D01*
X168733740Y-51885000D01*
X168446842Y-51942068D01*
X168176589Y-52054010D01*
X167933368Y-52216525D01*
X167726525Y-52423368D01*
X167610000Y-52597760D01*
X167493475Y-52423368D01*
X167286632Y-52216525D01*
X167043411Y-52054010D01*
X166773158Y-51942068D01*
X166486260Y-51885000D01*
X166193740Y-51885000D01*
X165906842Y-51942068D01*
X165636589Y-52054010D01*
X165393368Y-52216525D01*
X165186525Y-52423368D01*
X165070000Y-52597760D01*
X164953475Y-52423368D01*
X164746632Y-52216525D01*
X164503411Y-52054010D01*
X164233158Y-51942068D01*
X163946260Y-51885000D01*
X163653740Y-51885000D01*
X163366842Y-51942068D01*
X163096589Y-52054010D01*
X162853368Y-52216525D01*
X162646525Y-52423368D01*
X162524805Y-52605534D01*
X162455178Y-52488645D01*
X162260269Y-52272412D01*
X162026920Y-52098359D01*
X161764099Y-51973175D01*
X161616890Y-51928524D01*
X161387000Y-52049845D01*
X161387000Y-53243000D01*
X161407000Y-53243000D01*
X161407000Y-53497000D01*
X161387000Y-53497000D01*
X161387000Y-53517000D01*
X161133000Y-53517000D01*
X161133000Y-53497000D01*
X161113000Y-53497000D01*
X161113000Y-53243000D01*
X161133000Y-53243000D01*
X161133000Y-52049845D01*
X160903110Y-51928524D01*
X160755901Y-51973175D01*
X160493080Y-52098359D01*
X160259731Y-52272412D01*
X160064822Y-52488645D01*
X159995195Y-52605534D01*
X159873475Y-52423368D01*
X159666632Y-52216525D01*
X159423411Y-52054010D01*
X159153158Y-51942068D01*
X158866260Y-51885000D01*
X158573740Y-51885000D01*
X158286842Y-51942068D01*
X158016589Y-52054010D01*
X157773368Y-52216525D01*
X157566525Y-52423368D01*
X157444805Y-52605534D01*
X157375178Y-52488645D01*
X157180269Y-52272412D01*
X156946920Y-52098359D01*
X156684099Y-51973175D01*
X156536890Y-51928524D01*
X156307000Y-52049845D01*
X156307000Y-53243000D01*
X156327000Y-53243000D01*
X156327000Y-53497000D01*
X156307000Y-53497000D01*
X156307000Y-53517000D01*
X156053000Y-53517000D01*
X156053000Y-53497000D01*
X156033000Y-53497000D01*
X156033000Y-53243000D01*
X156053000Y-53243000D01*
X156053000Y-52049845D01*
X155823110Y-51928524D01*
X155675901Y-51973175D01*
X155413080Y-52098359D01*
X155179731Y-52272412D01*
X154984822Y-52488645D01*
X154915195Y-52605534D01*
X154793475Y-52423368D01*
X154586632Y-52216525D01*
X154343411Y-52054010D01*
X154073158Y-51942068D01*
X153786260Y-51885000D01*
X153493740Y-51885000D01*
X153206842Y-51942068D01*
X152936589Y-52054010D01*
X152693368Y-52216525D01*
X152486525Y-52423368D01*
X152370000Y-52597760D01*
X152253475Y-52423368D01*
X152046632Y-52216525D01*
X151803411Y-52054010D01*
X151533158Y-51942068D01*
X151246260Y-51885000D01*
X150953740Y-51885000D01*
X150666842Y-51942068D01*
X150396589Y-52054010D01*
X150153368Y-52216525D01*
X149946525Y-52423368D01*
X149830000Y-52597760D01*
X149713475Y-52423368D01*
X149506632Y-52216525D01*
X149263411Y-52054010D01*
X148993158Y-51942068D01*
X148706260Y-51885000D01*
X148413740Y-51885000D01*
X148126842Y-51942068D01*
X147856589Y-52054010D01*
X147613368Y-52216525D01*
X147406525Y-52423368D01*
X147290000Y-52597760D01*
X147173475Y-52423368D01*
X146966632Y-52216525D01*
X146723411Y-52054010D01*
X146453158Y-51942068D01*
X146166260Y-51885000D01*
X145873740Y-51885000D01*
X145586842Y-51942068D01*
X145316589Y-52054010D01*
X145073368Y-52216525D01*
X144866525Y-52423368D01*
X144744805Y-52605534D01*
X144675178Y-52488645D01*
X144480269Y-52272412D01*
X144246920Y-52098359D01*
X143984099Y-51973175D01*
X143836890Y-51928524D01*
X143607000Y-52049845D01*
X143607000Y-53243000D01*
X143627000Y-53243000D01*
X143627000Y-53497000D01*
X143607000Y-53497000D01*
X143607000Y-53517000D01*
X143353000Y-53517000D01*
X143353000Y-53497000D01*
X143333000Y-53497000D01*
X143333000Y-53243000D01*
X143353000Y-53243000D01*
X143353000Y-52049845D01*
X143123110Y-51928524D01*
X142975901Y-51973175D01*
X142713080Y-52098359D01*
X142479731Y-52272412D01*
X142284822Y-52488645D01*
X142215195Y-52605534D01*
X142093475Y-52423368D01*
X141886632Y-52216525D01*
X141643411Y-52054010D01*
X141373158Y-51942068D01*
X141086260Y-51885000D01*
X140793740Y-51885000D01*
X140506842Y-51942068D01*
X140236589Y-52054010D01*
X139993368Y-52216525D01*
X139786525Y-52423368D01*
X139670000Y-52597760D01*
X139553475Y-52423368D01*
X139346632Y-52216525D01*
X139103411Y-52054010D01*
X138833158Y-51942068D01*
X138546260Y-51885000D01*
X138253740Y-51885000D01*
X137966842Y-51942068D01*
X137696589Y-52054010D01*
X137453368Y-52216525D01*
X137246525Y-52423368D01*
X137124805Y-52605534D01*
X137055178Y-52488645D01*
X136860269Y-52272412D01*
X136626920Y-52098359D01*
X136364099Y-51973175D01*
X136216890Y-51928524D01*
X135987000Y-52049845D01*
X135987000Y-53243000D01*
X136007000Y-53243000D01*
X136007000Y-53497000D01*
X135987000Y-53497000D01*
X135987000Y-53517000D01*
X135733000Y-53517000D01*
X135733000Y-53497000D01*
X135713000Y-53497000D01*
X135713000Y-53243000D01*
X135733000Y-53243000D01*
X135733000Y-52049845D01*
X135503110Y-51928524D01*
X135355901Y-51973175D01*
X135093080Y-52098359D01*
X134859731Y-52272412D01*
X134664822Y-52488645D01*
X134595195Y-52605534D01*
X134473475Y-52423368D01*
X134266632Y-52216525D01*
X134023411Y-52054010D01*
X133753158Y-51942068D01*
X133466260Y-51885000D01*
X133173740Y-51885000D01*
X132886842Y-51942068D01*
X132616589Y-52054010D01*
X132373368Y-52216525D01*
X132166525Y-52423368D01*
X132050000Y-52597760D01*
X131933475Y-52423368D01*
X131726632Y-52216525D01*
X131483411Y-52054010D01*
X131213158Y-51942068D01*
X130926260Y-51885000D01*
X130633740Y-51885000D01*
X130346842Y-51942068D01*
X130076589Y-52054010D01*
X129833368Y-52216525D01*
X129626525Y-52423368D01*
X129510000Y-52597760D01*
X129393475Y-52423368D01*
X129186632Y-52216525D01*
X128943411Y-52054010D01*
X128673158Y-51942068D01*
X128386260Y-51885000D01*
X128093740Y-51885000D01*
X127806842Y-51942068D01*
X127536589Y-52054010D01*
X127293368Y-52216525D01*
X127086525Y-52423368D01*
X126964805Y-52605534D01*
X126895178Y-52488645D01*
X126700269Y-52272412D01*
X126466920Y-52098359D01*
X126204099Y-51973175D01*
X126056890Y-51928524D01*
X125827000Y-52049845D01*
X125827000Y-53243000D01*
X125847000Y-53243000D01*
X125847000Y-53497000D01*
X125827000Y-53497000D01*
X125827000Y-53517000D01*
X125573000Y-53517000D01*
X125573000Y-53497000D01*
X125553000Y-53497000D01*
X125553000Y-53243000D01*
X125573000Y-53243000D01*
X125573000Y-52049845D01*
X125343110Y-51928524D01*
X125195901Y-51973175D01*
X124933080Y-52098359D01*
X124699731Y-52272412D01*
X124504822Y-52488645D01*
X124435195Y-52605534D01*
X124313475Y-52423368D01*
X124106632Y-52216525D01*
X123863411Y-52054010D01*
X123593158Y-51942068D01*
X123306260Y-51885000D01*
X123013740Y-51885000D01*
X122726842Y-51942068D01*
X122456589Y-52054010D01*
X122213368Y-52216525D01*
X122006525Y-52423368D01*
X121890000Y-52597760D01*
X121773475Y-52423368D01*
X121566632Y-52216525D01*
X121323411Y-52054010D01*
X121053158Y-51942068D01*
X120766260Y-51885000D01*
X120473740Y-51885000D01*
X120186842Y-51942068D01*
X119916589Y-52054010D01*
X119673368Y-52216525D01*
X119466525Y-52423368D01*
X119304010Y-52666589D01*
X119192068Y-52936842D01*
X119135000Y-53223740D01*
X119135000Y-53516260D01*
X119192068Y-53803158D01*
X119304010Y-54073411D01*
X119466525Y-54316632D01*
X119598380Y-54448487D01*
X119525820Y-54470498D01*
X119415506Y-54529463D01*
X119318815Y-54608815D01*
X119239463Y-54705506D01*
X119180498Y-54815820D01*
X119144188Y-54935518D01*
X119131928Y-55060000D01*
X117781856Y-55060000D01*
X117830000Y-54817968D01*
X117830000Y-54422032D01*
X117752757Y-54033704D01*
X117601239Y-53667908D01*
X117381269Y-53338699D01*
X117101301Y-53058731D01*
X116772092Y-52838761D01*
X116406296Y-52687243D01*
X116017968Y-52610000D01*
X115622032Y-52610000D01*
X115233704Y-52687243D01*
X114867908Y-52838761D01*
X114538699Y-53058731D01*
X114258731Y-53338699D01*
X114038761Y-53667908D01*
X113887243Y-54033704D01*
X113810000Y-54422032D01*
X113055000Y-54422032D01*
X113055000Y-54155947D01*
X113101594Y-53680745D01*
X113229162Y-53258219D01*
X113436369Y-52868518D01*
X113715324Y-52526487D01*
X114055399Y-52245151D01*
X114443644Y-52035229D01*
X114865265Y-51904715D01*
X115338274Y-51855000D01*
X174284053Y-51855000D01*
X174759255Y-51901594D01*
G37*
%TD.AperFunction*%
%TD*%
M02*
