%TF.GenerationSoftware,KiCad,Pcbnew,5.1.9+dfsg1-1~bpo10+1*%
%TF.CreationDate,2021-11-10T17:07:06+01:00*%
%TF.ProjectId,ulx4m-cm4-hat,756c7834-6d2d-4636-9d34-2d6861742e6b,V1.0*%
%TF.SameCoordinates,Original*%
%TF.FileFunction,Soldermask,Bot*%
%TF.FilePolarity,Negative*%
%FSLAX46Y46*%
G04 Gerber Fmt 4.6, Leading zero omitted, Abs format (unit mm)*
G04 Created by KiCad (PCBNEW 5.1.9+dfsg1-1~bpo10+1) date 2021-11-10 17:07:06*
%MOMM*%
%LPD*%
G01*
G04 APERTURE LIST*
%ADD10C,5.500000*%
%ADD11R,1.700000X1.700000*%
%ADD12O,1.700000X1.700000*%
G04 APERTURE END LIST*
D10*
%TO.C,H6*%
X173820000Y-103620000D03*
%TD*%
%TO.C,H2*%
X173820000Y-54620000D03*
%TD*%
%TO.C,H1*%
X115820000Y-54620000D03*
%TD*%
%TO.C,H5*%
X115820000Y-103620000D03*
%TD*%
D11*
%TO.C,J1*%
X120620000Y-55910000D03*
D12*
X120620000Y-53370000D03*
X123160000Y-55910000D03*
X123160000Y-53370000D03*
X125700000Y-55910000D03*
X125700000Y-53370000D03*
X128240000Y-55910000D03*
X128240000Y-53370000D03*
X130780000Y-55910000D03*
X130780000Y-53370000D03*
X133320000Y-55910000D03*
X133320000Y-53370000D03*
X135860000Y-55910000D03*
X135860000Y-53370000D03*
X138400000Y-55910000D03*
X138400000Y-53370000D03*
X140940000Y-55910000D03*
X140940000Y-53370000D03*
X143480000Y-55910000D03*
X143480000Y-53370000D03*
X146020000Y-55910000D03*
X146020000Y-53370000D03*
X148560000Y-55910000D03*
X148560000Y-53370000D03*
X151100000Y-55910000D03*
X151100000Y-53370000D03*
X153640000Y-55910000D03*
X153640000Y-53370000D03*
X156180000Y-55910000D03*
X156180000Y-53370000D03*
X158720000Y-55910000D03*
X158720000Y-53370000D03*
X161260000Y-55910000D03*
X161260000Y-53370000D03*
X163800000Y-55910000D03*
X163800000Y-53370000D03*
X166340000Y-55910000D03*
X166340000Y-53370000D03*
X168880000Y-55910000D03*
X168880000Y-53370000D03*
%TD*%
D11*
%TO.C,J4*%
X153525000Y-82625000D03*
D12*
X156065000Y-82625000D03*
X153525000Y-80085000D03*
X156065000Y-80085000D03*
X153525000Y-77545000D03*
X156065000Y-77545000D03*
%TD*%
M02*
