%FSLAX45Y45*%
G04 Gerber Fmt 4.5, Leading zero omitted, Abs format (unit mm)*
G04 Created by KiCad (PCBNEW 5.1.9+dfsg1-1~bpo10+1) date 2021-11-10 17:07:08*
%MOMM*%
%LPD*%
G01*
G04 APERTURE LIST*
%TA.AperFunction,Profile*%
%ADD10C,0.200000*%
%TD*%
%ADD11C,0.200000*%
%ADD12C,0.300000*%
G04 APERTURE END LIST*
D10*
X17732000Y-5412000D02*
X17732000Y-10412000D01*
X11532000Y-10712000D02*
G75*
G02*
X11232000Y-10412000I0J300000D01*
G01*
X11532000Y-10712000D02*
X17432000Y-10712000D01*
X11232000Y-5412000D02*
X11232000Y-10412000D01*
X11232000Y-5412000D02*
G75*
G02*
X11532000Y-5112000I300000J0D01*
G01*
X17432000Y-5112000D02*
G75*
G02*
X17732000Y-5412000I0J-300000D01*
G01*
X17432000Y-5112000D02*
X11532000Y-5112000D01*
X17732000Y-10412000D02*
G75*
G02*
X17432000Y-10712000I-300000J0D01*
G01*
D11*
X11444500Y-5324500D02*
X11719500Y-5599500D01*
X11719500Y-5324500D02*
X11444500Y-5599500D01*
X11444500Y-10224500D02*
X11719500Y-10499500D01*
X11719500Y-10224500D02*
X11444500Y-10499500D01*
X17244500Y-5324500D02*
X17519500Y-5599500D01*
X17519500Y-5324500D02*
X17244500Y-5599500D01*
X17244500Y-10224500D02*
X17519500Y-10499500D01*
X17519500Y-10224500D02*
X17244500Y-10499500D01*
D12*
X11508428Y-11187714D02*
X11508428Y-10887714D01*
X11579857Y-10887714D01*
X11622714Y-10902000D01*
X11651286Y-10930572D01*
X11665571Y-10959143D01*
X11679857Y-11016286D01*
X11679857Y-11059143D01*
X11665571Y-11116286D01*
X11651286Y-11144857D01*
X11622714Y-11173429D01*
X11579857Y-11187714D01*
X11508428Y-11187714D01*
X11808428Y-11187714D02*
X11808428Y-10987714D01*
X11808428Y-11044857D02*
X11822714Y-11016286D01*
X11837000Y-11002000D01*
X11865571Y-10987714D01*
X11894143Y-10987714D01*
X11994143Y-11187714D02*
X11994143Y-10987714D01*
X11994143Y-10887714D02*
X11979857Y-10902000D01*
X11994143Y-10916286D01*
X12008428Y-10902000D01*
X11994143Y-10887714D01*
X11994143Y-10916286D01*
X12179857Y-11187714D02*
X12151286Y-11173429D01*
X12137000Y-11144857D01*
X12137000Y-10887714D01*
X12337000Y-11187714D02*
X12308428Y-11173429D01*
X12294143Y-11144857D01*
X12294143Y-10887714D01*
X12679857Y-11187714D02*
X12679857Y-10887714D01*
X12779857Y-11102000D01*
X12879857Y-10887714D01*
X12879857Y-11187714D01*
X13151286Y-11187714D02*
X13151286Y-11030572D01*
X13137000Y-11002000D01*
X13108428Y-10987714D01*
X13051286Y-10987714D01*
X13022714Y-11002000D01*
X13151286Y-11173429D02*
X13122714Y-11187714D01*
X13051286Y-11187714D01*
X13022714Y-11173429D01*
X13008428Y-11144857D01*
X13008428Y-11116286D01*
X13022714Y-11087714D01*
X13051286Y-11073429D01*
X13122714Y-11073429D01*
X13151286Y-11059143D01*
X13294143Y-10987714D02*
X13294143Y-11287714D01*
X13294143Y-11002000D02*
X13322714Y-10987714D01*
X13379857Y-10987714D01*
X13408428Y-11002000D01*
X13422714Y-11016286D01*
X13437000Y-11044857D01*
X13437000Y-11130572D01*
X13422714Y-11159143D01*
X13408428Y-11173429D01*
X13379857Y-11187714D01*
X13322714Y-11187714D01*
X13294143Y-11173429D01*
X13565571Y-11159143D02*
X13579857Y-11173429D01*
X13565571Y-11187714D01*
X13551286Y-11173429D01*
X13565571Y-11159143D01*
X13565571Y-11187714D01*
X13565571Y-11002000D02*
X13579857Y-11016286D01*
X13565571Y-11030572D01*
X13551286Y-11016286D01*
X13565571Y-11002000D01*
X13565571Y-11030572D01*
X10947000Y-11544500D02*
X11222000Y-11819500D01*
X11222000Y-11544500D02*
X10947000Y-11819500D01*
X11494143Y-11546286D02*
X11508428Y-11532000D01*
X11537000Y-11517714D01*
X11608428Y-11517714D01*
X11637000Y-11532000D01*
X11651286Y-11546286D01*
X11665571Y-11574857D01*
X11665571Y-11603429D01*
X11651286Y-11646286D01*
X11479857Y-11817714D01*
X11665571Y-11817714D01*
X11794143Y-11789143D02*
X11808428Y-11803429D01*
X11794143Y-11817714D01*
X11779857Y-11803429D01*
X11794143Y-11789143D01*
X11794143Y-11817714D01*
X11908428Y-11517714D02*
X12108428Y-11517714D01*
X11979857Y-11817714D01*
X12365571Y-11517714D02*
X12222714Y-11517714D01*
X12208428Y-11660571D01*
X12222714Y-11646286D01*
X12251286Y-11632000D01*
X12322714Y-11632000D01*
X12351286Y-11646286D01*
X12365571Y-11660571D01*
X12379857Y-11689143D01*
X12379857Y-11760571D01*
X12365571Y-11789143D01*
X12351286Y-11803429D01*
X12322714Y-11817714D01*
X12251286Y-11817714D01*
X12222714Y-11803429D01*
X12208428Y-11789143D01*
X12508428Y-11817714D02*
X12508428Y-11617714D01*
X12508428Y-11646286D02*
X12522714Y-11632000D01*
X12551286Y-11617714D01*
X12594143Y-11617714D01*
X12622714Y-11632000D01*
X12637000Y-11660571D01*
X12637000Y-11817714D01*
X12637000Y-11660571D02*
X12651286Y-11632000D01*
X12679857Y-11617714D01*
X12722714Y-11617714D01*
X12751286Y-11632000D01*
X12765571Y-11660571D01*
X12765571Y-11817714D01*
X12908428Y-11817714D02*
X12908428Y-11617714D01*
X12908428Y-11646286D02*
X12922714Y-11632000D01*
X12951286Y-11617714D01*
X12994143Y-11617714D01*
X13022714Y-11632000D01*
X13037000Y-11660571D01*
X13037000Y-11817714D01*
X13037000Y-11660571D02*
X13051286Y-11632000D01*
X13079857Y-11617714D01*
X13122714Y-11617714D01*
X13151286Y-11632000D01*
X13165571Y-11660571D01*
X13165571Y-11817714D01*
X13751286Y-11503429D02*
X13494143Y-11889143D01*
X14137000Y-11517714D02*
X14165571Y-11517714D01*
X14194143Y-11532000D01*
X14208428Y-11546286D01*
X14222714Y-11574857D01*
X14237000Y-11632000D01*
X14237000Y-11703429D01*
X14222714Y-11760571D01*
X14208428Y-11789143D01*
X14194143Y-11803429D01*
X14165571Y-11817714D01*
X14137000Y-11817714D01*
X14108428Y-11803429D01*
X14094143Y-11789143D01*
X14079857Y-11760571D01*
X14065571Y-11703429D01*
X14065571Y-11632000D01*
X14079857Y-11574857D01*
X14094143Y-11546286D01*
X14108428Y-11532000D01*
X14137000Y-11517714D01*
X14365571Y-11789143D02*
X14379857Y-11803429D01*
X14365571Y-11817714D01*
X14351286Y-11803429D01*
X14365571Y-11789143D01*
X14365571Y-11817714D01*
X14665571Y-11817714D02*
X14494143Y-11817714D01*
X14579857Y-11817714D02*
X14579857Y-11517714D01*
X14551286Y-11560571D01*
X14522714Y-11589143D01*
X14494143Y-11603429D01*
X14851286Y-11517714D02*
X14879857Y-11517714D01*
X14908428Y-11532000D01*
X14922714Y-11546286D01*
X14937000Y-11574857D01*
X14951286Y-11632000D01*
X14951286Y-11703429D01*
X14937000Y-11760571D01*
X14922714Y-11789143D01*
X14908428Y-11803429D01*
X14879857Y-11817714D01*
X14851286Y-11817714D01*
X14822714Y-11803429D01*
X14808428Y-11789143D01*
X14794143Y-11760571D01*
X14779857Y-11703429D01*
X14779857Y-11632000D01*
X14794143Y-11574857D01*
X14808428Y-11546286D01*
X14822714Y-11532000D01*
X14851286Y-11517714D01*
X15122714Y-11646286D02*
X15094143Y-11632000D01*
X15079857Y-11617714D01*
X15065571Y-11589143D01*
X15065571Y-11574857D01*
X15079857Y-11546286D01*
X15094143Y-11532000D01*
X15122714Y-11517714D01*
X15179857Y-11517714D01*
X15208428Y-11532000D01*
X15222714Y-11546286D01*
X15237000Y-11574857D01*
X15237000Y-11589143D01*
X15222714Y-11617714D01*
X15208428Y-11632000D01*
X15179857Y-11646286D01*
X15122714Y-11646286D01*
X15094143Y-11660571D01*
X15079857Y-11674857D01*
X15065571Y-11703429D01*
X15065571Y-11760571D01*
X15079857Y-11789143D01*
X15094143Y-11803429D01*
X15122714Y-11817714D01*
X15179857Y-11817714D01*
X15208428Y-11803429D01*
X15222714Y-11789143D01*
X15237000Y-11760571D01*
X15237000Y-11703429D01*
X15222714Y-11674857D01*
X15208428Y-11660571D01*
X15179857Y-11646286D01*
X15351286Y-11517714D02*
X15351286Y-11574857D01*
X15465571Y-11517714D02*
X15465571Y-11574857D01*
X15908428Y-11932000D02*
X15894143Y-11917714D01*
X15865571Y-11874857D01*
X15851286Y-11846286D01*
X15837000Y-11803429D01*
X15822714Y-11732000D01*
X15822714Y-11674857D01*
X15837000Y-11603429D01*
X15851286Y-11560571D01*
X15865571Y-11532000D01*
X15894143Y-11489143D01*
X15908428Y-11474857D01*
X16151286Y-11617714D02*
X16151286Y-11817714D01*
X16079857Y-11503429D02*
X16008428Y-11717714D01*
X16194143Y-11717714D01*
X16537000Y-11817714D02*
X16537000Y-11517714D01*
X16665571Y-11817714D02*
X16665571Y-11660571D01*
X16651286Y-11632000D01*
X16622714Y-11617714D01*
X16579857Y-11617714D01*
X16551286Y-11632000D01*
X16537000Y-11646286D01*
X16851286Y-11817714D02*
X16822714Y-11803429D01*
X16808428Y-11789143D01*
X16794143Y-11760571D01*
X16794143Y-11674857D01*
X16808428Y-11646286D01*
X16822714Y-11632000D01*
X16851286Y-11617714D01*
X16894143Y-11617714D01*
X16922714Y-11632000D01*
X16937000Y-11646286D01*
X16951286Y-11674857D01*
X16951286Y-11760571D01*
X16937000Y-11789143D01*
X16922714Y-11803429D01*
X16894143Y-11817714D01*
X16851286Y-11817714D01*
X17122714Y-11817714D02*
X17094143Y-11803429D01*
X17079857Y-11774857D01*
X17079857Y-11517714D01*
X17351286Y-11803429D02*
X17322714Y-11817714D01*
X17265571Y-11817714D01*
X17237000Y-11803429D01*
X17222714Y-11774857D01*
X17222714Y-11660571D01*
X17237000Y-11632000D01*
X17265571Y-11617714D01*
X17322714Y-11617714D01*
X17351286Y-11632000D01*
X17365571Y-11660571D01*
X17365571Y-11689143D01*
X17222714Y-11717714D01*
X17479857Y-11803429D02*
X17508428Y-11817714D01*
X17565571Y-11817714D01*
X17594143Y-11803429D01*
X17608428Y-11774857D01*
X17608428Y-11760571D01*
X17594143Y-11732000D01*
X17565571Y-11717714D01*
X17522714Y-11717714D01*
X17494143Y-11703429D01*
X17479857Y-11674857D01*
X17479857Y-11660571D01*
X17494143Y-11632000D01*
X17522714Y-11617714D01*
X17565571Y-11617714D01*
X17594143Y-11632000D01*
X17708428Y-11932000D02*
X17722714Y-11917714D01*
X17751286Y-11874857D01*
X17765571Y-11846286D01*
X17779857Y-11803429D01*
X17794143Y-11732000D01*
X17794143Y-11674857D01*
X17779857Y-11603429D01*
X17765571Y-11560571D01*
X17751286Y-11532000D01*
X17722714Y-11489143D01*
X17708428Y-11474857D01*
X18251286Y-11932000D02*
X18237000Y-11917714D01*
X18208428Y-11874857D01*
X18194143Y-11846286D01*
X18179857Y-11803429D01*
X18165571Y-11732000D01*
X18165571Y-11674857D01*
X18179857Y-11603429D01*
X18194143Y-11560571D01*
X18208428Y-11532000D01*
X18237000Y-11489143D01*
X18251286Y-11474857D01*
X18365571Y-11617714D02*
X18365571Y-11817714D01*
X18365571Y-11646286D02*
X18379857Y-11632000D01*
X18408428Y-11617714D01*
X18451286Y-11617714D01*
X18479857Y-11632000D01*
X18494143Y-11660571D01*
X18494143Y-11817714D01*
X18679857Y-11817714D02*
X18651286Y-11803429D01*
X18637000Y-11789143D01*
X18622714Y-11760571D01*
X18622714Y-11674857D01*
X18637000Y-11646286D01*
X18651286Y-11632000D01*
X18679857Y-11617714D01*
X18722714Y-11617714D01*
X18751286Y-11632000D01*
X18765571Y-11646286D01*
X18779857Y-11674857D01*
X18779857Y-11760571D01*
X18765571Y-11789143D01*
X18751286Y-11803429D01*
X18722714Y-11817714D01*
X18679857Y-11817714D01*
X18865571Y-11617714D02*
X18979857Y-11617714D01*
X18908428Y-11517714D02*
X18908428Y-11774857D01*
X18922714Y-11803429D01*
X18951286Y-11817714D01*
X18979857Y-11817714D01*
X19308428Y-11617714D02*
X19308428Y-11917714D01*
X19308428Y-11632000D02*
X19337000Y-11617714D01*
X19394143Y-11617714D01*
X19422714Y-11632000D01*
X19437000Y-11646286D01*
X19451286Y-11674857D01*
X19451286Y-11760571D01*
X19437000Y-11789143D01*
X19422714Y-11803429D01*
X19394143Y-11817714D01*
X19337000Y-11817714D01*
X19308428Y-11803429D01*
X19622714Y-11817714D02*
X19594143Y-11803429D01*
X19579857Y-11774857D01*
X19579857Y-11517714D01*
X19865571Y-11817714D02*
X19865571Y-11660571D01*
X19851286Y-11632000D01*
X19822714Y-11617714D01*
X19765571Y-11617714D01*
X19737000Y-11632000D01*
X19865571Y-11803429D02*
X19837000Y-11817714D01*
X19765571Y-11817714D01*
X19737000Y-11803429D01*
X19722714Y-11774857D01*
X19722714Y-11746286D01*
X19737000Y-11717714D01*
X19765571Y-11703429D01*
X19837000Y-11703429D01*
X19865571Y-11689143D01*
X19965571Y-11617714D02*
X20079857Y-11617714D01*
X20008428Y-11517714D02*
X20008428Y-11774857D01*
X20022714Y-11803429D01*
X20051286Y-11817714D01*
X20079857Y-11817714D01*
X20294143Y-11803429D02*
X20265571Y-11817714D01*
X20208428Y-11817714D01*
X20179857Y-11803429D01*
X20165571Y-11774857D01*
X20165571Y-11660571D01*
X20179857Y-11632000D01*
X20208428Y-11617714D01*
X20265571Y-11617714D01*
X20294143Y-11632000D01*
X20308428Y-11660571D01*
X20308428Y-11689143D01*
X20165571Y-11717714D01*
X20565571Y-11817714D02*
X20565571Y-11517714D01*
X20565571Y-11803429D02*
X20537000Y-11817714D01*
X20479857Y-11817714D01*
X20451286Y-11803429D01*
X20437000Y-11789143D01*
X20422714Y-11760571D01*
X20422714Y-11674857D01*
X20437000Y-11646286D01*
X20451286Y-11632000D01*
X20479857Y-11617714D01*
X20537000Y-11617714D01*
X20565571Y-11632000D01*
X20679857Y-11932000D02*
X20694143Y-11917714D01*
X20722714Y-11874857D01*
X20737000Y-11846286D01*
X20751286Y-11803429D01*
X20765571Y-11732000D01*
X20765571Y-11674857D01*
X20751286Y-11603429D01*
X20737000Y-11560571D01*
X20722714Y-11532000D01*
X20694143Y-11489143D01*
X20679857Y-11474857D01*
M02*
